<svg width="854" height="641" viewBox="0 0 854 641" fill="none" xmlns="http://www.w3.org/2000/svg">
<path d="M670.71 472.363C660.729 462.054 653.097 449.715 648.4 436.147C648.24 436.467 648.026 436.788 647.866 437.108C649.094 436.841 650.268 436.628 651.495 436.36C652.189 436.2 652.296 435.239 651.709 434.918C647.119 432.461 646.585 424.555 645.571 420.015C644.236 414.086 643.009 408.156 641.941 402.227C639.7 390.048 637.992 377.762 636.764 365.423C636.337 365.637 635.963 365.904 635.536 366.118C644.45 371.406 652.937 377.335 660.889 384.012C668.042 390.048 675.194 396.512 680.265 404.417C685.709 412.804 688.324 422.953 689.925 432.675C691.74 443.411 691.74 454.362 689.178 464.992C688.911 466.007 690.459 466.434 690.726 465.419C694.729 449.234 692.701 431.98 687.577 416.276C682.613 401.266 671.404 390.422 659.395 380.7C652.136 374.824 644.397 369.483 636.39 364.729C635.91 364.462 635.109 364.782 635.163 365.423C636.444 378.617 638.312 391.704 640.767 404.684C641.995 411.148 643.329 417.611 644.877 423.968C645.891 428.295 646.585 433.957 650.908 436.307C650.962 435.826 651.015 435.346 651.122 434.865C649.894 435.132 648.72 435.346 647.492 435.613C647.065 435.719 646.798 436.2 646.959 436.574C651.762 450.409 659.502 462.962 669.696 473.485C670.337 474.233 671.458 473.111 670.71 472.363Z" fill="#E8E8E8"/>
<path d="M636.923 366.759C656.245 394.749 669.589 426.586 675.994 459.971C676.207 460.986 677.755 460.559 677.542 459.544C671.083 425.998 657.686 394.001 638.258 365.904C637.724 365.103 636.336 365.904 636.923 366.759Z" fill="#E8E8E8"/>
<path d="M643.328 412.804C651.388 414.566 659.874 416.543 665.478 423.113C666.119 423.914 667.293 422.739 666.599 421.991C660.835 415.207 652.081 413.071 643.755 411.255C642.741 411.041 642.314 412.59 643.328 412.804Z" fill="#E8E8E8"/>
<path d="M664.572 412.911C663.985 405.432 665.16 398.007 668.149 391.117C668.576 390.155 667.188 389.354 666.761 390.315C663.665 397.473 662.331 405.112 662.971 412.911C663.078 413.926 664.679 413.926 664.572 412.911Z" fill="#E8E8E8"/>
<path d="M677.434 398.221C681.277 374.291 697.664 355.702 713.356 338.341C712.929 338.074 712.448 337.807 712.021 337.54C708.339 350.734 716.985 362.966 720.134 375.359C721.842 382.196 722.643 389.247 722.803 396.298C722.91 399.77 722.856 403.296 722.75 406.768C722.696 408.477 722.696 410.24 722.323 411.896C721.789 414.193 719.227 417.772 716.505 415.368C716.185 415.795 715.864 416.223 715.544 416.65C720.241 419.107 718.533 426.158 717.786 430.271C716.825 435.827 715.224 441.115 711.648 445.602C706.47 452.012 699.051 456.766 696.596 464.992C696.276 466.007 697.824 466.381 698.144 465.419C701.186 455.377 711.915 450.57 716.345 441.275C718.64 436.468 719.654 430.805 720.134 425.571C720.508 421.778 720.134 417.238 716.345 415.315C715.597 414.941 714.637 415.956 715.384 416.597C717.039 418.092 719.334 418.092 721.202 416.864C723.283 415.475 723.924 412.911 724.137 410.507C724.991 402.441 724.618 393.948 723.657 385.935C722.696 377.923 720.561 370.391 717.572 362.966C714.423 355.061 711.167 346.674 713.569 338.074C713.783 337.326 712.769 336.685 712.235 337.273C696.383 354.847 679.783 373.703 675.887 397.847C675.726 398.809 677.274 399.236 677.434 398.221Z" fill="#E8E8E8"/>
<path d="M710.207 342.988C699.105 370.391 692.22 399.343 689.765 428.829C689.658 429.844 691.259 429.844 691.366 428.829C693.821 399.503 700.707 370.711 711.755 343.416C712.129 342.507 710.581 342.08 710.207 342.988Z" fill="#E8E8E8"/>
<path d="M557.661 426.906C570.737 429.737 583.494 423.434 596.091 420.924C609.968 418.199 624.272 418.199 638.203 420.71C639.217 420.87 639.645 419.374 638.63 419.161C625.714 416.81 612.53 416.65 599.613 418.68C592.995 419.748 586.59 421.565 580.185 423.381C572.979 425.357 565.56 426.96 558.141 425.357C557.073 425.143 556.646 426.639 557.661 426.906Z" fill="#E8E8E8"/>
<path d="M721.096 421.992C728.675 420.549 736.147 422.365 743.46 424.182C750.612 425.891 757.818 427.44 765.13 428.722C779.221 431.179 793.525 432.621 807.83 433.209C808.844 433.262 808.844 431.66 807.83 431.607C792.618 431.019 777.513 429.363 762.514 426.639C755.255 425.303 748.103 423.647 740.951 421.938C734.279 420.336 727.5 419.16 720.668 420.496C719.708 420.656 720.135 422.205 721.096 421.992Z" fill="#E8E8E8"/>
<path d="M117.798 377.229C136.693 372.848 155.587 367.774 174.749 364.996C193.857 362.272 213.232 361.951 232.501 363.607C269.543 366.812 305.518 376.534 341.813 384.066C361.828 388.232 382.057 391.651 402.5 393.04C403.514 393.093 403.514 391.491 402.5 391.437C365.031 388.873 328.629 379.312 292.014 371.513C255.612 363.821 218.57 358.266 181.314 362.539C159.697 365.05 138.561 370.765 117.371 375.679C116.357 375.893 116.784 377.442 117.798 377.229Z" fill="#E8E8E8"/>
<path d="M269.384 366.758C300.715 364.034 331.405 356.663 361.776 348.757C392.84 340.638 423.904 332.412 454.969 324.185C485.979 316.013 516.937 307.626 548.055 299.667C563.533 295.714 579.172 292.135 595.078 290.64C610.397 289.197 625.875 289.411 641.194 290.853C676.955 294.165 711.756 303.727 746.289 313.235C747.303 313.502 747.73 311.953 746.716 311.686C716.346 303.299 685.815 294.913 654.484 290.747C638.899 288.663 623.1 287.595 607.354 288.236C591.875 288.824 576.61 291.281 561.505 294.699C546.133 298.225 530.921 302.445 515.656 306.504C500.07 310.618 484.485 314.731 468.899 318.844C437.408 327.123 405.864 335.456 374.372 343.736C339.839 352.817 305.092 362.004 269.384 365.103C268.37 365.263 268.37 366.865 269.384 366.758Z" fill="#E8E8E8"/>
<path d="M183.397 462.802C196.42 463.283 209.497 463.764 222.52 464.244C235.224 464.725 247.98 465.473 260.684 465.58C273.067 465.687 285.023 463.283 297.192 461.093C309.895 458.796 322.759 457.14 335.622 456.232C349.98 455.164 364.391 455.003 378.749 455.591C379.763 455.644 379.763 454.042 378.749 453.988C353.556 452.92 328.31 454.362 303.437 458.422C290.734 460.505 278.137 463.71 265.274 463.977C252.677 464.298 239.921 463.336 227.324 462.856C212.699 462.321 198.075 461.787 183.45 461.253C182.383 461.146 182.383 462.749 183.397 462.802Z" fill="#E8E8E8"/>
<path d="M157.188 532.778C157.989 533.365 158.79 533.899 159.59 534.487C160.338 535.021 161.192 533.846 160.551 533.205C158.096 530.641 155.694 528.13 153.239 525.566C152.118 524.391 150.783 523.323 149.876 521.987C148.488 519.958 149.929 518.996 150.25 517.34C150.623 515.631 148.915 514.669 147.955 513.601C145.82 511.304 144.432 508.42 143.364 505.482C138.934 493.356 137.386 479.681 136.959 466.861C136.692 467.129 136.426 467.396 136.159 467.663C149.609 466.434 157.402 479.147 161.885 489.884C166.903 501.796 171.493 514.242 172.08 527.329C172.133 528.344 173.735 528.344 173.681 527.329C173.041 513.334 168.024 499.766 162.366 487.053C157.669 476.423 149.182 464.832 136.105 466.007C135.678 466.06 135.305 466.327 135.305 466.808C135.572 473.699 136.212 480.536 137.333 487.32C138.454 493.944 139.735 500.781 142.19 507.031C143.097 509.328 144.218 511.518 145.713 513.441C146.78 514.776 148.595 515.951 147.955 517.928C147.688 518.729 147.154 519.156 147.207 520.118C147.314 522.468 149.876 524.391 151.317 525.887C153.986 528.665 156.708 531.496 159.377 534.273C159.697 533.846 160.017 533.419 160.338 532.991C159.537 532.404 158.736 531.869 157.936 531.282C157.135 530.801 156.334 532.19 157.188 532.778Z" fill="#E8E8E8"/>
<path d="M167.117 496.401C171.76 484.222 179.927 473.592 190.548 466.06C190.175 465.953 189.801 465.847 189.428 465.793C192.417 472.631 194.445 479.788 195.512 487.16C195.672 486.839 195.886 486.519 196.046 486.198C194.765 486.572 193.484 486.946 192.15 487.32C191.616 487.48 191.456 488.015 191.669 488.495C193.164 492.074 194.818 496.134 193.164 499.927C191.776 503.078 188.787 505.428 186.705 508.046C182.916 512.746 179.98 517.981 177.738 523.537C177.365 524.498 178.913 524.926 179.286 523.964C182.275 516.432 186.759 510.45 192.043 504.413C193.964 502.223 195.406 499.82 195.512 496.828C195.619 493.623 194.285 490.579 193.057 487.694C192.897 488.068 192.737 488.495 192.577 488.869C193.858 488.495 195.139 488.121 196.473 487.747C196.9 487.641 197.114 487.213 197.007 486.786C195.886 479.254 193.804 471.99 190.762 464.992C190.602 464.618 190.015 464.458 189.641 464.725C178.646 472.577 170.266 483.421 165.462 496.027C165.249 496.935 166.743 497.362 167.117 496.401Z" fill="#E8E8E8"/>
<path d="M141.711 475.515C155.321 491.166 164.181 510.663 166.904 531.228C167.064 532.243 168.665 532.243 168.505 531.228C165.676 510.182 156.762 490.365 142.831 474.34C142.138 473.592 141.017 474.714 141.711 475.515Z" fill="#E8E8E8"/>
<path d="M174.376 513.281C176.885 504.414 180.408 495.92 184.945 487.855C185.425 486.946 184.091 486.145 183.557 487.053C178.967 495.226 175.391 503.88 172.829 512.854C172.508 513.868 174.056 514.296 174.376 513.281Z" fill="#E8E8E8"/>
<path d="M142.243 446.403C160.924 442.771 180.033 441.382 198.821 444.961C207.574 446.617 216.221 448.54 225.081 449.555C234.422 450.623 243.869 451.05 253.263 451.424C254.277 451.478 254.277 449.875 253.263 449.822C243.869 449.394 234.422 449.02 225.081 447.952C215.367 446.83 205.866 444.533 196.205 442.878C178.165 439.779 159.643 441.435 141.816 444.907C140.802 445.068 141.229 446.617 142.243 446.403Z" fill="#E8E8E8"/>
<path d="M212.646 509.915C223.321 508.206 233.996 506.443 244.777 505.802C255.719 505.161 266.287 506.069 277.016 508.046C286.837 509.862 296.338 510.717 306.372 510.503C316.78 510.236 327.295 509.755 337.436 512.479C338.45 512.747 338.877 511.197 337.863 510.93C328.042 508.259 317.954 508.58 307.867 508.847C302.529 509.007 297.138 509.061 291.801 508.633C286.303 508.206 280.859 507.084 275.468 506.123C265.113 504.253 254.812 503.559 244.244 504.2C233.515 504.894 222.84 506.604 212.219 508.313C211.204 508.527 211.631 510.076 212.646 509.915Z" fill="#E8E8E8"/>
<path d="M506.048 522.682C526.064 519.797 546.186 518.088 566.415 517.661C586.11 517.233 605.806 518.035 625.501 518.462C626.515 518.462 626.515 516.859 625.501 516.859C605.486 516.432 585.417 515.631 565.348 516.112C545.332 516.592 525.423 518.302 505.621 521.133C504.607 521.293 505.034 522.789 506.048 522.682Z" fill="#E8E8E8"/>
<path d="M594.757 534.166C602.389 530.908 610.609 534.861 618.455 534.487C620.11 534.38 621.818 534.166 623.419 533.632C625.607 532.884 627.636 531.709 629.984 531.602C634.041 531.389 637.83 532.938 641.887 532.297C642.901 532.137 642.474 530.587 641.46 530.748C636.923 531.496 632.493 529.252 628.009 530.267C625.981 530.694 624.166 531.763 622.191 532.35C620.163 532.884 618.082 532.991 616 532.938C608.581 532.617 601.162 529.786 593.903 532.884C593.049 533.151 593.849 534.54 594.757 534.166Z" fill="#E8E8E8"/>
<path d="M702.734 475.141C716.184 471.135 729.635 471.242 743.406 472.898C756.376 474.447 769.452 476.477 782.476 474.18C783.49 474.02 783.063 472.47 782.049 472.631C768.492 475.034 754.881 472.577 741.377 471.082C728.087 469.586 715.117 469.746 702.253 473.646C701.346 473.913 701.72 475.462 702.734 475.141Z" fill="#E8E8E8"/>
<path d="M649.093 169.704C639.165 164.363 632.707 154 634.201 142.515C635.536 131.992 643.969 122.911 654.27 120.454C664.785 117.997 676.528 122.965 682.239 132.099C688.377 141.874 687.043 154.801 679.517 163.455C670.977 173.283 656.032 174.779 645.25 167.835C644.396 167.247 643.595 168.636 644.449 169.224C654.484 175.741 668.361 175.313 677.649 167.568C686.882 159.876 690.298 146.522 685.708 135.358C681.331 124.728 670.123 117.783 658.647 118.264C647.332 118.798 637.083 126.971 633.667 137.708C629.397 151.009 636.55 164.683 648.346 171.04C649.2 171.574 650 170.185 649.093 169.704Z" fill="#E8E8E8"/>
<path d="M188.412 286.527C193.856 281.666 201.489 284.978 205.546 289.892C207.627 292.403 208.855 295.234 210.456 298.012C211.47 299.881 212.965 301.751 215.206 302.178C216.968 302.499 218.409 301.858 219.583 300.576C220.33 299.721 220.811 298.599 221.558 297.745C223.159 295.875 225.241 296.089 226.949 297.584C230.685 300.843 230.845 308.909 237.41 308.321C238.425 308.214 238.425 306.612 237.41 306.719C230.578 307.36 231.379 295.875 224.814 294.753C222.892 294.433 221.345 295.287 220.17 296.783C219.423 297.745 218.943 299.08 217.982 299.881C215.206 302.178 212.751 298.973 211.63 296.783C208.908 291.762 206.239 286.527 200.849 283.91C196.418 281.773 191.028 281.987 187.291 285.352C186.544 286.046 187.665 287.222 188.412 286.527Z" fill="#E8E8E8"/>
<path d="M547.68 214.628C546.613 211.744 545.332 208.325 547.253 205.494C549.015 202.983 552.004 204.265 554.512 203.464C557.822 202.396 559.85 199.137 560.757 195.986C561.825 192.3 560.544 187.492 562.732 184.234C565.401 180.228 571.165 185.142 574.795 182.685C575.649 182.097 574.848 180.709 573.994 181.296C570.311 183.807 565.294 178.679 561.825 182.792C559.049 186.05 560.33 191.018 559.423 194.864C558.782 197.535 557.341 200.366 554.833 201.648C552.644 202.77 550.136 201.648 547.947 202.77C543.25 205.173 544.745 211.156 546.186 215.055C546.453 215.963 548.001 215.59 547.68 214.628Z" fill="#E8E8E8"/>
<path d="M553.445 177.183C552.431 174.512 553.018 171.468 554.993 169.331C557.448 166.66 560.277 167.728 563.32 166.66C565.134 166.019 566.202 164.47 566.896 162.761C567.323 161.692 567.589 160.571 567.963 159.502C568.283 158.648 568.657 157.686 569.297 157.045C570.258 156.137 572.553 155.389 573.141 157.419C573.461 158.38 574.955 158.007 574.688 156.992C573.994 154.748 571.379 153.947 569.351 155.015C565.508 156.992 566.896 162.867 563.32 164.844C561.345 165.912 558.889 165.271 556.808 166.126C555.473 166.713 554.299 167.675 553.392 168.797C551.417 171.307 550.776 174.619 551.897 177.61C552.217 178.572 553.765 178.145 553.445 177.183Z" fill="#E8E8E8"/>
<path d="M598.387 234.232C596.786 231.935 597.266 228.677 599.348 226.754C601.75 224.51 605.219 225.525 606.874 228.089C610.663 233.805 602.284 238.826 598.28 234.072C597.587 233.27 596.466 234.446 597.16 235.193C599.455 237.918 603.725 238.238 606.66 236.315C609.97 234.178 610.236 229.852 607.941 226.807C605.7 223.816 601.536 222.801 598.547 225.258C595.718 227.555 594.864 231.935 596.999 234.98C597.587 235.888 598.974 235.087 598.387 234.232Z" fill="#E8E8E8"/>
<path d="M604.419 243.099C602.925 241.016 601.056 238.505 601.697 235.835C602.658 231.882 607.355 232.897 609.49 235.247C611.251 237.223 611.892 240.322 609.65 242.191C607.942 243.633 605.326 243.9 603.779 242.191C603.085 241.443 601.964 242.565 602.658 243.313C604.793 245.61 608.422 245.396 610.717 243.42C613.439 241.069 613.119 237.17 610.984 234.553C608.849 231.882 603.992 229.959 601.323 233.004C598.334 236.422 600.843 240.856 603.031 243.901C603.618 244.755 605.006 243.954 604.419 243.099Z" fill="#E8E8E8"/>
<path d="M245.47 354.42C251.448 356.236 257.533 357.304 263.725 357.518C264.739 357.571 264.739 355.969 263.725 355.915C257.64 355.702 251.662 354.687 245.898 352.871C244.883 352.55 244.456 354.099 245.47 354.42Z" fill="#E8E8E8"/>
<path d="M645.782 311.686C682.077 311.419 716.237 324.987 750.504 335.029C760.325 337.914 770.253 340.531 780.287 342.508C781.301 342.721 781.728 341.172 780.714 340.959C745.113 333.908 711.54 318.791 675.725 312.648C665.851 310.938 655.817 309.977 645.782 310.084C644.768 310.084 644.768 311.686 645.782 311.686Z" fill="#E8E8E8"/>
<path d="M288.972 80.0716C290.84 84.5586 293.135 94.4941 299.861 90.0606C302.102 88.6183 305.412 84.3984 307.814 87.8171C309.255 89.8469 309.361 92.5177 312.084 93.4258C313.044 93.7463 313.471 92.1972 312.511 91.8767C310.002 91.0221 310.002 87.1761 307.974 85.627C306.639 84.6121 304.985 84.6655 303.544 85.4133C301.409 86.4282 299.861 88.7251 297.619 89.473C293.616 90.8084 291.588 82.2083 290.52 79.6443C290.093 78.7362 288.545 79.1101 288.972 80.0716Z" fill="#E8E8E8"/>
<path d="M305.572 81.0333C308.561 78.7364 312.938 79.8047 314.432 83.2768C315.339 85.4669 316.033 86.7489 318.595 86.9091C319.823 86.9625 321.157 86.5352 322.385 86.7489C324.947 87.1762 324.947 89.4197 325.374 91.503C325.801 93.5862 326.762 95.4024 329.004 95.6694C330.018 95.7763 330.018 94.1738 329.004 94.067C326.068 93.7465 327.296 87.7104 325 86.001C322.545 84.1849 318.862 86.5886 316.941 84.3451C316.033 83.2768 315.766 81.8345 314.806 80.7662C314.058 79.8581 313.044 79.2171 311.924 78.7898C309.522 77.8283 306.853 78.1488 304.825 79.6979C303.917 80.2855 304.718 81.6743 305.572 81.0333Z" fill="#E8E8E8"/>
<path d="M353.608 131.405C356.971 132.1 360.547 129.963 361.455 126.544C362.309 123.339 360.227 120.294 357.185 119.28C350.086 116.876 346.136 126.651 351.9 130.657C352.754 131.245 353.555 129.856 352.701 129.268C348.645 126.437 351.153 119.333 356.331 120.668C358.572 121.256 360.44 123.286 360.013 125.69C359.533 128.414 356.758 130.39 354.035 129.803C353.021 129.642 352.594 131.191 353.608 131.405Z" fill="#E8E8E8"/>
<path d="M358.786 134.129C357.505 133.114 355.957 131.992 355.424 130.337C354.676 128.093 356.811 125.422 359.32 126.063C361.081 126.544 362.309 128.574 361.882 130.39C361.348 132.42 359.053 133.435 357.131 132.954C356.117 132.687 355.69 134.236 356.704 134.503C359.32 135.144 362.202 133.915 363.27 131.351C364.284 128.841 362.896 125.796 360.441 124.728C357.985 123.713 355.157 125.048 354.089 127.399C352.595 130.657 355.317 133.381 357.719 135.251C358.413 135.892 359.587 134.77 358.786 134.129Z" fill="#E8E8E8"/>
<path d="M252.303 239.627C249.848 237.437 249.367 234.125 251.769 231.668C253.851 229.585 256.946 229.638 258.921 231.828C263.031 236.422 257.107 242.405 252.249 239.253C251.395 238.666 250.595 240.054 251.449 240.642C254.331 242.512 258.281 241.871 260.523 239.307C262.818 236.636 262.124 232.63 259.669 230.279C257.053 227.822 253.157 227.982 250.648 230.493C247.606 233.538 248.086 237.971 251.182 240.749C251.929 241.443 253.05 240.322 252.303 239.627Z" fill="#E8E8E8"/>
<path d="M479.841 88.6182C482.937 81.8343 487.261 75.7982 492.598 70.6168C493.345 69.9223 492.224 68.7472 491.477 69.495C486.033 74.7833 481.656 80.9262 478.454 87.8703C478.027 88.725 479.414 89.5797 479.841 88.6182Z" fill="#E8E8E8"/>
<path d="M486.511 87.5496C489.714 83.5968 493.29 79.9111 497.133 76.5458C497.933 75.8514 496.759 74.7297 496.012 75.4241C492.169 78.7893 488.646 82.4751 485.39 86.4279C484.75 87.2292 485.871 88.3509 486.511 87.5496Z" fill="#E8E8E8"/>
<path d="M490.568 92.3572C492.009 91.1286 493.45 89.9535 494.892 88.7249C495.692 88.0839 494.518 86.9087 493.771 87.6031C492.33 88.8317 490.888 90.0069 489.447 91.2355C488.647 91.8765 489.768 92.9982 490.568 92.3572Z" fill="#E8E8E8"/>
<path d="M566.095 97.0581C570.399 97.0581 573.888 93.5665 573.888 89.2593C573.888 84.9521 570.399 81.4604 566.095 81.4604C561.792 81.4604 558.303 84.9521 558.303 89.2593C558.303 93.5665 561.792 97.0581 566.095 97.0581Z" fill="#0F243F"/>
<path d="M562.519 109.184C565.083 109.184 567.162 107.103 567.162 104.536C567.162 101.97 565.083 99.8892 562.519 99.8892C559.954 99.8892 557.875 101.97 557.875 104.536C557.875 107.103 559.954 109.184 562.519 109.184Z" fill="#0F243F"/>
<path d="M316.514 316.387C319.668 316.387 322.225 313.828 322.225 310.672C322.225 307.515 319.668 304.956 316.514 304.956C313.36 304.956 310.803 307.515 310.803 310.672C310.803 313.828 313.36 316.387 316.514 316.387Z" fill="#0F243F"/>
<path d="M325.801 332.038C327.541 332.038 328.951 330.627 328.951 328.886C328.951 327.146 327.541 325.735 325.801 325.735C324.062 325.735 322.652 327.146 322.652 328.886C322.652 330.627 324.062 332.038 325.801 332.038Z" fill="#0F243F"/>
<path d="M381.417 245.77C381.898 250.418 383.392 254.531 388.676 254.424C390.491 254.424 392.039 253.89 393.427 255.279C394.708 256.561 394.334 257.843 394.868 259.445C395.135 260.246 395.508 260.994 396.255 261.528C397.216 262.223 400.846 262.223 400.525 263.825C400.312 264.84 401.86 265.268 402.073 264.253C402.447 262.436 401.219 261.368 399.511 260.887C397.056 260.193 396.469 259.231 396.095 257.041C395.935 256.026 395.722 255.012 395.028 254.157C393.64 252.501 391.398 252.715 389.477 252.768C387.395 252.875 385.42 252.715 384.299 250.685C383.445 249.189 383.232 247.373 383.072 245.717C382.912 244.756 381.31 244.756 381.417 245.77Z" fill="#0F243F"/>
<path d="M386.861 265.427C389.637 262.49 392.946 265.481 393.8 268.419C394.174 269.594 394.227 270.716 395.081 271.624C397.003 273.76 400.525 272.585 402.287 274.829C402.927 275.63 404.048 274.508 403.408 273.707C402.233 272.211 400.579 271.998 398.817 271.624C397.163 271.25 396.255 270.662 395.615 269.006C395.188 267.991 395.135 266.923 394.547 265.908C392.733 262.65 388.463 261.368 385.741 264.252C384.993 265.054 386.114 266.175 386.861 265.427Z" fill="#0F243F"/>
<path d="M576.449 260.032C575.435 258.109 577.57 256.667 579.171 257.842C579.651 258.163 580.399 257.735 580.399 257.148C580.238 255.332 582.053 253.996 583.761 254.637C584.722 255.011 585.149 253.462 584.188 253.088C581.519 252.073 578.584 254.317 578.797 257.148C579.224 256.934 579.598 256.667 580.025 256.453C576.983 254.263 573.407 257.629 575.115 260.834C575.542 261.742 576.929 260.94 576.449 260.032Z" fill="#0F243F"/>
<path d="M585.524 259.178C585.15 258.27 587.712 258.11 588.139 258.11C589.474 258.163 590.755 258.377 592.089 258.484C593.103 258.59 593.103 256.988 592.089 256.881C590.007 256.667 587.659 256.08 585.631 256.934C584.296 257.522 583.549 258.59 584.136 259.979C584.51 260.941 585.898 260.086 585.524 259.178Z" fill="#0F243F"/>
<path d="M307.386 323.278C310.865 323.278 313.684 320.456 313.684 316.975C313.684 313.493 310.865 310.671 307.386 310.671C303.908 310.671 301.088 313.493 301.088 316.975C301.088 320.456 303.908 323.278 307.386 323.278Z" fill="#080F1F"/>
<path d="M367.006 87.0158C371.693 87.0158 375.493 83.2132 375.493 78.5225C375.493 73.8319 371.693 70.0293 367.006 70.0293C362.319 70.0293 358.52 73.8319 358.52 78.5225C358.52 83.2132 362.319 87.0158 367.006 87.0158Z" fill="#080F1F"/>
<path d="M213.18 415.368C219.105 415.368 223.908 410.561 223.908 404.631C223.908 398.702 219.105 393.895 213.18 393.895C207.254 393.895 202.451 398.702 202.451 404.631C202.451 410.561 207.254 415.368 213.18 415.368Z" fill="#080F1F"/>
<path d="M579.384 377.496C582.421 377.496 584.882 375.032 584.882 371.994C584.882 368.955 582.421 366.492 579.384 366.492C576.348 366.492 573.887 368.955 573.887 371.994C573.887 375.032 576.348 377.496 579.384 377.496Z" fill="#080F1F"/>
<path d="M518.218 502.651C529.534 499.926 540.903 497.149 552.218 494.424C559.477 494.959 570.259 495.119 583.069 492.982C595.238 490.952 618.563 485.237 618.403 478.934C618.296 474.767 607.888 471.776 590.702 466.808C579.333 463.55 569.779 461.627 563.427 460.505C556.381 463.977 548.802 467.396 540.636 470.654C529.587 475.088 519.072 478.56 509.305 481.284C512.24 488.442 515.229 495.546 518.218 502.651Z" fill="#080F1F" stroke="#080F1F" stroke-width="3" stroke-miterlimit="10"/>
<path d="M490.248 491.807C501.563 489.083 512.932 486.305 524.248 483.581C531.507 484.115 542.288 484.275 555.098 482.138C567.268 480.109 590.593 474.393 590.433 468.09C590.326 463.923 579.918 460.932 562.731 455.964C551.362 452.706 541.808 450.783 535.456 449.661C528.411 453.133 520.832 456.552 512.665 459.81C501.617 464.244 491.102 467.716 481.334 470.44C484.27 477.651 487.259 484.756 490.248 491.807Z" fill="#080F1F" stroke="#080F1F" stroke-width="3" stroke-miterlimit="10"/>
<path d="M431.856 393.146C421.768 398.595 413.068 404.631 411.574 405.646C406.45 409.225 394.494 417.611 382.645 429.844C365.138 447.899 350.406 463.069 351.367 482.299C352.221 499.606 365.298 511.625 366.739 512.907C390.064 533.739 439.916 526.154 490.249 494.051C488.434 484.489 486.672 474.981 484.858 465.419C489.341 464.511 499.482 461.787 508.716 453.08C520.192 442.236 522.754 429.096 523.394 424.823C523.341 419.962 522.754 414.246 521.099 408.05C516.029 389.033 503.966 377.015 497.561 371.513C480.961 374.397 455.982 380.22 431.856 393.146Z" fill="white" stroke="#080F1F" stroke-width="3" stroke-miterlimit="10"/>
<path d="M470.019 403.135C459.771 408.691 450.644 414.994 449.737 415.635C436.5 424.876 427.159 433.743 420.808 439.833C398.123 461.627 382.004 476.423 384.139 494.371C386.221 511.625 403.461 522.041 404.902 522.842C414.99 528.718 425.238 528.878 433.457 528.451C470.393 526.528 511.812 510.77 528.411 503.986C526.597 494.424 524.835 484.916 523.021 475.355C527.504 473.859 540.207 468.838 548.587 455.59C549.868 453.561 554.352 446.136 555.579 435.506C555.953 432.461 556.38 426.051 553.017 412.75C550.936 404.524 547.199 393.04 540.207 380.006C525.476 382.623 496.707 388.713 470.019 403.135Z" fill="white" stroke="#080F1F" stroke-width="3" stroke-miterlimit="10"/>
<path d="M465.163 485.557C484.965 486.038 504.714 483.047 523.448 476.69C524.409 476.37 523.982 474.821 523.021 475.141C504.394 481.498 484.858 484.489 465.163 483.955C464.149 483.901 464.149 485.504 465.163 485.557Z" fill="#080F1F"/>
<path d="M459.985 479.949C461.32 482.246 463.348 484.062 465.803 485.077C466.764 485.451 467.565 484.115 466.604 483.688C464.362 482.726 462.601 481.231 461.373 479.148C460.839 478.239 459.452 479.041 459.985 479.949Z" fill="#080F1F"/>
<path opacity="0.12" d="M493.612 440.367C475.038 450.783 465.43 449.073 446.962 463.496C442.159 467.289 414.083 489.243 417.659 511.518C417.98 513.387 419.634 523.857 427.427 527.97C430.736 529.733 433.992 529.626 438.529 529.305C453.741 528.13 465.483 525.246 466.925 524.872C485.606 520.224 482.457 522.147 495.32 518.675C503.807 516.378 515.282 512.746 528.626 507.137C526.865 497.789 525.05 488.495 523.289 479.147C527.185 477.331 532.522 474.286 537.967 469.372C541.917 465.793 553.179 455.644 555.741 439.619C557.128 431.019 555.42 424.448 552.645 413.818C549.816 402.975 545.866 394.535 542.877 388.926C526.224 418.145 507.543 432.621 493.612 440.367Z" fill="#080F1F"/>
<path opacity="0.11" d="M473.65 394.268C472.902 392.986 449.417 403.669 422.57 423.166C389.37 447.257 370.956 461.52 370.155 481.818C369.248 505.482 401.647 525.246 403.034 524.017C403.782 523.323 384.246 509.808 383.926 490.258C383.713 477.491 391.826 467.395 406.13 452.92C442.692 415.902 474.557 395.817 473.65 394.268Z" fill="#080F1F"/>
<path opacity="0.12" d="M549.12 405.86C546.665 415.582 541.594 429.951 530.492 444.106C506.847 474.18 473.274 481.124 463.453 482.78C465.108 484.382 466.709 486.199 468.364 488.122C477.224 498.805 481.601 510.236 483.896 519.21C498.414 514.189 512.932 509.114 527.396 504.093C525.155 495.226 522.966 486.305 520.725 477.438C525.315 475.569 532.787 471.776 539.833 464.565C542.768 461.52 549.867 454.095 553.177 442.343C557.98 424.93 551.255 410.08 549.12 405.86Z" fill="#080F1F"/>
<path d="M433.726 250.845C438.21 251.486 440.131 264.893 440.772 269.327C443.387 287.328 437.836 295.394 436.982 317.455C436.288 334.976 439.491 335.777 438.05 344.324C435.915 356.823 426.04 372.849 390.973 387.378C388.358 390.209 383.714 394.643 376.989 397.474C362.844 403.456 344.27 400.358 341.761 391.758C340.907 388.874 341.708 384.867 343.683 382.998C346.885 379.9 351.796 384.333 359.909 381.395C360.336 381.235 363.965 379.9 363.858 378.938C363.805 378.35 362.417 378.137 360.763 377.923C353.237 376.855 350.995 377.068 350.835 376.427C350.568 375.359 356.333 371.673 363.805 369.537C369.57 367.881 377.362 366.439 386.97 366.919C395.35 357.465 403.783 348.01 412.163 338.555C411.362 326.376 411.522 309.016 416.113 289.305C419.475 274.989 427.428 249.937 433.726 250.845Z" fill="white" stroke="#080F1F" stroke-width="3" stroke-miterlimit="10"/>
<path opacity="0.12" d="M433.939 250.578C427.373 250.685 421.449 276.805 420.221 295.341C418.673 318.791 424.811 326.109 420.221 340.478C417.179 349.986 409.493 362.218 388.837 373.329C372.557 386.95 361.722 388.393 354.57 386.683C350.193 385.668 344.749 382.837 342.294 385.241C340.212 387.271 341.173 392.292 343.361 395.711C348.592 403.67 364.338 401.747 373.305 398.595C381.631 395.657 387.129 390.529 390.278 387.057C397.59 385.081 414.67 379.365 428.868 363.233C442.692 347.529 445.948 330.809 447.603 321.729C453.954 287.168 441.945 250.417 433.939 250.578Z" fill="#080F1F"/>
<path d="M514.91 219.863C533.911 223.869 548.322 239.948 554.567 254.744C561.452 270.983 557.449 283.696 553.606 310.565C550.991 328.993 548.162 355.541 548.162 388.713C542.398 393.093 515.123 413.071 477.974 407.997C454.382 404.792 438.263 393.093 431.164 387.164C432.338 378.617 433.513 365.37 432.125 349.345C430.097 326.803 424.652 317.99 423.638 300.148C422.998 288.877 423.959 272.265 432.605 251.432C437.462 248.121 444.348 243.74 452.941 239.147C479.629 224.884 496.335 215.964 514.91 219.863Z" fill="#0F243F"/>
<path opacity="0.14" d="M496.441 244.809C501.351 257.949 508.29 282.308 504.607 312.435C498.469 362.486 467.138 393.414 457.424 402.281C465.217 405.379 481.336 410.507 501.885 408.157C525.103 405.486 541.009 394.696 547.681 389.568C547.094 367.347 548.428 348.865 549.923 335.137C554.513 293.792 562.786 278.889 553.979 256.187C551.898 250.792 544.905 232.737 527.238 224.404C522.595 222.214 518.378 221.252 515.442 220.771C514.375 224.564 511.92 231.348 505.942 237.544C502.632 241.07 499.163 243.313 496.441 244.809Z" fill="#080F1F"/>
<path opacity="0.21" d="M555.847 263.878C541.81 302.018 527.719 340.104 513.681 378.243C501.458 388.232 489.182 398.221 476.959 408.21C486.086 409.012 500.604 409.065 517.311 404.151C531.188 400.037 541.703 393.948 548.588 389.194C548.428 383.532 548.321 375.199 548.588 365.156C549.336 339.944 549.656 327.337 553.125 312.06C556.328 297.958 560.651 287.222 557.662 271.197C557.075 267.992 556.381 265.481 555.847 263.878Z" fill="#080F1F"/>
<path d="M329.697 374.184C336.049 389.568 342.454 404.952 348.806 420.282C374.639 411.308 400.526 402.281 426.359 393.307C420.168 378.511 413.976 363.661 407.838 348.864C381.791 357.304 355.744 365.744 329.697 374.184Z" fill="white" stroke="#080F1F" stroke-width="3" stroke-miterlimit="10"/>
<path d="M321.371 323.331C330.018 329.635 340.373 338.448 350.567 350.307C358.84 359.922 365.032 369.27 369.675 377.282C379.817 361.524 389.905 345.766 400.046 330.062C388.25 316.921 376.454 303.834 364.658 290.694C350.194 301.591 335.782 312.434 321.371 323.331Z" fill="white" stroke="#080F1F" stroke-width="3" stroke-miterlimit="10"/>
<path d="M274.613 250.044C274.613 264.466 274.613 278.889 274.613 293.365C285.662 287.916 296.711 282.468 307.759 277.073C315.072 273.494 322.384 269.915 329.696 266.389C327.615 255.866 325.586 245.397 323.505 234.874C307.225 239.895 290.946 244.969 274.613 250.044Z" fill="white" stroke="#080F1F" stroke-width="3" stroke-miterlimit="10"/>
<path d="M242.43 157.953C247.874 170.88 253.318 183.807 258.709 196.734C277.977 185.676 297.299 174.619 316.568 163.562C308.508 148.178 300.448 132.794 292.389 117.463C287.318 123.339 281.18 129.696 273.868 135.999C262.712 145.721 251.77 152.772 242.43 157.953Z" fill="white" stroke="#080F1F" stroke-width="3" stroke-miterlimit="10"/>
<path d="M162.633 174.833C160.925 184.768 159.27 194.704 157.562 204.639C177.204 200.152 196.9 195.665 216.542 191.125C216.168 180.228 215.795 169.384 215.421 158.487C197.861 163.936 180.247 169.384 162.633 174.833Z" fill="white" stroke="#080F1F" stroke-width="3" stroke-miterlimit="10"/>
<path d="M330.283 375.519C348.751 378.243 367.058 381.662 385.206 385.775C386.22 385.989 386.647 384.44 385.633 384.226C367.432 380.113 349.124 376.641 330.71 373.97C329.696 373.863 329.269 375.412 330.283 375.519Z" fill="#080F1F"/>
<path d="M406.77 349.612C400.845 361.952 393.639 373.65 385.26 384.44C384.619 385.241 385.74 386.363 386.38 385.562C394.867 374.665 402.179 362.86 408.157 350.414C408.584 349.506 407.197 348.704 406.77 349.612Z" fill="#080F1F"/>
<path d="M334.607 326.536C343.574 317.028 353.555 308.535 364.444 301.27C365.298 300.682 364.497 299.294 363.643 299.881C352.648 307.253 342.56 315.799 333.486 325.414C332.739 326.109 333.913 327.284 334.607 326.536Z" fill="#080F1F"/>
<path d="M342.346 331.344C349.071 323.919 356.49 317.189 364.496 311.259C365.297 310.672 364.496 309.283 363.696 309.87C355.529 315.907 348.004 322.691 341.225 330.222C340.478 330.97 341.599 332.092 342.346 331.344Z" fill="#080F1F"/>
<path d="M349.072 340.317C357.772 330.542 367.326 321.515 377.68 313.449C378.481 312.808 377.36 311.686 376.56 312.327C366.258 320.393 356.651 329.367 347.951 339.196C347.257 339.944 348.431 341.065 349.072 340.317Z" fill="#080F1F"/>
<path d="M360.494 351.161C363.537 346.247 367.593 342.08 371.596 337.914C375.973 333.48 380.35 328.993 384.726 324.56C385.474 323.812 384.299 322.69 383.606 323.438C379.015 328.139 374.425 332.786 369.835 337.487C365.885 341.493 362.095 345.606 359.106 350.36C358.573 351.215 359.96 352.016 360.494 351.161Z" fill="#080F1F"/>
<path d="M346.671 397.634C347.631 402.014 349.233 406.127 351.421 409.973C351.901 410.881 353.289 410.08 352.809 409.172C350.674 405.379 349.126 401.426 348.218 397.206C348.005 396.191 346.457 396.619 346.671 397.634Z" fill="#080F1F"/>
<path d="M347.95 398.595C353.288 395.39 359.052 393.414 365.19 392.559C364.87 392.399 364.55 392.185 364.23 392.025C365.297 395.497 366.311 398.916 367.379 402.388C367.699 403.349 369.247 402.975 368.927 401.96C367.859 398.488 366.845 395.07 365.777 391.598C365.617 391.117 365.244 390.957 364.817 391.063C358.519 391.918 352.647 394.001 347.203 397.26C346.242 397.74 347.043 399.129 347.95 398.595Z" fill="#080F1F"/>
<path d="M352.435 410.614C357.506 408.531 362.47 406.181 367.38 403.67C368.288 403.189 367.487 401.801 366.58 402.281C361.829 404.738 356.972 406.982 352.008 409.065C351.048 409.493 351.475 411.042 352.435 410.614Z" fill="#080F1F"/>
<path d="M393.266 386.523C399.138 383.372 405.383 381.182 411.894 379.846C412.908 379.632 412.481 378.083 411.467 378.297C404.795 379.632 398.444 381.929 392.466 385.134C391.505 385.615 392.359 387.004 393.266 386.523Z" fill="#080F1F"/>
<path d="M395.188 391.117C398.764 389.568 402.341 388.019 405.863 386.469C406.824 386.042 405.97 384.653 405.063 385.081C401.487 386.63 397.91 388.179 394.388 389.728C393.427 390.155 394.281 391.491 395.188 391.117Z" fill="#080F1F"/>
<path d="M279.418 255.652C292.121 251.432 304.824 246.304 318.008 243.74C319.022 243.526 318.595 241.977 317.581 242.191C304.451 244.808 291.694 249.883 278.991 254.103C278.03 254.423 278.457 255.973 279.418 255.652Z" fill="#080F1F"/>
<path d="M279.204 262.543C291.373 256.934 303.97 252.394 316.886 248.975C317.901 248.708 317.474 247.159 316.459 247.426C303.383 250.898 290.679 255.492 278.403 261.154C277.496 261.582 278.296 262.971 279.204 262.543Z" fill="#080F1F"/>
<path d="M278.244 269.487C283.582 267.297 288.812 264.947 293.99 262.436C294.897 262.009 294.097 260.62 293.189 261.047C288.119 263.505 282.995 265.802 277.817 267.938C276.91 268.312 277.283 269.861 278.244 269.487Z" fill="#080F1F"/>
<path d="M281.178 275.256C292.441 269.541 303.97 264.306 315.712 259.659C316.673 259.285 316.246 257.736 315.285 258.11C303.382 262.81 291.747 268.098 280.378 273.867C279.417 274.348 280.271 275.737 281.178 275.256Z" fill="#080F1F"/>
<path d="M249.207 161.265C264.365 153.894 278.456 144.599 291.266 133.702C292.067 133.008 290.893 131.886 290.146 132.58C277.442 143.424 263.405 152.558 248.406 159.93C247.446 160.357 248.246 161.746 249.207 161.265Z" fill="#080F1F"/>
<path d="M252.463 168.209C258.815 164.523 264.9 160.464 270.771 156.03C271.572 155.443 270.771 154 269.97 154.641C264.099 159.075 258.014 163.135 251.663 166.82C250.755 167.355 251.556 168.743 252.463 168.209Z" fill="#080F1F"/>
<path d="M256.52 173.07C270.184 165.752 283.314 157.633 295.964 148.659C296.818 148.071 296.018 146.682 295.164 147.27C282.567 156.244 269.383 164.363 255.719 171.681C254.812 172.162 255.613 173.551 256.52 173.07Z" fill="#080F1F"/>
<path d="M259.935 181.35C275.041 174.513 289.452 166.286 303.009 156.671C303.863 156.084 303.063 154.695 302.209 155.283C288.705 164.898 274.293 173.124 259.135 179.961C258.174 180.388 258.975 181.724 259.935 181.35Z" fill="#080F1F"/>
<path opacity="0.13" d="M334.18 314.464C339.891 313.182 345.602 311.9 351.313 310.618C359.426 327.712 367.539 344.805 375.652 361.845C383.765 351.322 391.878 340.852 399.991 330.329C388.035 317.456 376.079 304.529 364.176 291.655C354.142 299.294 344.161 306.879 334.18 314.464Z" fill="#080F1F"/>
<path opacity="0.21" d="M292.227 246.304C289.238 260.032 286.249 273.814 283.26 287.542C298.525 280.224 313.79 272.852 329.109 265.534C326.867 255.813 324.679 246.037 322.437 236.315C312.349 239.681 302.261 242.993 292.227 246.304Z" fill="#080F1F"/>
<path opacity="0.08" d="M361.08 364.943C364.069 372.207 367.058 379.472 370.047 386.737C375.011 387.858 379.921 388.98 384.885 390.048C390.276 393.788 395.614 397.58 401.005 401.319C409.171 398.488 417.391 395.657 425.557 392.88C419.312 378.724 413.121 364.515 406.876 350.36C398.709 352.817 390.49 355.328 382.323 357.785C378.053 364.622 373.783 371.459 369.513 378.297C366.684 373.81 363.909 369.376 361.08 364.943Z" fill="#080F1F"/>
<path opacity="0.15" d="M172.668 175.474C170.106 184.395 167.597 193.369 165.035 202.289C182.062 198.336 199.088 194.383 216.115 190.431C215.528 180.175 214.994 169.919 214.407 159.663C200.476 164.951 186.545 170.239 172.668 175.474Z" fill="#080F1F"/>
<path opacity="0.11" d="M266.607 144.973C268.582 173.818 270.077 188.187 271.144 188.187C271.465 188.187 271.731 186.745 271.998 183.967C285.983 176.916 300.02 169.865 314.004 162.814C306.959 149.62 299.913 136.48 292.868 123.286C284.061 130.497 275.308 137.762 266.607 144.973Z" fill="#080F1F"/>
<path d="M542.398 241.39C549.604 240.428 558.357 261.368 562.093 273.867C568.392 295.02 566.15 313.556 564.015 330.756C561.72 349.078 560.599 358.266 556.222 367.881C542.078 398.969 506.53 410.881 492.599 414.727C488.81 417.505 482.031 421.938 472.69 424.823C452.888 430.912 426.895 428.295 423.318 418.092C422.144 414.674 423.265 409.973 425.987 407.783C430.524 404.15 437.303 409.332 448.725 405.86C449.312 405.7 454.383 404.097 454.223 402.975C454.116 402.281 452.248 402.067 449.899 401.8C439.384 400.572 436.235 400.785 436.022 400.037C435.701 398.755 443.761 394.482 454.169 391.918C462.282 389.942 473.171 388.232 486.621 388.82C499.751 376.748 512.882 364.622 526.012 352.55C525.905 323.064 528.254 298.759 530.656 280.918C535.673 244.702 539.996 241.71 542.398 241.39Z" fill="white" stroke="#080F1F" stroke-width="3" stroke-miterlimit="10"/>
<path d="M422.517 417.665C424.545 419.855 428.282 420.496 431.004 421.297C435.007 422.419 439.117 423.273 443.28 423.808C444.294 423.968 444.721 422.419 443.707 422.258C440.238 421.778 436.768 421.137 433.352 420.229C430.417 419.481 425.72 418.84 423.638 416.489C422.944 415.795 421.823 416.917 422.517 417.665Z" fill="#080F1F"/>
<path d="M423.424 412.804C430.096 416.917 437.568 419.214 445.414 419.588C446.428 419.641 446.428 418.039 445.414 417.985C437.835 417.665 430.683 415.421 424.224 411.415C423.37 410.881 422.516 412.27 423.424 412.804Z" fill="#080F1F"/>
<path d="M426.253 409.065C433.725 412.857 441.838 414.834 450.218 414.834C451.232 414.834 451.232 413.231 450.218 413.231C442.105 413.231 434.259 411.362 427.053 407.676C426.146 407.195 425.345 408.584 426.253 409.065Z" fill="#080F1F"/>
<path opacity="0.15" d="M539.623 243.74C544.427 254.21 550.778 271.197 552.646 292.937C554.034 309.229 556.329 337.006 539.623 364.676C523.183 391.865 498.257 402.655 489.023 406.608C479.736 410.614 464.151 417.131 443.922 414.994C435.755 414.14 429.137 412.11 424.547 410.347C423.532 412.591 422.572 415.796 423.692 418.733C427.322 428.295 449.953 428.135 462.122 426.265C468.901 425.25 480.163 422.526 492.76 414.14C507.918 409.653 545.601 396.298 556.916 366.118C560.226 357.304 562.201 344.645 563.268 337.754C564.763 328.032 566.951 313.449 565.563 294.647C565.563 294.647 563.535 267.457 548.483 245.183C547.789 244.114 546.188 241.871 543.84 241.711C542.025 241.604 540.424 242.939 539.623 243.74Z" fill="#080F1F"/>
<path opacity="0.09" d="M564.494 315.211C562.893 314.944 559.477 332.679 555.847 343.843C549.549 363.18 534.177 388.766 493.398 414.139C502.632 412.056 515.763 407.676 528.946 398.221C535.618 393.414 546.88 385.348 554.673 370.444C560.064 360.135 561.505 350.894 563.32 338.928C564.974 328.405 565.828 315.425 564.494 315.211Z" fill="#080F1F"/>
<path d="M417.125 143.263C416.858 155.602 416.591 167.888 416.325 180.227C412.588 195.825 418.406 211.636 430.522 219.649C443.706 228.356 458.437 223.976 460.572 223.281C460.679 226.273 460.572 230.012 459.772 234.232C459.078 238.131 457.957 241.39 456.943 243.954C463.455 250.043 469.486 251.592 472.795 252.073C488.488 254.37 506.422 241.763 515.816 219.969C512.987 216.978 509.197 212.491 505.674 206.562C503.646 203.197 498.949 194.703 496.334 182.578C493.665 170.185 496.28 168.529 494.305 159.448C492.064 149.086 485.605 137.334 476.852 131.405C462.12 121.629 437.354 125.956 417.125 143.263Z" fill="white" stroke="#080F1F" stroke-width="3" stroke-miterlimit="10"/>
<path d="M414.937 185.088C411.201 187.118 410.934 193.101 410.561 201.007C410.187 208.378 409.813 217.192 415.364 226.006C419.581 232.736 425.292 236.048 427.641 237.383C439.81 244.327 452.193 242.191 456.09 241.336C453.634 240.321 451.126 239.306 448.67 238.291C451.713 238.185 456.837 237.597 462.228 234.766C467.779 231.881 470.928 228.035 473.597 224.67C476.746 220.717 481.71 213.399 484.538 202.342C483.151 199.938 477.813 190.216 480.589 178.251C482.137 171.627 485.499 167.087 487.581 164.683C490.837 164.897 492.598 166.232 493.292 166.873C496.868 170.132 497.295 176.809 493.719 183.112C495.267 181.99 498.95 178.892 500.711 173.444C502.579 167.781 501.085 163.027 500.284 160.303C499.27 157.045 497.775 152.184 493.292 149.78C492.011 149.086 489.983 148.231 487.581 148.445C479.895 149.192 478.294 161.532 469.327 172.909C462.601 181.403 448.777 193.047 435.167 191.498C424.919 190.323 420.008 182.311 414.937 185.088Z" fill="#080F1F" stroke="#080F1F" stroke-width="3" stroke-miterlimit="10"/>
<path d="M433.726 163.775C434.366 172.215 434.473 180.708 433.993 189.148C433.939 189.896 434.9 190.163 435.381 189.736C438.049 187.385 440.718 185.035 443.333 182.685C444.081 181.99 442.96 180.868 442.213 181.563C439.544 183.913 436.875 186.264 434.26 188.614C434.74 188.828 435.167 188.988 435.647 189.201C436.128 180.762 436.021 172.268 435.381 163.829C435.274 162.76 433.673 162.76 433.726 163.775Z" fill="#080F1F"/>
<path d="M422.198 172.002C421.984 171.414 421.29 169.064 422.571 169.064C423.319 169.064 423.319 170.346 423.319 170.826C423.319 171.307 423.319 172.108 422.945 172.536C422.571 173.017 422.038 172.643 421.878 172.108C421.717 171.574 421.824 170.987 421.878 170.453C422.038 169.438 420.49 169.01 420.33 170.025C420.063 171.735 420.276 174.512 422.678 174.352C424.386 174.245 424.867 172.215 424.867 170.773C424.867 169.277 424.226 167.194 422.305 167.408C419.796 167.728 419.956 170.613 420.543 172.376C420.97 173.39 422.518 172.963 422.198 172.002Z" fill="#080F1F"/>
<path d="M423.317 171.521C422.943 171.093 422.943 170.345 423.317 169.865C422.89 169.811 422.463 169.758 422.036 169.704C422.463 170.292 422.57 171.147 422.089 171.734C422.516 171.788 422.943 171.841 423.37 171.894C423.21 171.627 422.089 170.078 422.997 170.025C422.89 170.025 422.997 169.865 422.943 170.132C422.943 170.345 422.997 170.612 422.997 170.88C422.997 171.04 422.89 171.734 422.623 171.574C421.769 170.986 420.968 172.375 421.822 172.963C422.783 173.604 424.011 172.963 424.384 172.001C424.758 171.093 424.758 169.277 423.797 168.689C422.943 168.155 421.769 168.636 421.289 169.437C420.648 170.559 421.289 171.788 421.929 172.749C422.196 173.123 422.837 173.337 423.21 172.909C424.118 171.788 424.278 170.185 423.424 168.957C423.157 168.583 422.516 168.369 422.143 168.796C421.182 169.971 421.182 171.521 422.143 172.696C422.837 173.39 423.957 172.268 423.317 171.521Z" fill="#080F1F"/>
<path d="M453.261 169.811C452.727 169.33 452.087 168.209 453.047 167.728C454.008 167.247 454.168 168.529 454.168 169.17C454.168 169.544 454.275 171.04 453.634 171.04C453.047 171.04 452.727 169.811 452.567 169.437C452.3 168.476 450.752 168.85 451.019 169.865C451.446 171.253 452.514 173.123 454.222 172.535C455.876 172.001 455.93 169.544 455.663 168.155C455.342 166.499 453.688 165.431 452.14 166.392C450.432 167.461 450.806 169.704 452.14 170.933C452.887 171.627 454.008 170.506 453.261 169.811Z" fill="#080F1F"/>
<path d="M454.382 170.239C454.168 169.544 454.115 168.85 454.275 168.155C453.901 168.316 453.474 168.476 453.101 168.636C453.474 168.85 453.474 169.544 453.101 169.758C453.474 169.918 453.901 170.078 454.275 170.239C453.955 169.544 453.688 168.796 453.367 168.102C453.207 167.728 452.834 167.408 452.407 167.568C452.033 167.675 451.659 168.155 451.873 168.529C452.193 169.224 452.46 169.972 452.78 170.666C452.994 171.147 453.474 171.467 453.955 171.147C455.342 170.292 455.342 168.102 453.955 167.247C453.528 166.98 452.887 167.194 452.78 167.728C452.567 168.743 452.62 169.704 452.887 170.666C453.154 171.627 454.648 171.2 454.382 170.239Z" fill="#080F1F"/>
<path d="M419.901 162.279C421.609 159.128 425.826 158.701 427.961 161.692C428.548 162.547 429.936 161.745 429.349 160.891C426.52 156.991 420.862 157.151 418.514 161.478C418.033 162.386 419.421 163.188 419.901 162.279Z" fill="#080F1F"/>
<path d="M447.924 162.119C450.219 158.327 455.61 158.647 457.264 162.814C457.638 163.775 459.186 163.348 458.812 162.386C456.624 156.938 449.578 156.243 446.536 161.318C446.002 162.173 447.39 162.974 447.924 162.119Z" fill="#080F1F"/>
<path d="M397.324 148.017C425.079 149.62 452.78 151.863 480.429 154.748C483.524 155.068 483.471 150.261 480.429 149.94C452.78 147.003 425.079 144.759 397.324 143.21C394.228 143.05 394.228 147.857 397.324 148.017Z" fill="#080F1F"/>
<path d="M415.311 144.492C415.738 140.379 417.499 129.802 425.986 121.149C437.461 109.451 457.477 105.391 473.276 114.739C485.659 122.11 492.864 136.159 492.01 151.062C466.444 148.925 440.877 146.682 415.311 144.492Z" fill="#0F243F"/>
<path opacity="0.11" d="M492.919 182.524C492.866 182.952 492.172 186.531 488.969 188.133C487.315 188.934 485.767 188.934 485.02 188.828C488.275 192.994 501.619 211.049 497.403 233.163C496.282 238.932 494.2 243.793 492.065 247.639C495.588 245.449 500.178 242.084 504.662 237.116C510.213 230.973 513.362 224.83 515.176 220.557C511.814 216.337 508.131 211.156 504.662 204.906C500.125 196.733 497.242 189.041 495.321 182.738C494.467 182.685 493.72 182.578 492.919 182.524Z" fill="#080F1F"/>
<path opacity="0.12" d="M433.671 164.096C431.75 171.467 429.775 178.892 427.854 186.264C430.042 187.118 432.23 187.973 434.365 188.828C434.152 180.548 433.938 172.322 433.671 164.096Z" fill="#080F1F"/>
<path opacity="0.69" d="M450.378 111.801C444.881 116.822 447.923 131.992 457.584 148.071C469.006 149.086 480.429 150.154 491.851 151.169C492.224 146.468 492.278 137.334 486.994 128.574C477.973 113.67 457.157 105.658 450.378 111.801Z" fill="#080F1F"/>
</svg>
