<svg width="169" height="40" viewBox="0 0 169 40" fill="none" xmlns="http://www.w3.org/2000/svg">
<path fill-rule="evenodd" clip-rule="evenodd" d="M20.6103 0L40 8.21053V30.527L20.6116 40L9.84197 35.0476L9.83683 35.0452L0 30.5594V8.1819L20.6103 0ZM3.52941 11.9693L8.82353 14.2111V30.7772L3.52941 28.363V11.9693ZM12.3529 32.3906L18.8235 35.3661V18.0021L12.3529 15.5845V32.3906ZM22.3529 17.9474V24.6149L36.4706 19.0966V11.9693L22.3529 17.9474ZM33.797 9.34266L20.5466 14.9535L11.2545 11.4817L6.32416 9.39396L20.5662 3.74012L33.797 9.34266ZM36.4706 22.8112L22.3529 28.3294V35.2932L36.4706 28.3954V22.8112Z" fill="url(#paint0_linear)"/>
<path d="M64.59 16.272H60.36V14.4H70.98V16.272H66.75V27H64.59V16.272ZM72.9579 14.4H77.9979C79.4259 14.4 80.4699 14.706 81.1299 15.318C81.8019 15.93 82.1379 16.746 82.1379 17.766C82.1379 18.414 81.9699 18.972 81.6339 19.44C81.2979 19.896 80.8359 20.226 80.2479 20.43C80.9919 20.598 81.5799 20.94 82.0119 21.456C82.4559 21.96 82.6779 22.62 82.6779 23.436C82.6779 23.964 82.5939 24.45 82.4259 24.894C82.2579 25.326 81.9939 25.698 81.6339 26.01C81.2859 26.322 80.8359 26.568 80.2839 26.748C79.7319 26.916 79.0659 27 78.2859 27H72.9579V14.4ZM78.0519 25.128C78.9879 25.128 79.6299 24.978 79.9779 24.678C80.3379 24.378 80.5179 23.916 80.5179 23.292C80.5179 22.992 80.4759 22.722 80.3919 22.482C80.3079 22.242 80.1699 22.044 79.9779 21.888C79.7859 21.72 79.5279 21.594 79.2039 21.51C78.8919 21.426 78.5019 21.384 78.0339 21.384H75.1179V25.128H78.0519ZM77.7279 19.656C78.5679 19.656 79.1499 19.5 79.4739 19.188C79.8099 18.876 79.9779 18.456 79.9779 17.928C79.9779 17.388 79.8159 16.98 79.4919 16.704C79.1679 16.416 78.5799 16.272 77.7279 16.272H75.1179V19.656H77.7279ZM89.8765 27.198C89.0965 27.198 88.3705 27.078 87.6985 26.838C87.0385 26.598 86.4625 26.22 85.9705 25.704C85.4785 25.188 85.0885 24.528 84.8005 23.724C84.5245 22.908 84.3865 21.93 84.3865 20.79V20.43C84.3865 19.338 84.5305 18.402 84.8185 17.622C85.1065 16.83 85.4965 16.182 85.9885 15.678C86.4925 15.174 87.0745 14.802 87.7345 14.562C88.4065 14.322 89.1205 14.202 89.8765 14.202C90.5725 14.202 91.2205 14.292 91.8205 14.472C92.4205 14.64 92.9425 14.898 93.3865 15.246C93.8425 15.594 94.2085 16.026 94.4845 16.542C94.7725 17.058 94.9465 17.664 95.0065 18.36H92.7385C92.5825 17.58 92.2465 17.01 91.7305 16.65C91.2265 16.29 90.6085 16.11 89.8765 16.11C89.4805 16.11 89.0905 16.182 88.7065 16.326C88.3225 16.47 87.9745 16.71 87.6625 17.046C87.3625 17.382 87.1165 17.826 86.9245 18.378C86.7445 18.93 86.6545 19.614 86.6545 20.43V20.79C86.6545 21.654 86.7505 22.374 86.9425 22.95C87.1465 23.526 87.4045 23.988 87.7165 24.336C88.0285 24.684 88.3705 24.93 88.7425 25.074C89.1265 25.218 89.5045 25.29 89.8765 25.29C90.7405 25.29 91.4065 25.092 91.8745 24.696C92.3545 24.288 92.6425 23.736 92.7385 23.04H95.0065C94.9345 23.784 94.7545 24.42 94.4665 24.948C94.1785 25.476 93.8065 25.908 93.3505 26.244C92.9065 26.568 92.3845 26.808 91.7845 26.964C91.1965 27.12 90.5605 27.198 89.8765 27.198ZM102.304 27.198C101.524 27.198 100.798 27.078 100.126 26.838C99.4662 26.598 98.8902 26.22 98.3982 25.704C97.9062 25.188 97.5162 24.528 97.2282 23.724C96.9522 22.908 96.8142 21.93 96.8142 20.79V20.43C96.8142 19.338 96.9582 18.402 97.2462 17.622C97.5342 16.83 97.9242 16.182 98.4162 15.678C98.9202 15.174 99.5022 14.802 100.162 14.562C100.834 14.322 101.548 14.202 102.304 14.202C103 14.202 103.648 14.292 104.248 14.472C104.848 14.64 105.37 14.898 105.814 15.246C106.27 15.594 106.636 16.026 106.912 16.542C107.2 17.058 107.374 17.664 107.434 18.36H105.166C105.01 17.58 104.674 17.01 104.158 16.65C103.654 16.29 103.036 16.11 102.304 16.11C101.908 16.11 101.518 16.182 101.134 16.326C100.75 16.47 100.402 16.71 100.09 17.046C99.7902 17.382 99.5442 17.826 99.3522 18.378C99.1722 18.93 99.0822 19.614 99.0822 20.43V20.79C99.0822 21.654 99.1782 22.374 99.3702 22.95C99.5742 23.526 99.8322 23.988 100.144 24.336C100.456 24.684 100.798 24.93 101.17 25.074C101.554 25.218 101.932 25.29 102.304 25.29C103.168 25.29 103.834 25.092 104.302 24.696C104.782 24.288 105.07 23.736 105.166 23.04H107.434C107.362 23.784 107.182 24.42 106.894 24.948C106.606 25.476 106.234 25.908 105.778 26.244C105.334 26.568 104.812 26.808 104.212 26.964C103.624 27.12 102.988 27.198 102.304 27.198ZM113.026 14.4H115.258L117.652 23.76L120.406 14.4H122.206L125.122 23.76L127.498 14.4H129.586L126.256 27H124.096L121.234 17.64L118.516 27H116.356L113.026 14.4ZM133.361 27.198C132.845 27.198 132.383 27.126 131.975 26.982C131.579 26.826 131.243 26.616 130.967 26.352C130.691 26.076 130.481 25.758 130.337 25.398C130.193 25.038 130.121 24.642 130.121 24.21C130.121 23.262 130.403 22.56 130.967 22.104C131.531 21.636 132.359 21.402 133.451 21.402H136.421V20.88C136.421 20.16 136.259 19.668 135.935 19.404C135.623 19.128 135.125 18.99 134.441 18.99C133.829 18.99 133.379 19.086 133.091 19.278C132.803 19.47 132.635 19.734 132.587 20.07H130.661C130.685 19.662 130.787 19.29 130.967 18.954C131.159 18.606 131.417 18.306 131.741 18.054C132.077 17.802 132.479 17.61 132.947 17.478C133.415 17.334 133.943 17.262 134.531 17.262C135.119 17.262 135.647 17.328 136.115 17.46C136.595 17.592 137.003 17.802 137.339 18.09C137.675 18.366 137.933 18.726 138.113 19.17C138.305 19.614 138.401 20.148 138.401 20.772V24.57C138.401 25.074 138.407 25.518 138.419 25.902C138.431 26.274 138.461 26.64 138.509 27H136.709C136.673 26.724 136.643 26.49 136.619 26.298C136.607 26.106 136.601 25.866 136.601 25.578C136.373 26.022 135.977 26.406 135.413 26.73C134.861 27.042 134.177 27.198 133.361 27.198ZM133.901 25.47C134.237 25.47 134.555 25.428 134.855 25.344C135.167 25.248 135.437 25.116 135.665 24.948C135.893 24.768 136.073 24.552 136.205 24.3C136.349 24.036 136.421 23.736 136.421 23.4V22.878H133.811C133.307 22.878 132.899 22.986 132.587 23.202C132.287 23.418 132.137 23.736 132.137 24.156C132.137 24.552 132.275 24.87 132.551 25.11C132.839 25.35 133.289 25.47 133.901 25.47ZM143.896 27.09C143.38 27.09 142.936 27.036 142.564 26.928C142.192 26.82 141.88 26.646 141.628 26.406C141.388 26.154 141.208 25.83 141.088 25.434C140.98 25.026 140.926 24.534 140.926 23.958V14.4H142.906V23.814C142.906 24.402 143.002 24.81 143.194 25.038C143.386 25.254 143.74 25.362 144.256 25.362C144.388 25.362 144.502 25.362 144.598 25.362C144.694 25.35 144.79 25.338 144.886 25.326V27.036C144.79 27.06 144.634 27.072 144.418 27.072C144.202 27.084 144.028 27.09 143.896 27.09ZM149.75 27.09C149.234 27.09 148.79 27.036 148.418 26.928C148.046 26.82 147.734 26.646 147.482 26.406C147.242 26.154 147.062 25.83 146.942 25.434C146.834 25.026 146.78 24.534 146.78 23.958V14.4H148.76V23.814C148.76 24.402 148.856 24.81 149.048 25.038C149.24 25.254 149.594 25.362 150.11 25.362C150.242 25.362 150.356 25.362 150.452 25.362C150.548 25.35 150.644 25.338 150.74 25.326V27.036C150.644 27.06 150.488 27.072 150.272 27.072C150.056 27.084 149.882 27.09 149.75 27.09ZM156.507 27.198C155.871 27.198 155.271 27.102 154.707 26.91C154.143 26.706 153.645 26.406 153.213 26.01C152.793 25.602 152.457 25.092 152.205 24.48C151.953 23.868 151.827 23.148 151.827 22.32V21.96C151.827 21.168 151.947 20.478 152.187 19.89C152.427 19.302 152.751 18.816 153.159 18.432C153.579 18.036 154.059 17.742 154.599 17.55C155.139 17.358 155.715 17.262 156.327 17.262C157.779 17.262 158.889 17.652 159.657 18.432C160.437 19.212 160.827 20.328 160.827 21.78V22.788H153.843C153.855 23.28 153.933 23.7 154.077 24.048C154.233 24.384 154.431 24.66 154.671 24.876C154.923 25.08 155.205 25.23 155.517 25.326C155.841 25.422 156.171 25.47 156.507 25.47C157.191 25.47 157.689 25.362 158.001 25.146C158.325 24.93 158.547 24.648 158.667 24.3H160.647C160.455 25.248 159.981 25.968 159.225 26.46C158.481 26.952 157.575 27.198 156.507 27.198ZM156.417 18.99C156.081 18.99 155.757 19.032 155.445 19.116C155.145 19.2 154.875 19.338 154.635 19.53C154.407 19.71 154.221 19.95 154.077 20.25C153.933 20.538 153.855 20.892 153.843 21.312H158.847C158.835 20.868 158.763 20.496 158.631 20.196C158.511 19.896 158.343 19.656 158.127 19.476C157.911 19.296 157.653 19.17 157.353 19.098C157.065 19.026 156.753 18.99 156.417 18.99ZM166.499 27.09C165.407 27.09 164.621 26.856 164.141 26.388C163.673 25.92 163.439 25.164 163.439 24.12V19.152H162.089V17.46H163.439V15.3H165.419V17.46H167.849V19.152H165.419V23.85C165.419 24.414 165.521 24.81 165.725 25.038C165.941 25.254 166.349 25.362 166.949 25.362C167.309 25.362 167.669 25.344 168.029 25.308V27C167.801 27.024 167.567 27.042 167.327 27.054C167.087 27.078 166.811 27.09 166.499 27.09Z" fill="white"/>
<defs>
<linearGradient id="paint0_linear" x1="20" y1="-2.72846" x2="20" y2="40.3827" gradientUnits="userSpaceOnUse">
<stop stop-color="#39C1AA"/>
<stop offset="0.0001" stop-color="#39C1AA"/>
<stop offset="1" stop-color="#2AE2C7"/>
</linearGradient>
</defs>
</svg>
