<svg width="762" height="268" viewBox="0 0 762 268" fill="none" xmlns="http://www.w3.org/2000/svg">
<circle cx="50" cy="28" r="28" fill="#6ADFBE"/>
<path d="M41.9663 39.4595V21.4891L44.0241 22.5742V39.4719L41.9663 39.4595ZM48.9911 43.3661V25.5383L51.0488 25.5755V43.3661H48.9911ZM36 36.2226V19.883L38.0696 18.8475V35.7451L36 36.2226ZM49.6282 27.504L36.2543 20.7822L38.6609 19.6288L50.5211 25.5569L49.6341 27.504H49.6282ZM62.9652 21.7309L49.198 13.6387L50.02 11.6667L63.9719 19.8458L62.9711 21.7309H62.9652ZM50.0909 44.3334L36 36.2598L36.9993 34.3731L50.9867 42.3925L50.0909 44.3334ZM37.6024 21.4147L36 19.883L50.02 11.704L50.9986 13.6371L37.6024 21.4147ZM61.9408 36.1419V20.5961L63.9985 19.852V36.1481L61.9408 36.1419ZM50.153 36.2675L49.2069 34.3514L62.4848 27.1459L63.4309 29.0635L50.153 36.2737V36.2675ZM49.7095 27.8156L48.8226 25.8685L62.4227 19.0149L63.3096 20.962L49.7095 27.8156ZM50.0924 44.3272L49.1921 42.3848L62.6548 34.4367L64 36.1047L50.0924 44.321V44.3272Z" fill="white"/>
<rect x="684" y="6" width="56" height="56" rx="28" fill="#17CFA1"/>
<path d="M712.007 49.7498L698 41.2808L698 26.8727L705.215 31.2347L705.213 36.9205L712.006 41.0275L718.785 36.9276L718.786 31.2417L726 26.8815L726 41.2895L712.007 49.7498Z" fill="white"/>
<path d="M712.008 32.83L698 24.361L705.212 19.9998L712.005 24.1068L718.785 20.0078L726 24.3697L712.008 32.83Z" fill="white"/>
<rect y="100" width="56" height="56" rx="28" fill="url(#paint0_linear)"/>
<path d="M42.1463 119.887L41.8157 136.253L29.3378 143.457L29.5081 135.028L34.4328 132.186L34.5931 124.249L27.6532 120.429L22.7285 123.271L15.3456 119.204L27.8235 112L42.1463 119.887Z" fill="white"/>
<path d="M27.4932 128.347L27.1625 144.712L19.7796 140.647L19.9399 132.711L13 128.889L13.1703 120.46L27.4932 128.347Z" fill="white"/>
<circle cx="734" cy="137" r="28" fill="white"/>
<circle cx="734" cy="137" r="27.75" stroke="black" stroke-opacity="0.15" stroke-width="0.5"/>
<path d="M725.966 148.459V130.489L728.024 131.574V148.472L725.966 148.459ZM732.991 152.366V134.538L735.049 134.576V152.366H732.991ZM720 145.223V128.883L722.07 127.847V144.745L720 145.223ZM733.628 136.504L720.254 129.782L722.661 128.629L734.521 134.557L733.634 136.504H733.628ZM746.965 130.731L733.198 122.639L734.02 120.667L747.972 128.846L746.971 130.731H746.965ZM734.091 153.333L720 145.26L720.999 143.373L734.987 151.393L734.091 153.333ZM721.602 130.415L720 128.883L734.02 120.704L734.999 122.637L721.602 130.415ZM745.941 145.142V129.596L747.999 128.852V145.148L745.941 145.142ZM734.153 145.268L733.207 143.351L746.485 136.146L747.431 138.064L734.153 145.274V145.268ZM733.71 136.816L732.823 134.869L746.423 128.015L747.31 129.962L733.71 136.816ZM734.092 153.327L733.192 151.385L746.655 143.437L748 145.105L734.092 153.321V153.327Z" fill="url(#paint1_linear)"/>
<circle cx="58" cy="240" r="28" fill="white"/>
<circle cx="58" cy="240" r="27.75" stroke="black" stroke-opacity="0.15" stroke-width="0.5"/>
<path d="M49.9663 251.459V233.489L52.0241 234.574V251.472L49.9663 251.459ZM56.9911 255.366V237.538L59.0488 237.576V255.366H56.9911ZM44 248.223V231.883L46.0696 230.847V247.745L44 248.223ZM57.6282 239.504L44.2543 232.782L46.6609 231.629L58.5211 237.557L57.6341 239.504H57.6282ZM70.9652 233.731L57.198 225.639L58.02 223.667L71.9719 231.846L70.9711 233.731H70.9652ZM58.0909 256.333L44 248.26L44.9993 246.373L58.9867 254.393L58.0909 256.333ZM45.6024 233.415L44 231.883L58.02 223.704L58.9986 225.637L45.6024 233.415ZM69.9408 248.142V232.596L71.9985 231.852V248.148L69.9408 248.142ZM58.153 248.268L57.2069 246.351L70.4848 239.146L71.4309 241.064L58.153 248.274V248.268ZM57.7095 239.816L56.8226 237.869L70.4227 231.015L71.3096 232.962L57.7095 239.816ZM58.0924 256.327L57.1921 254.385L70.6548 246.437L72 248.105L58.0924 256.321V256.327Z" fill="url(#paint2_linear)"/>
<rect x="676" y="212" width="56" height="56" rx="28" fill="white"/>
<path d="M704.012 257L686 246.733V227L695.272 232.282V241.451L704.012 246.436L712.728 241.474V232.305L722 227.023V246.756L704.012 257Z" fill="url(#paint3_linear)"/>
<path d="M697.73 232.922V240.056L703.988 243.623L710.27 240.056V232.922L703.988 229.355L697.73 232.922Z" fill="url(#paint4_linear)"/>
<rect x="676.25" y="212.25" width="55.5" height="55.5" rx="27.75" stroke="black" stroke-opacity="0.1" stroke-width="0.5"/>
<defs>
<linearGradient id="paint0_linear" x1="-17.3091" y1="128" x2="28.0224" y2="128.148" gradientUnits="userSpaceOnUse">
<stop stop-color="#00F5A0"/>
<stop offset="1" stop-color="#00D9F5"/>
</linearGradient>
<linearGradient id="paint1_linear" x1="718.727" y1="137" x2="749.273" y2="137" gradientUnits="userSpaceOnUse">
<stop stop-color="#30AD8E"/>
<stop offset="1" stop-color="#6ADFBE"/>
</linearGradient>
<linearGradient id="paint2_linear" x1="42.7273" y1="240" x2="73.2727" y2="240" gradientUnits="userSpaceOnUse">
<stop stop-color="#30AD8E"/>
<stop offset="1" stop-color="#6ADFBE"/>
</linearGradient>
<linearGradient id="paint3_linear" x1="721.93" y1="227" x2="686.233" y2="247.079" gradientUnits="userSpaceOnUse">
<stop stop-color="#00C6FF"/>
<stop offset="1" stop-color="#0072FF"/>
</linearGradient>
<linearGradient id="paint4_linear" x1="721.93" y1="227" x2="686.233" y2="247.079" gradientUnits="userSpaceOnUse">
<stop stop-color="#00C6FF"/>
<stop offset="1" stop-color="#0072FF"/>
</linearGradient>
</defs>
</svg>
