<svg width="1036" height="777" viewBox="0 0 1036 777" fill="none" xmlns="http://www.w3.org/2000/svg">
<path d="M69.801 326.923C103.471 310.541 138.501 297.073 174.502 286.778C183.567 284.188 192.826 281.727 202.279 280.756C212.057 279.785 221.769 280.821 231.417 282.569C250 285.936 268.324 290.857 286.39 296.361C306.915 302.642 327.117 309.829 347.255 317.016C348.42 317.405 348.938 315.592 347.773 315.138C310.995 302.059 273.958 288.915 235.561 281.404C226.625 279.655 217.496 278.231 208.366 278.49C199.107 278.749 189.977 280.627 181.106 282.958C162.911 287.749 144.911 293.706 127.234 300.246C107.356 307.627 87.931 315.98 68.8945 325.239C67.729 325.757 68.7002 327.441 69.801 326.923Z" fill="#E8E8E8"/>
<path d="M252.526 286.26C278.685 279.202 305.426 274.475 332.233 270.461C345.442 268.518 358.651 266.705 371.925 264.892C385.522 263.079 399.184 261.396 412.976 261.266C462.251 260.878 509.13 278.49 556.268 290.274C582.427 296.814 609.169 301.67 636.234 300.958C637.464 300.958 637.464 299.015 636.234 299.015C586.506 300.31 539.239 282.893 491.712 270.785C468.467 264.892 444.833 260.101 420.811 259.324C394.522 258.547 368.234 263.273 342.269 266.964C311.901 271.302 281.663 276.288 252.008 284.317C250.842 284.771 251.36 286.648 252.526 286.26Z" fill="#E8E8E8"/>
<path d="M555.879 316.563C582.102 318.246 608.52 316.887 634.42 312.289C660.256 307.757 685.832 297.85 712.444 299.793C713.674 299.857 713.674 297.915 712.444 297.85C686.48 295.972 661.551 305.296 636.363 309.958C609.815 314.879 582.75 316.369 555.879 314.62C554.648 314.556 554.648 316.498 555.879 316.563Z" fill="#E8E8E8"/>
<path d="M175.862 290.533C170.228 298.239 172.3 308.793 177.869 315.915C184.538 324.462 195.61 328.088 205.517 331.455C211.345 333.463 217.237 335.47 222.482 338.643C225.072 340.197 227.467 341.945 229.604 344.082C231.093 345.636 232.518 347.254 232.194 349.65C231.935 351.528 229.798 353.276 228.439 354.442C223.388 358.909 218.273 363.248 213.158 367.651C209.532 370.759 205.129 374.255 204.675 379.37C203.898 388.306 214.776 392.191 221.705 393.874C235.043 397.177 248.576 399.637 262.173 401.58C289.109 405.4 316.304 407.083 343.499 408.378C371.277 409.673 399.12 410.58 426.897 412.976C433.631 413.558 440.43 414.206 447.164 415.048C451.826 415.63 460.697 417.443 459.79 423.854C459.013 429.163 451.373 432.465 447.553 435.509C442.761 439.264 438.293 443.538 434.279 448.135C430.459 452.538 427.027 457.265 424.048 462.315C421.847 466.071 419.581 470.797 420.811 475.265C421.976 479.344 425.861 480.898 429.682 481.287C436.221 481.934 443.02 481.481 449.56 481.287C477.014 480.38 504.274 476.431 531.598 474.359C545.325 473.323 559.117 472.805 572.909 473.387C585.664 473.97 599.197 474.941 611.37 478.891C616.291 480.445 621.471 482.841 624.903 486.855C629.112 491.776 628.853 498.122 625.421 503.431C622.119 508.547 616.939 512.432 612.277 516.317C606.773 520.849 601.14 525.252 595.377 529.461C590.003 533.346 584.564 537.101 578.995 540.663C577.959 541.31 578.93 542.994 579.966 542.346C591.168 535.094 601.917 527.259 612.212 518.842C619.723 512.691 631.507 504.532 629.889 493.266C628.594 484.524 619.852 479.733 612.277 477.208C600.557 473.323 587.477 472.287 575.304 471.639C547.591 470.15 519.943 473.387 492.424 476.172C478.762 477.531 465.1 478.826 451.373 479.344C444.639 479.603 437.775 479.862 431.041 479.474C427.739 479.28 424.048 478.567 422.753 475.071C421.588 471.833 423.142 468.013 424.631 465.099C430.394 454.157 439.135 444.509 448.783 436.933C453.963 432.854 467.819 425.278 459.013 417.379C456.1 414.789 451.891 413.753 448.071 413.235C441.207 412.328 434.279 411.681 427.415 411.098C413.688 409.868 399.897 409.091 386.105 408.378C358.133 406.954 330.096 406.177 302.124 403.975C274.735 401.839 246.763 398.795 220.151 391.479C215.553 390.184 209.532 388.047 207.265 383.385C204.093 376.78 211.539 371.536 215.877 367.78C220.928 363.377 226.496 359.233 231.223 354.442C234.331 351.269 235.173 347.708 232.324 344.082C225.395 335.47 213.611 332.103 203.575 328.671C192.438 324.851 179.682 319.736 175.538 307.563C173.66 302.059 173.984 296.167 177.48 291.375C178.257 290.469 176.574 289.497 175.862 290.533Z" fill="#E8E8E8"/>
<path d="M211.991 280.432C206.358 288.138 208.43 298.692 213.999 305.814C220.668 314.361 231.74 317.987 241.647 321.354C247.474 323.362 253.367 325.369 258.611 328.542C261.201 330.096 263.597 331.844 265.734 333.981C267.223 335.535 268.648 337.153 268.324 339.549C268.065 341.427 265.928 343.175 264.568 344.341C259.518 348.808 254.403 353.147 249.287 357.55C245.661 360.658 241.258 364.154 240.805 369.269C240.028 378.205 250.906 382.09 257.834 383.773C271.173 387.076 284.706 389.536 298.303 391.479C325.239 395.299 352.434 396.982 379.629 398.277C407.407 399.572 435.249 400.479 463.027 402.875C469.761 403.457 476.56 404.105 483.294 404.947C487.956 405.529 496.827 407.342 495.92 413.753C495.143 419.062 487.503 422.364 483.682 425.408C478.891 429.163 474.423 433.437 470.409 438.034C466.588 442.437 463.157 447.164 460.178 452.214C457.977 455.97 455.71 460.696 456.941 465.164C458.106 469.243 461.991 470.797 465.811 471.186C472.351 471.833 479.15 471.38 485.69 471.186C513.144 470.279 540.403 466.33 567.728 464.258C581.455 463.222 595.247 462.704 609.038 463.286C621.794 463.869 635.327 464.84 647.5 468.79C652.421 470.344 657.601 472.74 661.033 476.754C665.241 481.675 664.982 488.021 661.551 493.33C658.248 498.446 653.068 502.331 648.406 506.216C642.903 510.748 637.269 515.151 631.507 519.36C626.132 523.245 620.693 527 615.125 530.562C614.089 531.209 615.06 532.893 616.096 532.245C627.298 524.993 638.046 517.158 648.342 508.741C655.853 502.59 667.637 494.431 666.018 483.165C664.723 474.423 655.982 469.632 648.406 467.107C636.687 463.222 623.607 462.186 611.434 461.538C583.721 460.049 556.073 463.286 528.554 466.071C514.892 467.43 501.23 468.725 487.503 469.243C480.769 469.502 473.905 469.761 467.171 469.373C463.869 469.179 460.178 468.466 458.883 464.97C457.718 461.732 459.272 457.912 460.761 454.998C466.524 444.056 475.265 434.408 484.913 426.832C490.093 422.753 503.949 415.177 495.143 407.278C492.229 404.688 488.021 403.652 484.2 403.134C477.337 402.227 470.409 401.58 463.545 400.997C449.818 399.767 436.026 398.99 422.235 398.277C394.263 396.853 366.226 396.076 338.254 393.874C310.865 391.738 282.893 388.694 256.28 381.378C251.683 380.083 245.661 377.946 243.395 373.284C240.222 366.679 247.669 361.435 252.007 357.679C257.057 353.276 262.626 349.132 267.353 344.341C270.461 341.168 271.302 337.607 268.453 333.981C261.525 325.369 249.741 322.002 239.704 318.57C228.567 314.75 215.812 309.635 211.668 297.462C209.79 291.958 210.114 286.066 213.61 281.274C214.452 280.432 212.768 279.461 211.991 280.432Z" fill="#E8E8E8"/>
<path d="M100.428 577.246C144.523 563.519 191.661 555.167 237.439 564.75C250.001 567.404 262.174 571.354 273.829 576.728C274.929 577.246 275.965 575.563 274.8 575.045C232.648 555.555 184.797 555.49 139.99 564.814C126.458 567.598 113.054 571.289 99.8453 575.368C98.7445 575.757 99.2625 577.635 100.428 577.246Z" fill="#E8E8E8"/>
<path d="M441.078 365.061C451.373 366.42 461.086 361.046 471.316 360.722C482.388 360.334 493.266 363.507 503.756 366.615C504.986 366.938 505.439 365.125 504.274 364.737C493.979 361.694 483.36 358.586 472.546 358.78C461.927 358.909 451.762 364.543 441.143 363.183C439.848 362.924 439.848 364.866 441.078 365.061Z" fill="#E8E8E8"/>
<path d="M496.633 360.01C512.626 354.701 529.785 354.506 545.843 359.557C547.008 359.945 547.526 358.068 546.361 357.679C529.979 352.499 512.432 352.693 496.115 358.132C494.949 358.521 495.467 360.399 496.633 360.01Z" fill="#E8E8E8"/>
<path d="M214.388 481.481C217.69 481.934 220.734 481.675 223.842 480.639C224.36 480.445 224.619 479.992 224.489 479.474C223.971 476.56 223.453 473.646 222.935 470.733C222.482 471.121 221.964 471.445 221.511 471.833C223.194 472.999 225.266 472.416 226.496 470.797C228.698 467.948 225.914 464.711 226.626 461.668C228.18 455.063 236.533 463.092 238.54 465.164C241.518 468.207 243.914 471.704 245.792 475.524C246.375 476.625 247.993 475.654 247.475 474.553C244.367 468.272 238.993 460.696 232.194 457.847C230.058 456.941 227.403 456.682 225.719 458.56C224.878 459.466 224.554 460.696 224.554 461.927C224.554 462.639 224.619 463.286 224.748 463.999C224.813 464.517 224.942 464.97 225.072 465.488C225.914 467.625 225.072 469.179 222.417 470.085C221.64 469.567 220.863 470.409 220.993 471.186C221.511 474.1 222.029 477.013 222.547 479.927C222.741 479.539 223 479.15 223.194 478.762C220.41 479.733 217.69 480.057 214.777 479.603C213.676 479.474 213.093 481.352 214.388 481.481Z" fill="#E8E8E8"/>
<path d="M602.629 407.796C603.341 406.112 603.989 404.429 604.766 402.81C605.802 400.544 608.003 399.702 610.334 400.544C613.054 401.515 615.32 402.616 618.234 401.644C620.888 400.738 622.96 398.601 624.838 396.659C626.198 395.299 627.622 393.874 629.371 393.097C631.702 392.061 636.623 392.709 635.587 396.594C635.263 397.824 637.141 398.342 637.464 397.112C638.306 393.874 635.781 391.155 632.608 390.637C628.723 389.989 625.615 393.162 623.09 395.687C620.37 398.407 617.521 401.062 613.377 399.767C611.629 399.184 609.946 398.083 608.068 398.018C603.471 397.824 602.37 403.587 600.945 406.889C600.492 407.99 602.111 408.961 602.629 407.796Z" fill="#E8E8E8"/>
<path d="M832.945 312.289C875.744 320.318 918.738 327.376 961.862 333.333C973.97 335.016 986.014 336.571 998.122 338.125C999.352 338.254 999.352 336.312 998.122 336.182C955.193 330.808 912.458 324.398 869.852 317.016C857.744 314.879 845.571 312.678 833.463 310.412C832.232 310.217 831.714 312.03 832.945 312.289Z" fill="#E8E8E8"/>
<path d="M507.381 600.233C523.504 608.197 540.986 601.592 557.562 599.067C567.34 597.578 576.987 598.549 586.7 599.779C596.607 601.01 606.578 602.24 616.485 603.535C617.715 603.664 617.715 601.722 616.485 601.592C607.161 600.427 597.837 599.261 588.578 598.096C579.383 596.93 570.124 595.7 560.865 596.736C543.576 598.614 525.123 606.902 508.352 598.614C507.252 598.031 506.216 599.715 507.381 600.233Z" fill="#E8E8E8"/>
<path d="M314.88 545.583C321.42 552.123 324.204 561.253 321.225 570.124C320.448 572.52 324.204 573.491 324.981 571.16C328.348 560.994 325.11 550.246 317.599 542.864C315.851 541.051 313.132 543.77 314.88 545.583Z" fill="#E8E8E8"/>
<path d="M321.42 572.066C323.686 577.635 328.866 581.131 334.629 582.167C335.859 582.362 336.377 580.484 335.147 580.29C330.096 579.383 325.305 576.469 323.297 571.548C322.844 570.383 320.966 570.901 321.42 572.066Z" fill="#E8E8E8"/>
<path d="M334.822 580.29C330.872 580.354 325.11 579.772 321.484 581.779C318.57 583.462 317.534 587.218 317.21 590.326C316.368 597.837 322.261 603.341 329.707 601.981C330.937 601.787 330.419 599.909 329.189 600.103C322.52 601.333 318.117 595.83 319.282 589.484C319.865 586.441 320.966 583.527 324.268 582.815C327.635 582.103 331.39 582.232 334.822 582.167C336.052 582.232 336.052 580.29 334.822 580.29Z" fill="#E8E8E8"/>
<path d="M328.671 600.362C324.722 600.686 319.412 602.758 320.254 607.549C320.966 611.758 324.268 616.032 326.599 619.463C328.607 622.377 330.938 624.967 333.463 627.363C342.139 635.521 352.37 641.349 361.888 648.342C370.953 655.076 378.658 663.429 385.133 672.688C385.846 673.724 387.529 672.753 386.817 671.717C379.112 660.774 369.723 650.867 358.392 643.615C348.291 637.14 336.959 629.953 329.578 620.37C327.959 618.298 326.599 616.032 325.24 613.765C324.074 611.823 322.455 609.621 322.132 607.355C321.614 603.859 325.822 602.564 328.671 602.369C329.902 602.175 329.966 600.233 328.671 600.362Z" fill="#E8E8E8"/>
<path d="M316.046 543.835C336.183 551.605 355.932 560.152 371.083 576.016C385.069 590.714 394.069 609.362 398.472 629.111C399.832 635.327 400.739 641.608 401.321 647.889C401.645 651.061 401.839 654.299 401.969 657.472C402.034 658.896 402.034 660.256 402.098 661.68C402.098 662.004 402.034 668.155 401.58 667.832C400.544 667.119 399.573 668.803 400.609 669.515C404.17 671.911 404.106 664.983 404.106 663.493C404.041 657.083 403.717 650.673 402.94 644.327C401.516 631.895 398.731 619.593 394.005 608.003C385.976 588.383 372.313 571.225 354.442 559.699C342.723 552.123 329.578 547.008 316.628 542.022C315.398 541.504 314.88 543.382 316.046 543.835Z" fill="#E8E8E8"/>
<path d="M322.067 550.699C350.362 575.369 373.478 606.254 387.399 641.219C391.155 650.673 394.198 660.385 396.529 670.292C396.788 671.522 398.666 671.004 398.407 669.774C389.86 633.838 371.73 600.621 347.319 572.973C339.873 564.555 331.909 556.656 323.426 549.339C322.52 548.497 321.16 549.922 322.067 550.699Z" fill="#E8E8E8"/>
<path d="M323.103 571.095C330.42 572.52 337.477 574.656 344.341 577.505C345.506 577.959 346.024 576.081 344.859 575.628C337.995 572.779 330.873 570.642 323.621 569.217C322.391 568.958 321.873 570.836 323.103 571.095Z" fill="#E8E8E8"/>
<path d="M351.205 577.117C353.018 572.52 355.608 568.376 358.845 564.62C359.687 563.714 358.327 562.289 357.486 563.26C353.989 567.21 351.27 571.678 349.327 576.599C348.939 577.764 350.816 578.282 351.205 577.117Z" fill="#E8E8E8"/>
<path d="M390.184 540.986C400.349 564.296 411.486 591.621 397.889 615.967C397.306 617.068 398.925 618.039 399.572 616.938C413.558 591.88 402.357 563.973 391.867 540.015C391.349 538.914 389.666 539.886 390.184 540.986Z" fill="#E8E8E8"/>
<path d="M391.932 539.303C397.825 541.504 408.185 545.26 406.695 553.418C406.501 554.649 408.314 555.167 408.573 553.936C410.321 544.483 399.508 540.145 392.515 537.425C391.285 537.037 390.767 538.914 391.932 539.303Z" fill="#E8E8E8"/>
<path d="M408.184 554.325C411.487 551.541 415.76 554.519 417.573 557.562C419.321 560.476 419.451 563.908 418.091 567.016C417.573 568.181 419.257 569.153 419.775 567.987C421.717 563.584 421.199 558.598 418.026 554.843C415.242 551.541 410.451 549.987 406.825 552.965C405.853 553.742 407.278 555.102 408.184 554.325Z" fill="#E8E8E8"/>
<path d="M418.026 569.606C423.4 569.023 426.314 574.268 428.58 578.347C431.041 582.815 433.242 587.412 435.055 592.204C438.552 601.463 440.624 611.24 441.142 621.082C442.048 638.565 437.969 656.759 424.048 668.479C423.077 669.321 424.501 670.681 425.408 669.839C440.559 657.018 444.444 636.622 442.825 617.715C441.854 607.031 439.135 596.542 434.861 586.7C432.724 581.779 430.329 576.534 427.026 572.261C424.76 569.412 421.782 567.275 418.026 567.728C416.796 567.793 416.796 569.735 418.026 569.606Z" fill="#E8E8E8"/>
<path d="M393.681 542.152C406.954 560.67 418.35 581.261 422.494 603.923C424.502 614.931 424.696 626.391 422.559 637.399C421.523 642.644 420.034 647.888 418.026 652.809C416.99 655.399 415.76 657.989 414.401 660.45C413.106 662.781 411.357 667.313 408.573 668.026C407.343 668.349 407.861 670.227 409.091 669.903C412.393 669.062 414.012 665.112 415.566 662.392C417.768 658.507 419.581 654.493 421.07 650.284C424.113 641.802 425.732 632.802 425.991 623.801C426.574 605.024 421.199 586.7 412.976 569.93C407.99 559.764 401.969 550.246 395.364 541.051C394.587 540.145 392.904 541.116 393.681 542.152Z" fill="#E8E8E8"/>
<path d="M439.783 600.815C440.106 599.715 440.43 598.549 440.754 597.448C440.948 596.736 441.272 594.664 441.725 594.081C443.214 592.139 448.006 593.499 450.078 593.758C450.984 593.822 451.308 592.657 450.79 592.074C448.653 589.873 446.193 586.829 447.358 583.592C448.459 580.484 453.445 579.059 455.387 582.297C455.905 581.908 456.423 581.52 456.941 581.131C455.517 579.383 453.963 577.117 454.157 574.721C454.416 571.678 457.459 569.735 460.373 570.124C461.215 570.253 461.862 569.476 461.474 568.699C458.431 562.483 463.805 555.62 465.812 549.857C467.884 543.965 468.661 537.749 468.402 531.533C468.337 530.303 466.395 530.303 466.46 531.533C466.848 539.562 465.165 547.202 461.862 554.454C459.596 559.311 457.265 564.426 459.79 569.671C460.179 569.217 460.503 568.699 460.891 568.246C457.589 567.793 454.028 569.217 452.668 572.52C451.179 576.146 453.251 579.772 455.517 582.491C456.229 583.333 457.589 582.232 457.071 581.326C454.999 577.829 449.754 577.764 447.035 580.549C443.02 584.693 446.258 590.132 449.495 593.434C449.754 592.851 449.948 592.333 450.207 591.75C447.876 591.491 442.955 589.937 440.948 591.75C439.006 593.499 438.617 597.966 437.97 600.297C437.581 601.528 439.459 602.046 439.783 600.815Z" fill="#E8E8E8"/>
<path d="M466.783 533.54C471.38 543.188 473.517 553.613 475.589 564.037C477.726 575.174 479.927 586.376 479.992 597.772C479.992 615.773 473.517 633.061 462.639 647.241C456.099 655.788 448.135 663.105 439.264 669.062C438.228 669.774 439.199 671.458 440.235 670.745C455.646 660.385 468.402 646.011 475.654 628.787C479.085 620.694 481.222 612.017 481.805 603.211C482.582 591.75 480.704 580.29 478.567 569.023C476.236 556.591 473.97 544.094 468.531 532.569C467.884 531.403 466.2 532.375 466.783 533.54Z" fill="#E8E8E8"/>
<path d="M468.661 541.31C470.28 564.232 467.69 587.218 461.215 609.233C457.912 620.435 453.574 631.377 448.329 641.867C443.408 651.644 437.969 663.882 428.386 669.904C427.35 670.551 428.322 672.235 429.358 671.587C436.48 667.055 440.754 659.738 444.833 652.551C449.43 644.457 453.445 636.104 456.876 627.492C463.869 610.139 468.337 591.815 470.15 573.167C471.186 562.613 471.316 551.929 470.539 541.31C470.474 540.08 468.531 540.08 468.661 541.31Z" fill="#E8E8E8"/>
<path d="M760.813 650.349C759.454 631.701 763.598 613.053 772.922 596.801C772.468 596.93 772.015 597.06 771.562 597.125C772.792 597.707 773.958 598.355 775.188 598.938C775.965 599.326 776.742 598.679 776.612 597.837C776.289 596.218 776.418 594.858 776.936 593.24C776.548 593.434 776.159 593.693 775.771 593.887C776.936 594.211 778.037 594.535 779.202 594.858C779.915 595.053 780.562 594.34 780.368 593.693C779.461 589.873 783.152 587.088 785.742 584.952C788.203 582.88 790.598 580.743 792.8 578.347C797.009 573.815 800.57 568.764 803.484 563.26C802.901 563.26 802.383 563.26 801.8 563.26C808.405 578.412 807.239 596.412 799.081 610.787C794.742 618.427 788.397 623.802 781.987 629.564C775.382 635.457 770.267 642.255 767.224 650.608C766.77 651.774 768.648 652.292 769.101 651.126C772.792 641.025 779.72 634.162 787.62 627.233C794.03 621.6 799.404 615.384 802.966 607.549C809.441 593.304 809.829 576.728 803.548 562.289C803.225 561.642 802.189 561.706 801.865 562.289C798.174 569.217 793.447 575.433 787.685 580.743C783.8 584.304 777.13 587.995 778.555 594.211C778.943 593.822 779.332 593.434 779.72 593.045C778.555 592.722 777.454 592.398 776.289 592.074C775.771 591.945 775.253 592.268 775.123 592.722C774.54 594.664 774.411 596.348 774.799 598.29C775.253 597.902 775.771 597.578 776.224 597.189C774.994 596.607 773.828 595.959 772.598 595.376C772.145 595.117 771.562 595.247 771.238 595.7C761.785 612.211 757.446 631.248 758.871 650.22C758.936 651.579 760.878 651.579 760.813 650.349Z" fill="#E8E8E8"/>
<path d="M808.663 587.153C812.743 583.074 816.369 578.671 819.606 573.879C819.088 573.944 818.57 574.009 818.052 574.074C824.657 581.714 827.441 592.204 825.693 602.175C825.304 604.312 824.721 606.449 823.944 608.521C823.426 609.88 822.844 611.37 822.002 612.535C821.16 613.83 820.513 614.024 819.088 614.542C818.117 614.866 817.21 614.801 816.692 615.902C816.498 616.291 816.692 616.485 816.692 616.873C817.21 617.974 817.534 619.075 817.664 620.305C817.728 621.017 817.728 621.665 817.599 622.377C817.923 622.053 818.246 621.73 818.57 621.406C814.232 621.6 814.62 625.874 812.937 628.787C810.606 632.802 804.843 633.903 800.893 635.651C792.023 639.601 784.059 645.428 777.519 652.615C776.677 653.522 778.037 654.946 778.879 653.975C785.094 647.176 792.476 641.608 800.893 637.723C804.325 636.169 808.145 635.198 811.318 633.061C812.419 632.349 813.39 631.507 814.167 630.406C815.462 628.593 815.915 623.348 818.57 623.219C819.153 623.219 819.477 622.766 819.541 622.248C819.606 621.147 819.606 620.046 819.412 618.945C819.088 617.327 818.311 616.938 819.93 616.291C821.678 615.578 822.326 615.578 823.362 613.83C825.887 609.686 827.376 604.83 827.894 600.038C828.93 590.132 825.887 580.16 819.412 572.649C818.959 572.131 818.182 572.39 817.858 572.843C814.685 577.505 811.189 581.779 807.239 585.729C806.462 586.7 807.822 588.06 808.663 587.153Z" fill="#E8E8E8"/>
<path d="M797.85 580.937C797.203 586.829 792.8 592.592 789.692 597.513C786.519 602.434 783.152 607.161 779.85 611.952C773.439 621.276 767.288 630.73 763.209 641.349C762.755 642.514 764.633 643.032 765.086 641.867C769.489 630.406 776.418 620.305 783.346 610.269C786.648 605.477 789.951 600.686 793.059 595.765C795.843 591.232 799.145 586.376 799.728 580.937C799.987 579.707 798.044 579.707 797.85 580.937Z" fill="#E8E8E8"/>
<path d="M782.569 586.246C782.116 590.844 782.763 595.376 784.576 599.65C785.03 600.815 786.907 600.297 786.454 599.132C784.771 594.988 784.123 590.714 784.576 586.246C784.641 585.016 782.699 585.016 782.569 586.246Z" fill="#E8E8E8"/>
<path d="M779.915 615.514C783.994 616.161 787.879 615.643 791.699 613.96C792.865 613.442 791.829 611.758 790.728 612.276C787.49 613.701 783.994 614.219 780.497 613.636C779.267 613.506 778.684 615.319 779.915 615.514Z" fill="#E8E8E8"/>
<path d="M564.362 670.422C610.917 670.422 657.537 670.422 704.092 670.422C750.647 670.422 797.267 670.422 843.822 670.422C870.111 670.422 896.464 670.422 922.753 670.422C926.508 670.422 926.508 664.594 922.753 664.594C876.197 664.594 829.578 664.594 783.022 664.594C736.467 664.594 689.847 664.594 643.292 664.594C617.003 664.594 590.65 664.594 564.362 664.594C560.606 664.594 560.606 670.422 564.362 670.422Z" fill="#080F1F"/>
<path d="M806.397 659.544C836.829 659.544 867.327 659.544 897.759 659.544C901.515 659.544 901.515 653.716 897.759 653.716C867.327 653.716 836.829 653.716 806.397 653.716C802.641 653.716 802.641 659.544 806.397 659.544Z" fill="#080F1F"/>
<path d="M525.317 669.644C533.41 669.644 541.439 669.644 549.533 669.644C553.289 669.644 553.289 663.817 549.533 663.817C541.439 663.817 533.41 663.817 525.317 663.817C521.561 663.817 521.561 669.644 525.317 669.644Z" fill="#080F1F"/>
<path d="M494.108 670.422C497.475 670.422 500.906 670.422 504.273 670.422C508.029 670.422 508.029 664.594 504.273 664.594C500.906 664.594 497.475 664.594 494.108 664.594C490.352 664.594 490.352 670.422 494.108 670.422Z" fill="#080F1F"/>
<path d="M911.81 657.925C919.904 657.925 927.933 657.925 936.026 657.925C939.782 657.925 939.782 652.097 936.026 652.097C927.933 652.097 919.904 652.097 911.81 652.097C908.054 652.097 908.054 657.925 911.81 657.925Z" fill="#080F1F"/>
<path d="M950.077 657.148C953.703 657.148 957.394 657.148 961.02 657.148C964.776 657.148 964.776 651.32 961.02 651.32C957.394 651.32 953.703 651.32 950.077 651.32C946.322 651.32 946.322 657.148 950.077 657.148Z" fill="#080F1F"/>
<path d="M232.518 676.184C278.749 676.184 324.981 676.184 371.212 676.184C374.968 676.184 374.968 670.357 371.212 670.357C324.981 670.357 278.749 670.357 232.518 670.357C228.762 670.357 228.762 676.184 232.518 676.184Z" fill="#080F1F"/>
<path d="M189.459 659.479C204.999 659.479 220.539 659.479 236.079 659.479C239.835 659.479 239.835 653.651 236.079 653.651C220.539 653.651 204.999 653.651 189.459 653.651C185.704 653.651 185.704 659.479 189.459 659.479Z" fill="#080F1F"/>
<path d="M255.245 663.04C260.425 663.04 265.605 663.04 270.785 663.04C274.541 663.04 274.541 657.212 270.785 657.212C265.605 657.212 260.425 657.212 255.245 657.212C251.49 657.212 251.49 663.04 255.245 663.04Z" fill="#080F1F"/>
<path d="M372.961 231.805C375.81 226.366 379.112 221.251 382.997 216.459C385.328 213.546 381.249 209.402 378.853 212.315C374.644 217.495 371.018 222.934 367.91 228.827C366.162 232.129 371.213 235.107 372.961 231.805Z" fill="#080F1F"/>
<path d="M312.391 325.632V268.97L319.078 272.392V325.671L312.391 325.632ZM335.221 337.95V281.738L341.909 281.855V337.95H335.221ZM293 315.426V263.906L299.726 260.641V313.92L293 315.426ZM337.292 287.936L293.826 266.741L301.648 263.105L340.194 281.797L337.311 287.936H337.292ZM380.637 269.733L335.894 244.218L338.565 238L383.909 263.789L380.656 269.733H380.637ZM338.795 341L293 315.543L296.248 309.595L341.707 334.88L338.795 341ZM298.208 268.736L293 263.906L338.565 238.117L341.745 244.213L298.208 268.736ZM377.307 315.172V266.155L383.995 263.809V315.191L377.307 315.172ZM338.997 315.568L335.922 309.526L379.076 286.807L382.15 292.853L338.997 315.587V315.568ZM337.556 288.918L334.673 282.779L378.874 261.169L381.756 267.308L337.556 288.918ZM338.8 340.98L335.874 334.856L379.628 309.795L384 315.054L338.8 340.961V340.98Z" fill="url(#paint0_linear)"/>
<path d="M400.544 191.854C402.292 187.451 405.012 183.696 408.379 180.458C411.099 177.868 407.019 173.789 404.235 176.314C400.026 180.199 396.983 184.926 394.846 190.236C393.551 193.797 399.184 195.286 400.544 191.854Z" fill="#080F1F"/>
<path d="M425.408 155.076C429.293 150.479 433.178 145.882 437.063 141.285C439.459 138.436 435.379 134.292 432.919 137.141C429.034 141.738 425.149 146.335 421.264 150.932C418.933 153.846 423.012 157.99 425.408 155.076Z" fill="#080F1F"/>
<path d="M459.272 112.665C464.647 108.132 469.956 103.6 475.331 99.1322C478.18 96.7365 474.036 92.5925 471.187 94.9882C465.812 99.5207 460.503 104.053 455.129 108.521C452.279 110.982 456.423 115.061 459.272 112.665Z" fill="#080F1F"/>
<path d="M507.641 80.3548C511.591 78.9303 515.54 78.3476 519.684 78.6713C523.44 78.9303 523.44 73.1028 519.684 72.8438C515.022 72.5201 510.49 73.1676 506.087 74.7216C502.59 75.9518 504.08 81.5851 507.641 80.3548Z" fill="#080F1F"/>
<path d="M551.023 80.3548C553.872 81.7145 556.138 83.9808 557.174 87.024C558.405 90.5853 564.038 89.0313 562.808 85.47C561.318 81.067 558.21 77.3115 554.002 75.3043C552.577 74.6568 550.829 74.9158 549.987 76.3403C549.21 77.6353 549.599 79.7073 551.023 80.3548Z" fill="#080F1F"/>
<path d="M685.767 612.859C684.537 617.326 687.127 619.075 685.443 624.19C684.731 626.262 683.242 629.305 675.148 635.521C667.961 641.025 661.421 644.521 659.478 645.493C649.054 650.932 644.91 651.32 642.514 656.112C642.19 656.759 639.794 661.615 641.866 664.788C644.715 669.126 653.392 665.824 671.522 664.464C687.386 663.299 688.681 665.177 700.789 663.493C711.732 661.939 720.343 659.025 725.782 656.824C726.236 644.586 724.358 635.586 722.48 629.499C719.696 620.564 717.171 618.621 714.84 607.873C713.933 603.664 713.868 601.916 712.185 600.556C706.163 595.765 688.551 602.758 685.767 612.859Z" fill="#0F243F"/>
<path d="M780.108 376.521C778.359 388.629 769.877 394.586 753.042 417.119C736.919 438.681 726.041 457.847 719.307 470.732C714.063 482.646 708.624 498.575 706.034 517.87C700.854 556.979 710.501 588.707 717.106 605.477C705.58 607.42 694.055 609.427 682.529 611.369C673.205 589.095 663.557 557.692 663.428 519.748C663.298 479.603 673.658 449.235 692.76 397.435C701.436 373.866 714.127 342.398 732.193 306.138C775.705 339.096 782.244 361.823 780.108 376.521Z" fill="#080F1F"/>
<path d="M848.614 602.499C847.383 606.967 849.973 608.715 848.29 613.83C847.578 615.902 846.088 618.945 837.995 625.161C830.807 630.665 824.268 634.162 822.325 635.133C811.9 640.572 807.756 640.96 805.361 645.752C805.037 646.399 802.641 651.256 804.713 654.428C807.562 658.767 816.239 655.464 834.369 654.105C850.232 652.939 851.527 654.817 863.636 653.133C874.578 651.579 883.19 648.666 888.629 646.464C889.082 634.226 887.205 625.226 885.327 619.14C882.543 610.204 880.017 608.262 877.686 597.513C876.78 593.304 876.715 591.556 875.032 590.196C869.01 585.405 851.398 592.398 848.614 602.499Z" fill="#0F243F"/>
<path d="M801.087 321.549C804.713 326.146 809.699 333.009 814.814 341.815C830.548 368.751 834.498 391.802 839.419 417.055C845.7 449.3 853.729 481.092 860.398 513.273C866.938 544.871 872.571 570.706 876.326 587.8C875.744 588.901 869.787 599.002 858.261 600.103C852.11 600.686 847.318 598.355 845.246 597.189C828.023 566.433 817.274 540.015 810.54 521.237C792.799 471.898 788.784 435.703 758.481 388.112C753.301 379.953 748.639 373.478 745.467 369.334C733.682 353.988 735.754 332.038 749.805 319.412C764.244 306.267 787.23 307.045 801.087 321.549Z" fill="#080F1F"/>
<path d="M754.208 390.313C759.517 393.421 764.05 397.436 767.805 402.357C768.518 403.328 770.266 402.357 769.489 401.385C765.604 396.205 760.812 391.932 755.244 388.629C754.143 388.047 753.172 389.665 754.208 390.313Z" fill="#0F243F"/>
<path d="M812.677 389.212C813.259 390.896 813.907 392.514 814.49 394.198C814.943 395.363 816.821 394.845 816.367 393.68C815.785 391.996 815.137 390.378 814.554 388.694C814.166 387.529 812.288 388.047 812.677 389.212Z" fill="#0F243F"/>
<path d="M819.088 406.76C819.865 409.026 820.642 411.292 821.354 413.623C821.743 414.788 823.62 414.271 823.232 413.105C822.455 410.839 821.678 408.573 820.966 406.242C820.577 405.011 818.699 405.529 819.088 406.76Z" fill="#0F243F"/>
<path d="M826.663 428.386C827.31 430.393 827.958 432.4 828.605 434.472C828.994 435.638 830.872 435.185 830.483 433.954C829.836 431.947 829.188 429.94 828.541 427.868C828.152 426.702 826.274 427.156 826.663 428.386Z" fill="#0F243F"/>
<path d="M833.591 448.717C834.821 451.307 835.663 454.027 836.116 456.876C836.311 458.106 838.188 457.588 837.994 456.358C837.476 453.379 836.569 450.53 835.274 447.746C834.756 446.645 833.073 447.617 833.591 448.717Z" fill="#0F243F"/>
<path d="M841.361 473.193C842.332 476.236 843.368 479.279 844.34 482.323C844.728 483.488 846.606 482.97 846.217 481.805C845.246 478.761 844.21 475.718 843.239 472.675C842.85 471.509 840.973 472.027 841.361 473.193Z" fill="#0F243F"/>
<path d="M849.067 504.338C849.973 507.64 850.88 510.877 851.786 514.18C852.11 515.41 853.988 514.892 853.664 513.662C852.757 510.359 851.851 507.122 850.944 503.82C850.621 502.589 848.743 503.107 849.067 504.338Z" fill="#0F243F"/>
<path d="M855.218 533.928C856.06 537.49 856.966 541.051 857.808 544.547C858.132 545.778 860.009 545.26 859.686 544.029C858.844 540.468 857.937 536.907 857.096 533.41C856.772 532.18 854.894 532.698 855.218 533.928Z" fill="#0F243F"/>
<path d="M862.016 565.785C862.664 567.857 863.376 569.865 864.024 571.937C864.412 573.102 866.29 572.584 865.901 571.419C865.254 569.347 864.542 567.339 863.894 565.267C863.506 564.102 861.628 564.62 862.016 565.785Z" fill="#0F243F"/>
<path d="M866.808 586.7C866.937 587.606 867.067 588.448 867.196 589.354C867.261 589.872 867.909 590.131 868.362 590.002C868.945 589.872 869.139 589.354 869.009 588.836C868.88 587.93 868.75 587.088 868.621 586.182C868.556 585.664 867.909 585.405 867.455 585.534C866.937 585.664 866.743 586.182 866.808 586.7Z" fill="#0F243F"/>
<path d="M597.319 123.478C596.865 123.737 593.822 125.291 593.498 128.205C593.174 130.73 595.052 132.673 596.153 133.838C601.981 139.86 613.441 138.371 615.966 137.982C617.909 138.565 620.887 139.601 624.254 141.22C634.355 146.076 640.507 152.616 642.903 155.141C650.219 162.717 660.903 170.033 682.27 184.732C688.745 189.199 698.393 195.545 710.696 202.473C712.962 202.473 716.717 202.214 720.732 200.401C722.286 199.689 732.581 195.027 733.423 184.991C734.135 177.091 728.437 171.393 727.531 170.487C717.43 166.472 709.077 162.846 702.99 160.127C664.076 142.838 640.571 128.27 635.262 124.903C631.377 122.442 628.204 120.37 626.068 119.01C624.578 116.42 621.017 111.046 614.218 107.485C612.923 106.837 603.211 101.916 592.333 105.413C590.325 106.06 588.707 106.837 587.606 107.485C581.908 106.773 574.98 106.255 574.591 107.809C574.332 108.845 577.052 110.334 580.807 112.535C584.757 114.931 590.455 118.492 597.319 123.478Z" fill="white"/>
<path d="M616.291 137.205C611.564 137.723 606.772 137.464 602.175 136.104C600.038 135.457 597.707 134.68 596.153 133.061C592.851 129.694 595.506 126.327 598.484 124.255C599.52 123.543 598.549 121.859 597.513 122.572C595.376 124.061 593.11 125.68 592.657 128.399C592.203 130.989 593.563 133.45 595.57 135.068C600.88 139.471 609.816 139.86 616.291 139.148C617.521 139.018 617.521 137.076 616.291 137.205Z" fill="#080F1F"/>
<path d="M596.672 122.248C593.046 119.723 589.42 117.262 585.729 114.931C584.045 113.83 582.362 112.794 580.678 111.758C579.642 111.111 578.606 110.528 577.57 109.881C576.923 109.492 574.657 108.65 574.527 108.068C574.398 108.456 574.203 108.78 574.074 109.168C577.117 106.902 583.592 108.456 586.83 109.233C590.52 110.14 594.729 111.24 597.967 113.312C599.003 113.96 599.974 112.276 598.938 111.629C594.988 109.104 589.614 107.744 585.081 106.837C581.714 106.19 576.081 105.283 573.103 107.485C572.779 107.744 572.52 108.132 572.649 108.586C573.038 109.881 574.527 110.334 575.563 110.981C577.829 112.276 580.031 113.636 582.232 114.996C586.83 117.845 591.297 120.823 595.7 123.931C596.736 124.644 597.708 122.96 596.672 122.248Z" fill="#080F1F"/>
<path d="M587.93 108.845C594.405 104.701 602.628 103.729 609.815 106.837C616.485 109.686 621.276 115.384 625.679 120.953C626.456 121.924 627.816 120.564 627.039 119.593C622.118 113.442 616.679 107.161 609.038 104.442C601.722 101.852 593.498 103.017 587.023 107.226C585.923 107.809 586.894 109.492 587.93 108.845Z" fill="#080F1F"/>
<path d="M625.938 120.629C658.184 140.184 691.789 157.342 726.56 171.976C727.725 172.429 728.243 170.551 727.078 170.098C692.501 155.529 659.026 138.435 626.91 118.946C625.809 118.363 624.838 119.982 625.938 120.629Z" fill="#080F1F"/>
<path d="M615.19 138.435C624.514 140.766 631.701 147.177 638.888 153.198C646.27 159.35 653.716 165.436 661.357 171.328C676.897 183.307 693.214 194.379 710.631 203.509C711.732 204.092 712.703 202.408 711.603 201.826C693.732 192.437 677.026 181.041 661.033 168.674C653.069 162.522 645.363 156.112 637.658 149.702C631.054 144.198 624.19 138.694 615.708 136.622C614.478 136.234 613.96 138.112 615.19 138.435Z" fill="#080F1F"/>
<path d="M725.977 172.17C733.877 175.472 733.618 185.314 729.344 191.466C725.654 196.775 717.107 203.444 710.308 200.984C709.142 200.531 708.624 202.408 709.79 202.862C718.013 205.84 728.308 197.552 732.064 190.753C736.078 183.501 734.654 173.789 726.431 170.357C725.33 169.774 724.812 171.652 725.977 172.17Z" fill="#080F1F"/>
<path d="M734.329 170.033C732.775 170.357 730.509 171.069 728.113 172.494C723.839 175.149 721.638 178.775 720.019 181.818C712.702 195.545 710.695 206.034 710.695 206.034C707.976 220.279 709.594 231.805 710.695 239.251C712.638 252.395 714.71 251.489 716.911 265.928C717.882 272.274 719.113 282.893 718.465 296.037C718.012 305.102 716.846 312.807 715.681 318.699C717.17 320.383 719.436 322.779 722.544 325.239C738.732 337.995 758.286 337.024 764.502 336.7C782.179 335.793 795.129 328.477 801.475 324.268C802.122 323.361 802.705 322.39 803.352 321.484C802.252 318.699 800.762 314.296 799.597 308.728C796.942 295.713 798.431 286.648 799.597 271.173C800.115 264.05 800.762 253.561 800.827 240.417C799.273 240.417 797.719 240.417 796.165 240.417C795 240.481 784.445 240.676 777.841 232.323C772.143 225.136 773.503 216.718 773.826 214.905C775.445 204.739 783.992 196.257 795.582 192.825C790.726 190.235 785.481 187.127 780.042 183.501C773.956 179.422 768.582 175.343 763.92 171.393C758.675 172.688 754.401 173.918 751.488 174.825C745.336 176.703 743.005 177.674 740.286 176.703C736.919 175.602 735.171 172.3 734.329 170.033Z" fill="white"/>
<path d="M735.301 169.904C728.761 169.58 723.84 174.242 720.408 179.357C715.94 185.962 712.897 193.732 710.825 201.372C706.293 218.337 708.3 234.913 712.185 251.748C714.257 260.554 716.458 269.36 717.365 278.425C718.271 288.137 717.753 297.98 716.394 307.627C715.94 311.059 714.451 315.138 714.775 318.57C715.099 321.613 718.271 323.556 720.538 325.239C726.818 329.901 734.006 333.204 741.581 335.211C759.776 340.002 778.877 336.7 795.842 329.254C797.007 328.736 795.971 327.052 794.871 327.57C780.043 334.045 763.402 337.412 747.279 334.498C740.092 333.203 733.099 330.743 726.818 327.052C724.034 325.434 720.667 323.491 718.466 321.095C715.422 317.728 717.883 310.93 718.466 306.721C720.538 291.051 719.696 275.964 716.199 260.554C712.703 244.884 708.559 229.539 710.437 213.351C711.473 204.48 713.998 195.804 717.883 187.775C721.185 180.911 726.365 171.393 735.236 171.846C736.596 171.911 736.596 169.969 735.301 169.904Z" fill="#080F1F"/>
<path d="M779.59 184.797C784.64 187.451 789.626 190.3 794.612 193.214C795.712 193.862 796.684 192.178 795.583 191.531C790.662 188.617 785.676 185.833 780.561 183.113C779.46 182.53 778.489 184.214 779.59 184.797Z" fill="#080F1F"/>
<path d="M796.036 191.53C787.165 195.351 780.301 200.013 775.833 208.819C772.337 215.812 769.682 225.006 776.092 231.222C776.999 232.064 778.359 230.704 777.452 229.862C770.848 223.517 775.186 213.545 779.071 206.941C783.15 200.013 789.82 196.322 797.007 193.214C798.172 192.696 797.136 191.012 796.036 191.53Z" fill="#080F1F"/>
<path d="M799.598 242.035C801.152 255.892 798.173 269.489 797.331 283.281C796.554 296.425 798.173 309.57 801.993 322.131C802.382 323.297 804.26 322.844 803.871 321.613C799.986 308.793 798.432 295.454 799.339 282.051C800.245 268.712 802.965 255.439 801.476 242.035C801.411 240.805 799.468 240.805 799.598 242.035Z" fill="#080F1F"/>
<path d="M802.122 321.613C800.18 324.138 797.784 326.21 795 327.764C793.899 328.347 794.87 330.031 795.971 329.448C799.079 327.7 801.669 325.369 803.806 322.584C804.583 321.548 802.835 320.577 802.122 321.613Z" fill="#080F1F"/>
<path d="M775.64 230.899C781.856 238.215 790.921 242.23 800.504 241.971C801.734 241.971 801.734 240.028 800.504 240.028C791.374 240.223 782.892 236.402 777 229.474C776.158 228.568 774.798 229.927 775.64 230.899Z" fill="#080F1F"/>
<path opacity="0.15" d="M746.826 187.84C758.934 211.927 763.855 233.165 766.057 247.475C768.647 264.374 768.517 277.842 768.388 285.548C767.999 306.397 765.086 323.75 762.237 336.376C764.568 336.247 766.834 336.117 769.165 335.988C773.697 335.988 781.662 335.276 790.338 331.002C795.907 328.218 799.986 324.786 802.641 322.131C800.051 312.807 799.144 305.232 798.82 300.181C797.914 287.296 799.856 280.238 800.763 261.72C801.216 252.655 801.216 245.402 801.151 240.935C797.525 240.87 791.504 240.222 785.352 236.726C781.856 234.719 776.093 231.352 774.215 224.812C773.05 220.733 773.892 217.236 774.604 214.452C774.992 212.898 777.777 202.408 788.072 196.775C791.698 194.768 795.065 193.991 797.331 193.667C784.64 187.127 771.949 180.588 759.258 174.048C758.093 176.055 756.603 178.257 754.661 180.588C751.877 183.696 749.157 186.091 746.826 187.84Z" fill="#0F243F"/>
<path opacity="0.29" d="M780.432 234.136C782.892 247.604 784.899 266.122 782.892 287.878C781.144 307.109 776.805 323.102 772.597 335.081C776.741 334.887 782.957 334.045 789.95 331.196C796.231 328.606 800.893 325.174 803.871 322.649C802.511 319.023 800.828 313.843 799.727 307.498C799.274 304.778 798.497 299.792 798.497 291.375C798.432 277.389 800.375 273.245 800.957 259.324C801.152 255.309 801.216 249.028 800.698 241.258C798.562 241.517 794.806 241.647 790.403 240.287C785.288 238.668 781.986 235.755 780.432 234.136Z" fill="#0F243F"/>
<path d="M798.498 193.149C792.217 193.408 787.684 197.229 784.835 199.495C782.569 201.373 776.159 206.682 774.54 215.877C774.087 218.467 773.116 223.97 776.029 229.215C780.497 237.115 790.792 238.992 793.577 239.51C797.721 240.287 798.174 239.446 800.246 240.417C802.577 241.453 806.656 244.496 809.052 261.331C810.282 269.943 811.901 282.181 808.146 298.303C804.843 312.548 802.124 316.757 799.34 318.894C796.296 321.29 791.246 323.621 790.857 323.75C785.742 326.081 784.641 325.563 779.914 327.7C776.288 329.319 772.08 331.132 768.713 335.276C765.605 339.031 764.374 343.175 763.856 345.895C768.713 345.182 773.569 344.47 778.425 343.758C779.202 345.118 780.303 347.19 781.469 349.844C783.929 355.478 784.835 359.945 785.094 361.046C786.13 365.579 789.757 372.831 800.829 384.68C799.534 376.586 798.174 368.492 796.879 360.463C798.174 363.507 800.181 367.197 803.225 371.082C807.757 376.845 812.743 380.471 816.239 382.608C815.657 374.514 815.009 366.42 814.426 358.391C817.664 362.924 820.901 367.456 824.139 372.054C823.621 367.845 822.65 362.859 820.837 357.485C817.34 347.125 812.16 339.484 808.081 334.434C809.959 333.009 812.548 330.937 815.333 328.088C819.412 323.944 822.585 319.606 825.628 314.426C832.362 303.095 837.607 294.289 840.456 281.404C841.362 277.26 845.247 258.223 837.736 235.625C835.729 229.539 829.902 214.387 816.239 201.955C807.174 193.603 801.606 193.02 798.498 193.149Z" fill="white"/>
<path d="M797.655 192.372C809.116 196.905 819.282 204.351 826.404 214.452C833.073 223.97 836.44 234.978 839.16 246.18C845.052 270.267 838.124 294.224 824.397 314.297C819.735 321.095 814.425 327.441 808.663 333.333C807.821 334.24 809.181 335.599 810.022 334.693C822.972 321.354 834.045 305.685 839.613 287.749C843.628 274.929 844.405 261.331 841.556 248.187C839.095 236.92 835.728 225.524 829.512 215.747C822.066 204.027 810.929 195.61 798.108 190.495C797.008 190.041 796.49 191.919 797.655 192.372Z" fill="#080F1F"/>
<path d="M793.641 240.158C807.109 240.028 808.21 261.72 808.533 271.108C808.857 281.533 808.663 292.282 805.814 302.318C804.389 307.304 802.317 312.095 799.209 316.304C797.526 318.635 795.454 321.095 792.929 322.585C790.792 323.88 788.461 324.203 786 324.721C778.101 326.405 771.043 330.873 766.705 337.736C765.669 339.42 761.913 344.146 763.597 346.348C764.115 347.06 764.892 347.06 765.734 347.06C768.259 346.931 770.849 346.024 773.309 345.506C774.54 345.247 774.022 343.369 772.791 343.628C770.784 344.082 768.194 345.118 766.122 345.053C764.892 344.988 765.086 345.247 765.539 343.952C765.993 342.528 766.899 341.168 767.676 339.873C770.59 334.952 774.475 331.261 779.72 328.865C782.763 327.441 785.806 326.858 789.044 326.081C793.77 324.98 797.202 322.067 800.181 318.246C805.814 310.994 808.469 301.929 809.699 292.929C811.059 282.634 811.123 271.821 809.828 261.525C808.663 252.46 805.425 238.021 793.706 238.151C792.411 238.28 792.411 240.223 793.641 240.158Z" fill="#080F1F"/>
<path d="M772.079 345.571C773.115 345.377 774.28 345.053 775.381 344.988C776.741 344.535 778.101 344.859 779.331 345.959C779.46 346.348 779.525 346.672 779.655 347.06C780.626 349.003 780.95 351.593 781.597 353.665C782.892 357.679 784.446 361.629 786.194 365.449C789.691 373.025 794.288 380.083 800.31 385.91C801.087 386.622 802.058 385.91 801.929 384.939C800.763 377.428 799.598 369.917 798.432 362.406C798.238 361.176 796.36 361.694 796.554 362.924C797.72 370.435 798.885 377.946 800.051 385.457C800.569 385.133 801.152 384.809 801.67 384.486C794.094 377.234 788.979 368.039 785.288 358.327C784.381 355.866 783.54 353.406 782.763 350.945C782.115 348.873 781.856 346.348 780.885 344.47C779.137 341.168 774.475 343.175 771.626 343.693C770.331 343.887 770.849 345.765 772.079 345.571Z" fill="#080F1F"/>
<path d="M807.756 335.017C812.742 340.585 815.785 346.931 818.505 353.794C821.354 360.981 824.009 368.233 824.656 375.938C825.304 375.874 825.951 375.744 826.534 375.68C823.685 368.751 819.67 362.535 814.555 357.096C813.713 356.19 812.354 357.549 813.195 358.456C818.052 363.636 821.937 369.593 824.656 376.198C825.045 377.104 826.663 377.169 826.534 375.938C825.822 367.586 822.973 359.881 819.865 352.175C817.145 345.377 813.908 339.161 809.051 333.657C808.339 332.686 806.915 334.045 807.756 335.017Z" fill="#080F1F"/>
<path d="M795.584 361.499C800.958 370.305 807.951 377.816 816.304 383.903C816.951 384.356 817.728 383.709 817.793 383.061C817.987 374.838 816.822 366.744 814.815 358.845C814.491 357.614 812.613 358.132 812.937 359.363C814.879 367.133 816.045 375.032 815.851 383.061C816.369 382.802 816.822 382.478 817.34 382.219C809.246 376.392 802.512 369.01 797.332 360.528C796.62 359.492 794.936 360.463 795.584 361.499Z" fill="#080F1F"/>
<path d="M802.771 356.708C807.627 364.348 811.706 372.377 814.879 380.795C815.332 381.96 817.21 381.442 816.757 380.277C813.519 371.665 809.44 363.442 804.454 355.672C803.742 354.701 802.058 355.672 802.771 356.708Z" fill="#080F1F"/>
<path opacity="0.33" d="M784.123 200.401C790.986 203.38 810.088 212.769 821.613 234.395C834.434 258.612 833.009 290.404 820.577 306.591C815.462 313.196 806.915 322.714 803.548 326.081C797.461 332.232 795.066 333.786 792.605 334.887C787.037 337.477 784.252 336.441 776.741 339.549C770.331 342.204 766.576 345.312 766.77 345.571C766.899 345.895 771.497 343.693 775.964 343.823C775.964 343.823 779.331 343.887 780.303 345.441C780.367 345.506 780.432 345.636 780.432 345.636C780.626 346.024 780.626 346.542 781.274 349.067C781.727 350.945 782.245 352.499 782.504 353.47C784.058 358.327 786.389 364.219 790.08 370.629C793.771 377.104 797.785 382.155 801.217 385.91C800.181 378.334 799.21 370.759 798.174 363.118C800.569 367.003 803.936 371.6 808.663 376.198C811.577 379.047 814.426 381.378 817.016 383.191C816.239 374.773 815.397 366.356 814.62 357.873C817.016 360.917 819.476 364.478 821.872 368.492C823.297 370.823 824.462 373.09 825.563 375.226C824.786 368.751 822.973 360.269 818.829 351.01C816.563 345.895 813.973 341.621 811.577 338.06C811.318 336.312 811.059 334.628 810.865 332.88C813.584 330.16 817.145 326.211 821.03 321.225C825.563 315.397 834.175 304.196 838.966 289.238C847.966 261.331 838.513 236.402 835.988 230.057C833.268 223.193 829.254 213.416 819.541 204.351C811.706 197.034 803.548 193.344 798.303 191.466C796.102 192.178 793.253 193.344 790.209 195.351C787.49 197.099 785.547 198.912 784.123 200.401Z" fill="#0F243F"/>
<path opacity="0.31" d="M824.786 313.779C823.814 312.937 812.613 324.462 808.663 328.606C799.727 338.06 798.886 340.65 798.497 342.074C796.814 348.355 799.145 353.794 803.03 362.535C806.332 369.982 813.325 383.061 815.98 382.09C817.21 381.637 818.311 378.011 813.778 357.226C821.872 372.183 824.397 375.097 825.174 374.708C826.663 374.061 823.037 360.981 817.857 349.715C814.944 343.369 811.9 338.384 809.699 335.017C822.973 318.311 825.304 314.232 824.786 313.779Z" fill="#0F243F"/>
<path d="M701.048 104.053C700.401 105.672 700.66 105.866 699.106 110.852C698.458 112.924 697.875 114.672 697.422 115.838C697.422 115.838 695.221 122.119 694.12 130.86C693.99 131.702 693.861 133.191 694.703 134.162C695.998 135.651 698.329 134.421 700.401 135.651C702.214 136.752 702.602 138.954 703.12 141.09C704.609 147.306 707.07 152.163 707.653 153.134C713.027 163.105 727.92 164.724 729.603 164.854C732.128 165.113 734.265 164.983 735.625 164.854C734.2 167.703 734.395 171.07 736.208 173.595C738.862 177.221 743.978 176.768 745.532 176.573C748.769 176.25 751.165 174.76 752.266 173.983C751.1 171.134 749.805 166.796 749.74 161.487C749.676 150.35 755.309 142.515 757.51 139.795C758.741 139.536 761.266 138.889 763.532 136.817C764.05 136.364 768.324 132.349 767.547 126.586C767.158 123.543 765.151 118.687 760.813 117.845C757.64 117.262 755.05 119.075 754.338 119.593C753.755 118.169 753.172 116.744 752.589 115.32C748.963 115.255 744.366 114.672 739.38 112.795C724.747 107.356 717.754 94.9236 715.682 90.8444C714.257 91.3624 712.185 92.2689 709.919 93.8229C707.912 95.1826 703.185 98.4201 701.048 104.053Z" fill="white"/>
<path d="M698.522 107.097C697.227 117.845 695.091 128.464 692.306 138.954C692.112 139.666 692.76 140.313 693.472 140.119C696.386 139.342 699.235 138.565 702.148 137.853C701.76 137.659 701.371 137.4 700.983 137.205C702.407 143.745 705.127 149.832 708.947 155.335C710.566 157.666 712.379 159.868 714.321 161.94C716.005 163.753 717.3 165.631 719.825 165.76C731.221 166.343 741.97 161.228 749.416 152.745C750.258 151.839 748.898 150.414 748.056 151.386C741.128 159.285 731.415 164.141 720.796 163.882C716.523 163.753 712.249 156.76 710.113 153.587C706.681 148.472 704.285 142.774 702.925 136.687C702.796 136.169 702.213 135.91 701.76 136.04C698.846 136.817 695.997 137.594 693.083 138.306C693.472 138.695 693.86 139.083 694.249 139.472C697.098 128.853 699.235 118.039 700.53 107.097C700.594 105.866 698.652 105.866 698.522 107.097Z" fill="#080F1F"/>
<path d="M707.588 109.428C707.523 113.313 708.106 117.068 709.336 120.694C709.725 121.73 711.149 121.536 711.214 120.435C711.602 116.356 711.149 112.406 709.854 108.521C709.53 107.42 708.041 107.679 707.976 108.78C707.782 110.787 707.912 112.795 708.3 114.737C708.559 115.967 710.372 115.449 710.178 114.219C709.854 112.406 709.789 110.593 709.919 108.78C709.271 108.845 708.624 108.974 708.041 109.039C709.271 112.795 709.66 116.55 709.336 120.435C709.984 120.37 710.631 120.241 711.214 120.176C709.984 116.68 709.401 113.118 709.53 109.428C709.53 108.197 707.588 108.197 707.588 109.428Z" fill="#080F1F"/>
<path d="M693.343 117.651C693.408 117.715 693.408 117.715 693.473 117.78C693.408 117.456 693.278 117.133 693.214 116.809C693.278 116.744 693.343 116.615 693.408 116.55C693.732 116.55 694.055 116.55 694.379 116.55C693.732 116.161 693.796 114.025 693.796 113.507C693.861 112.406 694.055 111.435 694.444 110.399C693.796 110.399 693.214 110.399 692.566 110.399C693.214 113.312 693.343 116.161 692.825 119.14C693.473 119.14 694.055 119.14 694.703 119.14C693.667 116.42 693.473 113.636 694.185 110.852C694.509 109.622 692.631 109.104 692.307 110.334C691.53 113.507 691.724 116.615 692.825 119.658C693.149 120.435 694.509 120.694 694.703 119.658C695.221 116.356 695.156 113.183 694.444 109.881C694.185 108.845 692.89 109.039 692.566 109.881C691.724 112.147 691.401 114.931 692.437 117.197C692.955 118.363 694.638 118.816 695.027 117.262C695.091 116.938 695.027 116.55 694.768 116.291C694.703 116.226 694.703 116.226 694.638 116.161C693.796 115.449 692.372 116.809 693.343 117.651Z" fill="#080F1F"/>
<path d="M704.868 146.4C706.876 146.853 709.012 147.112 710.955 146.141C712.833 145.234 714.581 143.551 716.2 142.256C717.171 141.479 715.811 140.119 714.84 140.896C713.415 141.997 712.056 143.292 710.502 144.198C708.948 145.105 707.135 144.911 705.451 144.522C704.156 144.263 703.638 146.141 704.868 146.4Z" fill="#080F1F"/>
<path d="M714.128 126.845C714.063 126.845 713.998 126.845 713.934 126.845C713.739 126.781 713.61 126.781 713.416 126.716C713.351 126.651 713.286 126.651 713.286 126.586C713.221 126.457 713.092 126.327 713.027 126.133C713.027 126.198 713.027 126.198 713.027 126.068C712.962 125.809 713.092 125.55 713.416 125.291C713.61 125.227 713.739 125.227 713.934 125.162C713.998 125.162 714.063 125.162 714.128 125.162C713.675 124.968 713.027 125.356 712.962 125.809C712.833 126.392 713.157 126.781 713.61 126.975C714.322 127.299 714.969 126.586 714.969 125.874C714.969 125.162 714.322 124.514 713.61 124.773C713.092 124.968 712.768 125.421 712.962 125.939C713.092 126.651 713.675 127.04 714.128 126.845Z" fill="#080F1F"/>
<path d="M719.178 121.924C720.408 121.924 720.408 119.982 719.178 119.982C717.947 119.982 717.947 121.924 719.178 121.924Z" fill="#080F1F"/>
<path d="M719.307 127.363C719.437 127.493 719.566 127.622 719.696 127.752C720.084 128.14 720.667 128.14 721.055 127.752C721.444 127.363 721.444 126.781 721.055 126.392C720.926 126.263 720.797 126.133 720.667 126.004C720.279 125.615 719.696 125.615 719.307 126.004C718.984 126.327 718.984 126.975 719.307 127.363Z" fill="#080F1F"/>
<path d="M700.66 106.708C703.638 99.0027 709.984 93.1752 717.818 90.7795C718.984 90.391 718.531 88.5132 717.3 88.9017C708.753 91.5565 702.019 97.8372 698.782 106.19C698.329 107.355 700.206 107.873 700.66 106.708Z" fill="#080F1F"/>
<path d="M715.94 90.132C720.861 107.291 737.696 116.485 754.79 116.291C756.021 116.291 756.021 114.349 754.79 114.349C738.603 114.478 722.48 105.931 717.818 89.614C717.43 88.4485 715.552 88.9665 715.94 90.132Z" fill="#080F1F"/>
<path d="M734.783 164.141C735.171 171.588 734.524 178.969 732.776 186.286C732.711 186.674 732.84 187.192 733.229 187.387C741.323 191.66 751.359 188.552 755.568 180.394C756.15 179.293 754.467 178.322 753.884 179.422C750.193 186.61 741.387 189.523 734.2 185.703C734.33 186.092 734.524 186.415 734.653 186.804C736.402 179.358 737.114 171.782 736.725 164.206C736.661 162.911 734.718 162.911 734.783 164.141Z" fill="#080F1F"/>
<path d="M716.329 91.6213C714.128 92.5278 711.149 93.9523 708.235 96.4775C702.732 101.204 700.465 106.838 699.559 109.687C697.681 109.233 694.638 108.197 692.436 105.478C687.904 99.8445 689.717 90.2615 694.379 85.1463C698.717 80.3548 702.343 83.2038 710.502 77.3763C715.682 73.6855 715.487 71.6135 721.25 67.858C724.034 66.045 727.919 63.455 733.164 62.5485C741.064 61.1888 747.668 64.3615 757.316 68.9588C762.949 71.6783 761.719 71.6783 769.554 75.7575C782.698 82.5563 784.511 81.6498 790.015 85.988C795.713 90.4558 798.885 95.5063 801.605 99.8445C805.425 105.996 805.49 108.133 809.569 117.003C815.785 130.342 817.663 129.694 821.483 138.954C824.721 146.788 827.958 154.494 826.339 163.818C823.944 177.545 812.677 185.315 810.54 186.739C796.231 196.193 780.432 192.113 774.734 190.624C768 188.876 758.74 186.48 753.107 178.386C745.92 168.026 747.409 152.163 756.345 138.371C757.64 138.5 759.906 138.565 762.172 137.4C767.287 134.745 769.877 127.169 767.028 121.924C766.705 121.342 764.179 116.809 759.258 116.744C754.402 116.68 751.618 121.018 751.488 121.277C746.373 120.111 734.265 116.55 724.682 105.478C720.408 100.557 717.883 95.5063 716.329 91.6213Z" fill="#0F243F"/>
<path d="M756.344 143.356C758.382 143.356 760.035 141.704 760.035 139.666C760.035 137.627 758.382 135.975 756.344 135.975C754.306 135.975 752.653 137.627 752.653 139.666C752.653 141.704 754.306 143.356 756.344 143.356Z" fill="#0F243F"/>
<path d="M735.042 162.328C735.042 163.105 735.107 163.882 735.172 164.659C735.236 165.501 735.366 166.343 735.431 167.12C737.762 166.343 741.258 164.789 744.237 161.487C747.474 157.796 748.963 153.069 748.381 152.681C747.863 152.357 746.309 155.012 742.618 157.925C739.704 160.192 736.92 161.487 735.042 162.328Z" fill="#080F1F" stroke="#080F1F" stroke-miterlimit="10"/>
<path opacity="0.19" d="M759.193 69.9948C764.373 75.8223 771.69 84.693 778.942 96.5423C787.165 109.881 793.381 120.047 795.712 134.486C797.137 143.486 800.633 165.436 786.712 178.192C778.683 185.509 768.453 186.609 763.337 186.739C765.992 187.969 769.877 189.523 774.733 190.689C781.467 192.308 791.892 194.768 803.094 190.559C805.295 189.717 819.864 183.955 824.85 169.127C828.152 159.285 825.627 150.22 824.591 146.594C822.778 140.184 819.54 134.68 817.857 131.766C815.008 126.975 812.029 123.09 809.375 117.198C807.756 113.701 806.72 110.852 806.72 110.852C805.36 107.291 805.554 107.097 804.648 105.219C803.677 103.082 803.029 102.499 800.245 98.0963C797.59 93.8875 798.173 94.4703 797.202 93.1105C793.511 87.9953 789.432 85.4053 788.46 84.8225C787.748 84.3693 786.388 83.7218 783.604 82.362C779.395 80.3548 776.223 78.9303 775.575 78.6713C772.402 77.441 767.352 74.9158 759.193 69.9948Z" fill="#0F243F"/>
<path opacity="0.15" d="M814.75 127.557C815.527 132.025 816.303 138.371 815.98 145.882C815.785 150.026 815.397 159.479 812.289 167.055C805.361 183.89 785.418 190.171 780.367 191.595C782.374 191.984 802.253 195.545 815.656 182.595C823.296 175.214 825.563 165.695 825.692 165.113C826.922 159.803 826.469 155.53 826.21 153.134C824.915 141.025 818.57 132.09 814.75 127.557Z" fill="#0F243F"/>
<g clip-path="url(#clip0)">
<path d="M393.124 370.532L404 359.657L414.881 370.537L421.209 364.209L404 347L386.797 364.204L393.124 370.532ZM376 374.999L382.328 368.671L388.656 374.999L382.328 381.327L376 374.999ZM393.124 379.468L404 390.343L414.88 379.463L421.212 385.788L421.209 385.791L404 403L386.796 385.797L386.787 385.788L393.124 379.468ZM419.344 375.003L425.673 368.674L432 375.002L425.672 381.33L419.344 375.003Z" fill="#FFC700"/>
<path d="M410.418 374.997H410.421L403.999 368.575L399.254 373.321H399.254L398.709 373.866L397.584 374.991L397.575 375L397.584 375.009L403.999 381.425L410.421 375.003L410.424 375L410.418 374.997Z" fill="#FFC700"/>
</g>
<path d="M235 220C249.911 220 262 232.089 262 247C262 261.911 249.91 274 235 274C220.09 274 208 261.914 208 247C208 232.086 220.087 220 235 220Z" fill="#32D691"/>
<path d="M238.333 243.403V239.386H247.518V233.266H222.507V239.386H231.693V243.399C224.228 243.742 218.614 245.221 218.614 246.992C218.614 248.763 224.23 250.242 231.693 250.587V263.452H238.335V250.586C245.787 250.242 251.389 248.764 251.389 246.995C251.389 245.225 245.787 243.748 238.335 243.404L238.333 243.403ZM238.335 249.496V249.493C238.148 249.505 237.185 249.562 235.041 249.562C233.327 249.562 232.121 249.514 231.696 249.492V249.497C225.101 249.205 220.178 248.056 220.178 246.682C220.178 245.308 225.101 244.161 231.696 243.868V248.353C232.128 248.382 233.364 248.455 235.069 248.455C237.117 248.455 238.147 248.37 238.336 248.353V243.868C244.919 244.161 249.831 245.311 249.831 246.68C249.831 248.05 244.917 249.2 238.336 249.493" fill="white"/>
<g clip-path="url(#clip1)">
<path d="M239.495 336L239.127 337.253V373.62L239.495 373.988L256.376 364.01L239.495 336Z" fill="#232B39"/>
<path d="M239.495 336L222.615 364.01L239.495 373.988V336Z" fill="#070F1F"/>
<path d="M239.495 377.185L239.287 377.439V390.395L239.495 391L256.385 367.213L239.495 377.185Z" fill="#232B39"/>
<path d="M239.495 391V377.185L222.615 367.213L239.495 391Z" fill="#070F1F"/>
</g>
<g clip-path="url(#clip2)">
<mask id="mask0" mask-type="alpha" maskUnits="userSpaceOnUse" x="429" y="246" width="41" height="40">
<path d="M448.316 246H449.515C450.266 246.049 451.02 246.094 451.766 246.2C454.323 246.56 456.816 247.41 459.039 248.725C458.527 249.132 457.979 249.489 457.454 249.878C453.908 252.417 450.371 254.968 446.82 257.5C446.532 257.262 446.283 256.982 446.01 256.728C445.2 255.952 444.412 255.153 443.595 254.386C443.297 254.494 443.025 254.659 442.747 254.808C440.892 255.843 439.314 257.352 438.164 259.135C436.668 257.246 435.234 255.309 433.818 253.36C433.773 253.295 433.734 253.228 433.693 253.16C434.228 252.521 434.803 251.917 435.415 251.352C438.48 248.5 442.46 246.638 446.623 246.15C447.185 246.074 447.753 246.06 448.316 246Z" fill="#1D2227"/>
<path d="M458.034 253.479C459.289 252.532 460.545 251.588 461.83 250.683C464.468 252.877 466.515 255.772 467.724 258.98C469.255 263.009 469.411 267.538 468.179 271.666C467.748 273.121 467.151 274.52 466.399 275.838C466.282 275.738 466.199 275.606 466.108 275.485C463.686 272.286 461.265 269.088 458.844 265.889C458.374 265.261 457.89 264.643 457.427 264.009C458.487 262.871 459.592 261.772 460.656 260.636C459.915 259.035 458.853 257.603 457.537 256.429C457.02 255.958 456.45 255.552 455.874 255.158C456.576 254.577 457.311 254.035 458.034 253.479Z" fill="#1D2227"/>
<path d="M430.404 258.672C430.764 257.782 431.165 256.902 431.664 256.08C432.369 256.968 433.042 257.881 433.734 258.78C435.927 261.653 438.12 264.526 440.311 267.4C440.455 267.589 440.609 267.77 440.733 267.974C439.626 269.129 438.49 270.257 437.388 271.417C437.654 272.045 438.014 272.629 438.39 273.197C438.96 274.036 439.627 274.805 440.377 275.487C440.917 275.992 441.52 276.421 442.126 276.842C441.598 277.286 441.041 277.694 440.496 278.116C439.525 278.859 438.547 279.591 437.56 280.313C437.093 280.644 436.646 281.002 436.164 281.312C433.059 278.716 430.773 275.156 429.712 271.252C429.28 269.704 429.07 268.103 429 266.5V265.5C429.023 265.153 429.045 264.807 429.069 264.46C429.222 262.475 429.671 260.524 430.404 258.672Z" fill="#1D2227"/>
<path d="M458.523 274.596C459.018 274.06 459.441 273.466 459.854 272.867C460.3 273.416 460.726 273.983 461.159 274.543C462.232 275.953 463.294 277.371 464.321 278.814C464.028 279.223 463.665 279.577 463.321 279.943C460.447 282.901 456.641 284.943 452.578 285.674C451.618 285.858 450.641 285.936 449.665 286H448.217C447.787 285.946 447.354 285.937 446.924 285.887C444.13 285.593 441.391 284.712 438.972 283.28C439.8 282.649 440.64 282.033 441.473 281.406C444.65 279.036 447.826 276.664 451.001 274.291C451.54 274.787 452.048 275.316 452.578 275.823C453.198 276.416 453.794 277.037 454.427 277.618C455.981 276.907 457.375 275.858 458.523 274.596Z" fill="#1D2227"/>
</mask>
<g mask="url(#mask0)">
<rect x="429" y="246" width="40" height="40" fill="#070F1F"/>
</g>
</g>
<defs>
<linearGradient id="paint0_linear" x1="293" y1="238" x2="397.751" y2="254.689" gradientUnits="userSpaceOnUse">
<stop stop-color="#0066FF"/>
<stop offset="1" stop-color="#2CE0C5"/>
</linearGradient>
<clipPath id="clip0">
<rect width="56" height="56" fill="white" transform="translate(376 347)"/>
</clipPath>
<clipPath id="clip1">
<rect width="55" height="55" fill="white" transform="translate(212 336)"/>
</clipPath>
<clipPath id="clip2">
<rect width="40" height="40" fill="white" transform="translate(429 246)"/>
</clipPath>
</defs>
</svg>
