<svg width="964" height="723" viewBox="0 0 964 723" fill="none" xmlns="http://www.w3.org/2000/svg">
<path d="M299.564 589.606C354.753 589.606 409.942 589.606 465.131 589.606C520.139 589.606 575.147 589.606 630.095 589.606C661.184 589.606 692.333 589.606 723.422 589.606C724.567 589.606 724.567 587.799 723.422 587.799C668.233 587.799 613.044 587.799 557.855 587.799C502.847 587.799 447.839 587.799 392.891 587.799C361.802 587.799 330.653 587.799 299.564 587.799C298.419 587.799 298.419 589.606 299.564 589.606Z" fill="#E8E8E8"/>
<path d="M734.568 552.131C734.086 569.483 735.834 586.835 739.81 603.765C740.051 604.91 741.798 604.428 741.557 603.283C737.641 586.534 735.894 569.363 736.436 552.131C736.376 550.986 734.568 550.986 734.568 552.131Z" fill="#E8E8E8"/>
<path d="M806.326 553.517C808.013 569.543 806.989 585.751 803.314 601.416C803.073 602.56 804.759 603.042 805.061 601.898C808.796 586.052 809.881 569.724 808.133 553.517C808.013 552.372 806.205 552.372 806.326 553.517Z" fill="#E8E8E8"/>
<path d="M740.532 605.452C761.379 610.754 783.43 610.031 803.855 603.283C804.94 602.922 804.458 601.175 803.373 601.536C783.19 608.163 761.56 608.947 741.015 603.705C739.87 603.464 739.388 605.211 740.532 605.452Z" fill="#E8E8E8"/>
<path d="M735.411 552.974C758.849 557.975 783.129 557.855 806.506 552.673C807.651 552.432 807.169 550.685 806.024 550.926C782.949 556.047 758.969 556.107 735.893 551.227C734.749 550.986 734.267 552.733 735.411 552.974Z" fill="#E8E8E8"/>
<path d="M749.691 553.637C746.558 546.588 749.39 537.972 751.739 531.044C754.149 523.874 757.584 517.066 761.801 510.8C761.319 510.86 760.837 510.92 760.355 510.98C761.741 512.547 763.247 513.631 765.115 514.535C765.838 514.836 766.621 514.354 766.44 513.511C765.717 510.257 764.452 507.064 765.898 503.811C766.922 501.521 768.368 499.232 769.573 497.063C769.152 497.183 768.73 497.304 768.308 497.364C769.573 498.147 770.839 498.87 772.104 499.653C772.947 500.196 773.67 499.171 773.369 498.388C772.104 495.617 771.26 492.845 773.008 490.074C774.032 488.387 775.357 486.88 776.502 485.314C779.033 481.94 781.684 478.566 784.335 475.252C789.396 468.926 794.637 462.78 800.06 456.755C799.578 456.695 799.096 456.635 798.614 456.575C806.326 466.697 811.206 478.807 812.532 491.459C813.194 497.545 813.014 503.811 811.929 509.836C811.387 512.908 810.604 515.921 809.64 518.873C809.459 519.476 809.218 520.078 809.037 520.62C808.374 522.307 807.29 523.03 805.543 523.392C804.338 523.633 803.675 523.452 802.651 524.235C802.169 524.597 802.048 525.199 802.47 525.681C803.795 527.067 804.338 527.308 803.856 529.176C803.554 530.381 802.831 531.646 802.289 532.851C801.205 535.261 800 537.611 798.734 539.9C796.144 544.6 793.191 549.058 789.878 553.276C789.155 554.18 790.42 555.445 791.143 554.541C797.529 546.347 802.59 537.37 806.386 527.73C806.507 527.429 806.386 527.067 806.145 526.826C805.362 526.043 804.579 525.199 803.735 524.416C803.675 524.898 803.615 525.38 803.554 525.862C804.94 524.898 806.507 525.561 807.953 524.958C809.097 524.537 809.7 523.693 810.182 522.609C811.507 519.777 812.351 516.523 813.074 513.511C814.58 506.883 815.062 500.075 814.58 493.327C813.556 479.711 808.555 466.516 800.241 455.671C799.939 455.249 799.277 455.008 798.795 455.49C792.107 462.901 785.66 470.553 779.515 478.385C776.743 481.88 773.791 485.374 771.381 489.17C769.212 492.604 770.236 495.858 771.742 499.352C772.164 498.93 772.586 498.509 773.008 498.087C771.742 497.304 770.477 496.581 769.212 495.797C768.79 495.556 768.188 495.677 767.947 496.099C766.44 498.87 764.091 501.943 763.247 505.016C762.524 507.727 764.03 511.282 764.633 513.933C765.055 513.571 765.537 513.27 765.958 512.908C764.211 512.125 762.825 511.101 761.56 509.655C761.138 509.173 760.415 509.354 760.114 509.836C755.415 516.825 751.739 524.476 749.209 532.55C747.04 539.539 744.931 547.492 748.004 554.481C748.606 555.565 750.173 554.662 749.691 553.637Z" fill="#E8E8E8"/>
<path d="M798.734 470.432C796.324 497.725 777.646 519.596 769.874 545.263C769.513 546.407 771.26 546.829 771.621 545.745C779.394 519.897 798.131 497.966 800.541 470.432C800.662 469.227 798.794 469.287 798.734 470.432Z" fill="#E8E8E8"/>
<path d="M775.96 484.952C777.888 494.893 780.118 504.714 782.648 514.475C782.949 515.619 784.697 515.137 784.395 513.993C781.865 504.232 779.636 494.351 777.708 484.47C777.527 483.325 775.78 483.808 775.96 484.952Z" fill="#E8E8E8"/>
<path d="M796.325 491.339C801.567 487.543 806.085 483.024 810.002 477.782C810.725 476.879 809.158 475.975 808.435 476.879C804.76 481.819 800.422 486.157 795.421 489.772C794.517 490.495 795.421 492.062 796.325 491.339Z" fill="#E8E8E8"/>
<path d="M790.721 465.552C792.348 470.733 793.312 477.06 797.288 480.976C798.132 481.819 799.397 480.494 798.553 479.711C794.878 476.035 793.914 469.83 792.408 465.07C792.107 463.985 790.359 464.467 790.721 465.552Z" fill="#E8E8E8"/>
<path d="M746.076 553.155C742.401 550.263 740.171 546.226 738.304 542.009C736.195 537.068 734.387 532.007 732.761 526.886C729.688 517.065 727.459 506.943 726.133 496.761C723.422 475.433 725.591 453.863 723 432.474C722.458 432.655 721.855 432.776 721.313 432.956C728.061 448.139 743.847 457.237 756.981 466.275C756.861 465.853 756.74 465.431 756.68 465.009C754.872 467.6 753.065 470.191 751.257 472.782C750.836 473.384 751.378 474.167 752.041 474.167C754.39 474.167 756.439 473.866 758.668 473.083C758.307 472.962 758.005 472.782 757.644 472.661C759.873 476.095 762.102 479.53 764.332 482.964C764.392 482.602 764.452 482.241 764.452 481.879C763.368 482.904 762.464 484.048 761.56 485.314C761.259 485.735 761.56 486.579 762.102 486.639C767.043 487.362 768.79 492.062 770.055 496.279C770.417 497.364 772.164 496.942 771.803 495.797C770.296 491.037 768.127 485.675 762.584 484.892C762.765 485.314 762.946 485.796 763.127 486.217C763.91 485.012 764.693 484.169 765.717 483.205C766.019 482.964 766.079 482.422 765.838 482.12C763.609 478.686 761.379 475.252 759.15 471.818C758.969 471.516 758.548 471.276 758.126 471.396C756.077 472.059 754.089 472.42 751.98 472.36C752.221 472.842 752.523 473.264 752.764 473.746C754.571 471.155 756.379 468.564 758.186 465.973C758.487 465.552 758.246 465.009 757.885 464.708C744.991 455.851 729.507 446.995 722.88 432.053C722.518 431.269 721.072 431.631 721.193 432.535C723.844 454.707 721.494 477.12 724.627 499.231C726.133 509.896 728.603 520.379 732.038 530.561C734.809 538.816 737.701 548.877 744.75 554.481C745.714 555.143 746.98 553.878 746.076 553.155Z" fill="#E8E8E8"/>
<path d="M721.675 434.282C726.555 447.778 730.652 461.997 737.219 474.83C740.473 481.157 744.027 487.362 747.1 493.809C750.414 500.798 753.366 507.908 756.379 514.957C756.8 516.041 758.367 515.077 757.945 514.053C755.113 507.305 752.221 500.557 749.149 493.93C746.136 487.423 742.642 481.217 739.268 474.891C732.52 461.997 728.362 447.537 723.362 433.86C723 432.716 721.253 433.198 721.675 434.282Z" fill="#E8E8E8"/>
<path d="M723.964 480.072C730.471 480.855 737.581 481.217 742.521 486.097C743.365 486.941 744.63 485.615 743.786 484.832C738.484 479.65 730.953 479.168 723.964 478.325C722.819 478.144 722.819 479.952 723.964 480.072Z" fill="#E8E8E8"/>
<path d="M741.377 455.671C740.292 459.587 739.569 463.624 739.268 467.721C739.027 471.215 738.605 475.312 739.81 478.686C740.172 479.771 741.919 479.289 741.558 478.204C740.413 475.011 740.835 471.035 741.076 467.661C741.377 463.744 742.1 459.888 743.124 456.093C743.426 455.008 741.678 454.526 741.377 455.671Z" fill="#E8E8E8"/>
<path d="M728.062 512.908C732.761 513.029 737.28 513.089 741.859 514.354C746.378 515.62 750.836 516.945 755.355 518.271C756.5 518.572 756.982 516.824 755.837 516.523C751.017 515.138 746.257 513.631 741.377 512.366C736.979 511.221 732.58 511.282 728.062 511.161C726.917 511.041 726.917 512.848 728.062 512.908Z" fill="#E8E8E8"/>
<path d="M793.975 551.468C798.012 550.926 801.988 550.926 806.025 551.468C805.844 551.046 805.664 550.564 805.483 550.143C805.121 550.685 801.506 550.745 800.783 550.805C799.156 551.046 797.47 551.287 795.843 551.649C795.602 551.709 793.975 551.89 793.915 552.071C794.035 551.769 796.445 551.83 796.807 551.83C798.554 551.83 800.301 552.01 802.048 552.131C802.048 551.528 802.048 550.926 802.048 550.323C800.542 550.263 799.217 550.444 797.711 550.866C796.747 551.107 796.927 552.613 797.952 552.613C800.301 552.613 802.41 552.131 804.699 551.528C805.844 551.227 805.362 549.48 804.218 549.781C802.169 550.323 800.121 550.805 797.952 550.805C798.012 551.408 798.132 552.01 798.193 552.553C799.458 552.191 800.723 552.071 802.048 552.071C803.193 552.071 803.193 550.323 802.048 550.263C799.397 550.143 795.542 549.179 793.132 550.685C792.168 551.287 790.782 552.854 792.047 553.818C792.589 554.24 793.192 553.999 793.854 553.939C795.662 553.577 797.409 553.155 799.217 552.854C801.326 552.492 805.543 553.035 806.989 551.046C807.29 550.625 806.989 549.781 806.447 549.721C802.229 549.118 798.132 549.118 793.915 549.661C792.83 549.781 792.83 551.589 793.975 551.468Z" fill="#E8E8E8"/>
<path d="M736.195 552.613C737.038 552.372 737.882 552.191 738.725 552.131C739.147 552.131 739.508 552.071 739.93 552.131C740.111 552.131 740.955 552.071 741.015 552.131C740.955 551.83 740.834 551.529 740.774 551.227C740.774 551.288 740.713 551.348 740.713 551.348C741.075 551.167 741.436 550.926 741.798 550.745C741.738 550.745 741.677 550.745 741.677 550.745C741.858 550.926 742.099 551.167 742.28 551.348C742.28 551.288 742.28 551.227 742.22 551.227C741.919 550.082 740.231 550.564 740.472 551.709C740.472 551.77 740.472 551.83 740.533 551.83C740.593 552.131 740.894 552.372 741.135 552.432C741.195 552.432 741.256 552.432 741.256 552.432C741.738 552.553 742.159 552.312 742.34 551.83C742.34 551.77 742.4 551.709 742.4 551.709C742.521 551.408 742.401 551.047 742.16 550.805C741.497 550.143 740.051 550.263 739.207 550.263C738.002 550.263 736.737 550.504 735.592 550.805C734.628 551.167 735.11 552.914 736.195 552.613Z" fill="#E8E8E8"/>
<path d="M737.58 564.723C759.572 568.519 782.406 570.327 804.096 563.819C805.181 563.458 804.759 561.771 803.614 562.072C782.286 568.459 759.752 566.712 738.062 562.976C736.918 562.795 736.436 564.542 737.58 564.723Z" fill="#E8E8E8"/>
<path d="M813.315 589.486C851.935 589.486 890.616 589.486 929.236 589.486C930.381 589.486 930.381 587.679 929.236 587.679C890.616 587.679 851.935 587.679 813.315 587.679C812.11 587.679 812.11 589.486 813.315 589.486Z" fill="#E8E8E8"/>
<path d="M784.094 628.227C820.485 628.227 856.936 628.227 893.327 628.227C894.472 628.227 894.472 626.419 893.327 626.419C856.936 626.419 820.485 626.419 784.094 626.419C782.949 626.419 782.949 628.227 784.094 628.227Z" fill="#E8E8E8"/>
<path d="M800.662 628.046C796.324 631.661 791.986 635.216 787.708 638.831C786.805 639.554 788.07 640.819 788.974 640.096C793.312 636.481 797.65 632.926 801.927 629.311C802.831 628.588 801.506 627.263 800.662 628.046Z" fill="#E8E8E8"/>
<path d="M788.251 640.759C789.396 640.759 789.396 638.951 788.251 638.951C787.106 638.951 787.106 640.759 788.251 640.759Z" fill="#E8E8E8"/>
<path d="M806.627 638.951C769.934 638.951 733.242 638.951 696.55 638.951C695.405 638.951 695.405 640.759 696.55 640.759C733.242 640.759 769.934 640.759 806.627 640.759C807.771 640.759 807.771 638.951 806.627 638.951Z" fill="#E8E8E8"/>
<path d="M696.37 657.629C702.877 652.206 709.565 647.025 716.433 642.024C717.337 641.361 716.494 639.795 715.53 640.457C708.541 645.519 701.732 650.821 695.105 656.303C694.201 657.087 695.466 658.352 696.37 657.629Z" fill="#E8E8E8"/>
<path d="M147.854 624.732C190.39 624.732 232.927 624.732 275.463 624.732C287.513 624.732 299.563 624.732 311.613 624.732C312.758 624.732 312.758 622.925 311.613 622.925C269.077 622.925 226.54 622.925 184.004 622.925C171.954 622.925 159.904 622.925 147.854 622.925C146.709 622.925 146.709 624.732 147.854 624.732Z" fill="#E8E8E8"/>
<path d="M170.086 640.458C175.81 635.577 181.594 630.697 187.317 625.817C188.221 625.034 186.896 623.768 186.052 624.552C180.328 629.432 174.544 634.312 168.821 639.192C167.917 639.915 169.242 641.241 170.086 640.458Z" fill="#E8E8E8"/>
<path d="M149.36 642.205C188.884 642.205 228.408 642.205 267.932 642.205C269.076 642.205 269.076 640.397 267.932 640.397C228.408 640.397 188.884 640.397 149.36 640.397C148.215 640.397 148.215 642.205 149.36 642.205Z" fill="#E8E8E8"/>
<path d="M254.135 641.843C249.616 646.904 244.977 651.845 240.278 656.785C239.494 657.629 240.76 658.894 241.543 658.05C246.242 653.11 250.821 648.169 255.4 643.108C256.244 642.265 254.918 641 254.135 641.843Z" fill="#E8E8E8"/>
<path d="M223.286 659.677C258.051 659.677 292.755 659.677 327.519 659.677C328.664 659.677 328.664 657.87 327.519 657.87C292.755 657.87 258.051 657.87 223.286 657.87C222.142 657.87 222.142 659.677 223.286 659.677Z" fill="#E8E8E8"/>
<path d="M198.645 594.427C213.346 594.427 228.047 594.427 242.808 594.427C243.953 594.427 243.953 592.619 242.808 592.619C228.107 592.619 213.406 592.619 198.645 592.619C197.5 592.619 197.5 594.427 198.645 594.427Z" fill="#E8E8E8"/>
<path d="M253.954 600.331C258.472 600.331 263.051 600.331 267.57 600.331C268.715 600.331 268.715 598.524 267.57 598.524C263.051 598.524 258.472 598.524 253.954 598.524C252.749 598.524 252.749 600.331 253.954 600.331Z" fill="#E8E8E8"/>
<path d="M221.238 278.174C221.238 287.995 221.238 297.876 221.238 307.697C221.238 308.841 223.046 308.841 223.046 307.697C223.046 297.876 223.046 287.995 223.046 278.174C223.046 277.029 221.238 277.029 221.238 278.174Z" fill="#E8E8E8"/>
<path d="M190.933 309.143C215.153 309.143 239.374 309.143 263.594 309.143C264.739 309.143 264.739 307.335 263.594 307.335C239.374 307.335 215.153 307.335 190.933 307.335C189.788 307.335 189.788 309.143 190.933 309.143Z" fill="#E8E8E8"/>
<path d="M241.663 309.986C241.663 317.578 241.663 325.109 241.663 332.7C241.663 333.845 243.471 333.845 243.471 332.7C243.471 325.109 243.471 317.578 243.471 309.986C243.471 308.781 241.663 308.781 241.663 309.986Z" fill="#E8E8E8"/>
<path d="M221.6 335.834C240.88 335.834 260.22 335.834 279.5 335.834C280.645 335.834 280.645 334.026 279.5 334.026C260.22 334.026 240.88 334.026 221.6 334.026C220.395 334.026 220.395 335.834 221.6 335.834Z" fill="#E8E8E8"/>
<path d="M707.817 257.027C707.817 259.437 707.817 261.786 707.817 264.196C707.817 265.341 709.625 265.341 709.625 264.196C709.625 261.786 709.625 259.437 709.625 257.027C709.625 255.882 707.817 255.882 707.817 257.027Z" fill="#E8E8E8"/>
<path d="M709.263 258.473C750.715 258.473 792.167 258.473 833.619 258.473C834.764 258.473 834.764 256.665 833.619 256.665C792.167 256.665 750.715 256.665 709.263 256.665C708.118 256.665 708.118 258.473 709.263 258.473Z" fill="#E8E8E8"/>
<path d="M710.348 265.1C751.438 265.1 792.529 265.1 833.559 265.1C834.704 265.1 834.704 263.292 833.559 263.292C792.469 263.292 751.378 263.292 710.348 263.292C709.203 263.292 709.203 265.1 710.348 265.1Z" fill="#E8E8E8"/>
<path d="M833.318 257.027C833.077 259.497 833.198 261.967 833.619 264.437C833.8 265.582 835.547 265.1 835.367 263.955C834.945 261.666 834.885 259.316 835.126 257.027C835.246 255.882 833.439 255.882 833.318 257.027Z" fill="#E8E8E8"/>
<path d="M717.759 257.087C717.759 240.277 717.759 223.467 717.759 206.658C717.759 205.513 715.951 205.513 715.951 206.658C715.951 223.467 715.951 240.277 715.951 257.087C715.951 258.292 717.759 258.292 717.759 257.087Z" fill="#E8E8E8"/>
<path d="M717.758 206.959C722.88 204.91 728.302 205.211 733.062 208.043C734.086 208.646 734.99 207.079 733.966 206.477C728.844 203.464 722.759 202.982 717.276 205.211C716.192 205.633 716.674 207.38 717.758 206.959Z" fill="#E8E8E8"/>
<path d="M732.761 207.622C732.761 223.769 732.761 239.976 732.761 256.123C732.761 257.268 734.568 257.268 734.568 256.123C734.568 239.976 734.568 223.769 734.568 207.622C734.568 206.477 732.761 206.477 732.761 207.622Z" fill="#E8E8E8"/>
<path d="M734.809 221.117C738.484 219.611 742.34 219.852 745.775 221.961C746.799 222.563 747.703 220.997 746.678 220.394C742.883 218.105 738.424 217.683 734.327 219.37C733.243 219.792 733.725 221.539 734.809 221.117Z" fill="#E8E8E8"/>
<path d="M745.413 221.901C745.413 233.228 745.413 244.495 745.413 255.822C745.413 256.966 747.221 256.966 747.221 255.822C747.221 244.495 747.221 233.228 747.221 221.901C747.221 220.756 745.413 220.756 745.413 221.901Z" fill="#E8E8E8"/>
<path d="M718 220.816C723.121 219.671 728.182 220.033 733.122 221.78C734.207 222.142 734.689 220.394 733.604 220.033C728.363 218.165 722.94 217.924 717.518 219.069C716.433 219.31 716.915 221.057 718 220.816Z" fill="#E8E8E8"/>
<path d="M733.544 241.723C737.4 240.699 741.256 240.578 745.172 241.422C746.317 241.663 746.799 239.915 745.654 239.674C741.437 238.771 737.28 238.831 733.062 239.976C731.978 240.277 732.399 242.024 733.544 241.723Z" fill="#E8E8E8"/>
<path d="M768.187 256.484C768.187 253.11 768.187 249.736 768.187 246.362C768.187 245.217 766.38 245.217 766.38 246.362C766.38 249.736 766.38 253.11 766.38 256.484C766.38 257.629 768.187 257.629 768.187 256.484Z" fill="#E8E8E8"/>
<path d="M767.284 246.905C786.865 246.905 806.386 246.905 825.967 246.905C827.112 246.905 827.112 245.097 825.967 245.097C806.386 245.097 786.865 245.097 767.284 245.097C766.079 245.097 766.079 246.905 767.284 246.905Z" fill="#E8E8E8"/>
<path d="M826.57 247.869C827.715 247.869 827.715 246.061 826.57 246.061C825.365 246.061 825.365 247.869 826.57 247.869Z" fill="#E8E8E8"/>
<path d="M825.666 246.965C825.666 250.038 825.666 253.11 825.666 256.183C825.666 257.328 827.474 257.328 827.474 256.183C827.474 253.11 827.474 250.038 827.474 246.965C827.474 245.82 825.666 245.82 825.666 246.965Z" fill="#E8E8E8"/>
<path d="M779.575 245.7C779.575 242.506 779.575 239.373 779.575 236.18C779.575 235.035 777.768 235.035 777.768 236.18C777.768 239.373 777.768 242.506 777.768 245.7C777.768 246.844 779.575 246.844 779.575 245.7Z" fill="#E8E8E8"/>
<path d="M778.671 236.783C797.891 236.783 817.11 236.783 836.39 236.783C837.535 236.783 837.535 234.975 836.39 234.975C817.171 234.975 797.951 234.975 778.671 234.975C777.526 234.975 777.526 236.783 778.671 236.783Z" fill="#E8E8E8"/>
<path d="M835.788 235.879C835.788 238.53 835.788 241.181 835.788 243.832C835.788 244.976 837.596 244.976 837.596 243.832C837.596 241.181 837.596 238.53 837.596 235.879C837.596 234.674 835.788 234.674 835.788 235.879Z" fill="#E8E8E8"/>
<path d="M825.305 247.206C828.8 247.206 832.294 247.206 835.789 247.206C836.933 247.206 836.933 245.398 835.789 245.398C832.294 245.398 828.8 245.398 825.305 245.398C824.1 245.398 824.1 247.206 825.305 247.206Z" fill="#E8E8E8"/>
<path d="M835.668 243.892C835.547 244.555 835.547 245.157 835.728 245.76C835.849 246.242 836.391 246.543 836.813 246.362C837.295 246.242 837.596 245.699 837.415 245.278C837.355 244.976 837.295 244.615 837.355 244.374C837.415 243.892 837.235 243.35 836.753 243.289C836.331 243.169 835.728 243.41 835.668 243.892Z" fill="#E8E8E8"/>
<path d="M792.408 236.301C793.191 239.373 793.372 242.506 792.95 245.7C792.83 246.844 794.637 246.844 794.758 245.7C795.179 242.386 794.938 239.072 794.155 235.819C793.854 234.734 792.107 235.216 792.408 236.301Z" fill="#E8E8E8"/>
<path d="M806.024 246.784C806.446 249.797 806.205 252.749 805.482 255.641C805.181 256.786 806.928 257.268 807.229 256.123C808.073 252.869 808.253 249.616 807.771 246.302C807.651 245.157 805.904 245.639 806.024 246.784Z" fill="#E8E8E8"/>
<path d="M794.216 320.108C794.216 324.868 794.216 329.568 794.216 334.327C794.216 335.472 796.023 335.472 796.023 334.327C796.023 329.568 796.023 324.868 796.023 320.108C796.023 318.903 794.216 318.903 794.216 320.108Z" fill="#E8E8E8"/>
<path d="M780.237 334.568C792.287 334.568 804.338 334.568 816.388 334.568C817.532 334.568 817.532 332.761 816.388 332.761C804.338 332.761 792.287 332.761 780.237 332.761C779.093 332.761 779.093 334.568 780.237 334.568Z" fill="#E8E8E8"/>
<path d="M759.692 131.887C759.692 142.732 759.692 153.638 759.692 164.483C759.692 165.627 761.5 165.627 761.5 164.483C761.5 153.638 761.5 142.732 761.5 131.887C761.5 130.742 759.692 130.742 759.692 131.887Z" fill="#E8E8E8"/>
<path d="M761.982 131.827C775.719 131.827 789.395 131.827 803.132 131.827C804.277 131.827 804.277 130.02 803.132 130.02C789.395 130.02 775.719 130.02 761.982 130.02C760.837 130.02 760.837 131.827 761.982 131.827Z" fill="#E8E8E8"/>
<path d="M803.193 131.586C803.193 142.069 803.193 152.553 803.193 162.976C803.193 164.121 805.001 164.121 805.001 162.976C805.001 152.493 805.001 142.009 805.001 131.586C805.001 130.441 803.193 130.441 803.193 131.586Z" fill="#E8E8E8"/>
<path d="M760.356 165.507C774.936 165.507 789.517 165.507 804.097 165.507C805.242 165.507 805.242 163.699 804.097 163.699C789.517 163.699 774.936 163.699 760.356 163.699C759.211 163.699 759.211 165.507 760.356 165.507Z" fill="#E8E8E8"/>
<path d="M763.729 135.623C763.729 143.877 763.729 152.071 763.729 160.325C763.729 161.47 765.537 161.47 765.537 160.325C765.537 152.071 765.537 143.877 765.537 135.623C765.537 134.478 763.729 134.478 763.729 135.623Z" fill="#E8E8E8"/>
<path d="M765.055 136.346C776.322 136.346 787.649 136.346 798.915 136.346C800.06 136.346 800.06 134.538 798.915 134.538C787.649 134.538 776.322 134.538 765.055 134.538C763.91 134.538 763.91 136.346 765.055 136.346Z" fill="#E8E8E8"/>
<path d="M798.252 135.623C798.252 143.274 798.252 150.866 798.252 158.518C798.252 159.662 800.06 159.662 800.06 158.518C800.06 150.866 800.06 143.274 800.06 135.623C800.06 134.478 798.252 134.478 798.252 135.623Z" fill="#E8E8E8"/>
<path d="M765.055 161.229C776.261 161.229 787.468 161.229 798.735 161.229C799.879 161.229 799.879 159.422 798.735 159.422C787.528 159.422 776.322 159.422 765.055 159.422C763.91 159.422 763.91 161.229 765.055 161.229Z" fill="#E8E8E8"/>
<path d="M786.383 150.384C781.623 146.769 788.733 139.238 792.046 143.756C795.119 147.853 790.119 152.794 785.841 150.504C784.816 149.962 783.913 151.529 784.937 152.071C787.708 153.577 791.384 153.155 793.372 150.565C795.421 147.974 795.18 143.877 792.589 141.708C789.877 139.479 786.021 140.985 784.154 143.515C782.165 146.287 782.768 149.902 785.479 151.95C786.443 152.613 787.287 151.047 786.383 150.384Z" fill="#E8E8E8"/>
<path d="M780.659 159.301C780.418 154.541 786.263 152.734 789.938 152.734C794.457 152.734 795.903 156.771 797.77 160.205C798.313 161.229 799.879 160.325 799.337 159.301C798.072 157.012 796.867 153.999 794.758 152.312C792.83 150.806 790.42 150.866 788.13 151.107C783.913 151.589 778.551 154.18 778.852 159.301C778.912 160.446 780.72 160.446 780.659 159.301Z" fill="#E8E8E8"/>
<path d="M765.838 154.963C767.164 152.493 772.044 153.457 773.851 154.421C775.719 155.445 776.804 157.132 777.286 159.18C777.527 160.325 779.274 159.843 779.033 158.698C778.31 155.565 776.141 153.095 773.008 152.071C770.357 151.227 765.838 151.167 764.332 153.999C763.73 155.083 765.296 155.987 765.838 154.963Z" fill="#E8E8E8"/>
<path d="M769.332 150.505C767.344 150.444 767.826 147.492 768.67 146.468C769.754 145.142 771.923 144.962 773.188 146.227C774.213 147.191 774.514 148.998 773.67 150.143C773.068 150.987 772.164 151.167 771.2 151.167C770.839 151.167 769.332 151.228 769.091 150.926C768.429 149.962 766.862 150.866 767.525 151.83C768.248 152.915 769.754 152.975 770.959 152.975C772.405 153.035 773.791 152.674 774.815 151.589C776.743 149.48 776.08 145.926 773.791 144.359C771.321 142.732 767.886 143.636 766.621 146.287C765.537 148.637 766.32 152.192 769.332 152.252C770.537 152.372 770.537 150.565 769.332 150.505Z" fill="#E8E8E8"/>
<path d="M400.602 292.032C403.434 294.321 406.928 293.357 409.579 291.128C413.315 288.055 415.182 282.813 415.905 278.174C417.773 266.365 413.013 255.159 411.146 243.711C407.772 222.443 417.05 199.668 434.282 186.895C442.656 180.629 456.454 173.942 453.2 161.108C452.899 159.964 451.152 160.446 451.453 161.59C454.526 173.821 440.307 180.027 432.534 185.931C425.545 191.294 419.882 198.222 415.845 205.995C411.869 213.526 409.459 221.901 408.796 230.396C408.013 240.699 410.724 250.278 412.953 260.22C414.279 266.245 415.122 272.571 413.977 278.716C413.435 281.548 412.471 284.32 410.965 286.79C409.278 289.441 405.241 293.538 401.867 290.827C401.024 290.043 399.698 291.309 400.602 292.032Z" fill="#E8E8E8"/>
<path d="M452.537 160.386C445.729 160.687 439.764 155.385 440.126 148.396C440.487 141.106 449.103 134.358 456.393 136.286C462.9 138.033 467.901 145.203 466.274 151.89C464.648 158.578 457.116 160.024 451.332 160.988C450.188 161.169 450.67 162.916 451.814 162.735C459.285 161.53 467.961 158.879 468.443 149.842C468.805 142.491 462.238 134.538 454.706 134.237C446.753 133.876 438.74 140.383 438.318 148.456C437.957 156.409 444.765 162.555 452.537 162.253C453.682 162.133 453.682 160.325 452.537 160.386Z" fill="#E8E8E8"/>
<path d="M443.62 155.686C446.512 148.396 461.936 147.191 463.744 155.867C463.985 157.011 465.732 156.529 465.491 155.385C463.262 144.781 445.367 146.347 441.873 155.204C441.451 156.288 443.198 156.71 443.62 155.686Z" fill="#E8E8E8"/>
<path d="M452.658 147.552C451.392 146.648 450.91 144.901 451.754 143.576C452.718 141.949 454.766 141.768 456.333 142.612C457.538 143.274 457.779 144.781 457.056 145.925C456.152 147.311 454.224 147.492 452.718 147.13C451.573 146.889 451.091 148.637 452.236 148.878C454.646 149.42 457.538 148.878 458.743 146.528C459.827 144.419 459.044 141.889 456.875 140.864C454.465 139.78 451.573 140.262 450.188 142.612C448.802 144.841 449.706 147.612 451.754 149.058C452.718 149.842 453.622 148.275 452.658 147.552Z" fill="#E8E8E8"/>
<path d="M478.204 128.995C484.53 112.246 502.726 103.69 519.656 102.545C530.863 101.762 542.069 103.509 553.035 105.618C563.398 107.667 574.182 110.92 584.786 110.559C593.523 110.257 602.5 106.642 606.597 98.5087C607.139 97.4845 605.573 96.5807 605.03 97.605C600.271 107.004 589.305 109.414 579.605 108.631C568.278 107.727 557.132 104.353 545.985 102.485C527.91 99.4727 508.63 99.051 492.544 109.233C485.253 113.872 479.469 120.379 476.397 128.513C476.035 129.598 477.782 130.08 478.204 128.995Z" fill="#E8E8E8"/>
<path d="M613.887 97.4845C629.793 97.4845 645.759 97.4845 661.665 97.4845C662.81 97.4845 662.81 95.677 661.665 95.677C645.759 95.677 629.793 95.677 613.887 95.677C612.682 95.677 612.682 97.4845 613.887 97.4845Z" fill="#E8E8E8"/>
<path d="M613.224 95.5564C610.392 92.7849 613.465 88.0854 615.694 85.9767C618.406 83.3257 622.141 82.3014 625.756 83.7474C626.057 83.8679 626.66 83.6872 626.781 83.3257C628.95 78.2647 634.071 74.5894 639.674 74.8304C645.518 75.0714 650.459 79.4697 651.905 85.0127C652.025 85.5549 652.748 85.8562 653.23 85.5549C655.881 83.9282 658.592 85.8562 659.677 88.3264C660.641 90.6159 660.4 93.2067 660.159 95.6769C660.038 96.8217 661.846 96.8217 661.966 95.6769C662.328 92.0619 662.569 87.7842 659.677 85.0127C657.628 83.0847 654.797 82.4822 652.387 83.9884C652.808 84.1692 653.29 84.3499 653.712 84.5307C652.085 78.5057 646.904 73.6857 640.578 73.0832C634.071 72.4204 627.805 76.4572 625.274 82.4219C625.636 82.3014 625.937 82.1207 626.298 82.0002C621.478 80.0722 616.417 82.1207 613.284 86.0972C610.935 89.0494 608.886 93.8092 612.079 96.8819C612.802 97.6652 614.068 96.3999 613.224 95.5564Z" fill="#E8E8E8"/>
<path d="M647.506 104.413C654.917 103.57 659.255 111.342 660.4 117.608C661.605 124.055 660.46 130.502 659.797 136.948C658.773 146.649 659.436 158.337 668.654 164.001C669.618 164.603 670.582 163.037 669.558 162.434C656.965 154.722 662.207 137.551 662.689 125.742C663.051 116.765 659.496 101.28 647.506 102.606C646.361 102.726 646.361 104.534 647.506 104.413Z" fill="#E8E8E8"/>
<path d="M678.655 153.818C673.233 167.495 667.871 181.172 662.448 194.788C662.026 195.873 663.774 196.355 664.195 195.27C669.618 181.593 674.98 167.917 680.403 154.3C680.824 153.216 679.077 152.794 678.655 153.818Z" fill="#E8E8E8"/>
<path d="M679.5 154.963C688.899 154.481 698.237 154.722 707.576 155.806C707.275 155.445 706.974 155.023 706.733 154.662C702.274 168.941 698.659 183.401 695.767 198.042C695.526 199.186 697.273 199.668 697.514 198.524C700.406 183.883 704.082 169.423 708.48 155.144C708.661 154.541 708.179 154.059 707.636 153.999C698.298 152.914 688.959 152.673 679.56 153.155C678.355 153.216 678.355 155.023 679.5 154.963Z" fill="#E8E8E8"/>
<path d="M662.87 196.536C668.413 196.777 673.896 197.078 679.439 197.439C684.801 197.741 690.525 197.62 695.586 199.669C696.67 200.09 697.153 198.343 696.068 197.921C691.248 195.933 685.765 196.053 680.644 195.752C674.74 195.391 668.835 195.089 662.87 194.788C661.726 194.668 661.726 196.475 662.87 196.536Z" fill="#E8E8E8"/>
<path d="M680.342 160.988C686.126 161.108 691.91 161.53 697.634 162.313C698.779 162.494 699.261 160.747 698.116 160.566C692.211 159.723 686.307 159.241 680.342 159.12C679.137 159.12 679.137 160.928 680.342 160.988Z" fill="#E8E8E8"/>
<path d="M678.595 165.085C681.848 164.964 685.102 165.025 688.355 165.326C689.5 165.446 689.5 163.639 688.355 163.518C685.102 163.217 681.848 163.097 678.595 163.277C677.45 163.338 677.45 165.145 678.595 165.085Z" fill="#E8E8E8"/>
<path d="M674.619 173.219C681.547 172.797 688.115 172.194 694.923 173.881C696.068 174.183 696.55 172.435 695.405 172.134C688.416 170.447 681.728 170.989 674.619 171.411C673.414 171.471 673.414 173.279 674.619 173.219Z" fill="#E8E8E8"/>
<path d="M674.92 178.521C678.897 178.219 682.873 178.219 686.85 178.581C687.995 178.701 687.995 176.894 686.85 176.773C682.873 176.412 678.897 176.412 674.92 176.713C673.776 176.834 673.715 178.641 674.92 178.521Z" fill="#E8E8E8"/>
<path d="M671.787 185.51C677.21 185.148 682.512 185.329 687.874 186.052C689.019 186.233 689.019 184.425 687.874 184.244C682.512 183.521 677.15 183.341 671.787 183.702C670.643 183.762 670.643 185.57 671.787 185.51Z" fill="#E8E8E8"/>
<path d="M371.983 104.654C374.393 107.908 377.888 109.233 381.443 110.86C385.66 112.788 389.516 115.379 392.649 118.813C399.759 126.465 402.108 136.767 402.289 146.95C402.711 166.049 396.264 186.052 404.94 204.127C405.422 205.151 406.989 204.247 406.507 203.223C397.409 184.184 405.482 162.856 403.916 142.853C403.253 134.177 400.783 125.681 395.18 118.933C392.529 115.74 389.275 112.969 385.66 110.92C381.623 108.631 376.382 107.606 373.55 103.75C372.887 102.847 371.321 103.75 371.983 104.654Z" fill="#E8E8E8"/>
<path d="M351.377 79.1685C349.811 77.1802 349.931 75.7945 351.739 75.0112C352.522 74.5895 353.305 74.2882 354.209 74.1075C355.354 73.8665 356.619 73.8062 357.824 73.8665C361.439 74.0472 365.114 75.0112 364.933 79.4095C364.753 84.591 363.789 89.7122 362.523 94.713C361.198 99.8342 359.571 104.835 357.824 109.836C357.463 110.92 357.161 112.185 356.619 113.21C355.535 115.077 353.847 115.017 352.04 115.017C349.811 115.017 346.979 115.318 344.81 114.716C342.4 114.053 341.858 111.643 344.208 110.077C345.292 109.354 346.798 109.233 348.064 109.233C349.69 109.233 351.136 109.595 352.522 108.51C355.173 106.462 355.595 100.919 356.197 97.9665C357.101 93.6887 358.607 88.447 358.306 84.109C358.065 80.7952 354.811 80.6747 352.462 79.289C351.437 78.6865 350.534 80.253 351.558 80.8555C353.426 81.94 356.137 82.0605 356.498 84.5307C356.92 87.4227 355.715 91.339 355.173 94.231C354.631 97.0025 354.028 99.774 353.305 102.485C352.763 104.534 352.522 107.004 349.811 107.546C348.726 107.787 347.401 107.426 346.256 107.606C343.364 108.028 340.532 110.077 340.954 113.33C341.496 117.427 346.377 116.704 349.389 116.825C353.125 116.945 356.86 117.487 358.547 113.511C360.656 108.57 362.162 103.148 363.608 98.0267C365.114 92.7247 366.259 87.242 366.681 81.7592C367.042 77.4815 367.223 74.0472 362.463 72.9025C358.306 71.8782 352.582 71.3962 349.329 74.7702C347.16 76.9995 347.702 81.3977 351.437 81.0965C352.522 80.8555 352.522 79.048 351.377 79.1685Z" fill="#E8E8E8"/>
<path d="M344.087 85.6152C344.027 85.555 343.966 85.4947 343.906 85.4345C343.665 85.1935 343.304 85.1332 343.002 85.1935C341.255 85.796 340.592 88.6277 340.11 90.1942C339.267 93.0862 339.086 96.0385 339.508 99.051C339.628 100.196 341.436 100.196 341.315 99.051C341.074 96.9422 341.014 94.8937 341.376 92.785C341.556 91.7005 343.424 87.483 342.761 86.8805C343.605 87.724 344.87 86.4587 344.087 85.6152Z" fill="#E8E8E8"/>
<path d="M338.002 78.9877C332.459 86.0369 328.905 94.5322 331.254 103.57C331.556 104.714 333.303 104.232 333.002 103.088C330.833 94.7732 334.207 86.7599 339.268 80.2529C339.991 79.3492 338.725 78.0839 338.002 78.9877Z" fill="#E8E8E8"/>
<path d="M330.41 70.854C321.192 82.9642 316.854 98.2677 318.421 113.451C318.541 114.595 320.349 114.595 320.228 113.451C318.722 98.569 322.879 83.6872 331.977 71.7577C332.64 70.854 331.073 69.9502 330.41 70.854Z" fill="#E8E8E8"/>
<path d="M317.577 132.43C312.938 134.659 308.6 137.732 305.166 141.588C301.671 145.564 300.587 149.842 300.044 155.023C298.839 166.892 294.441 179.906 282.512 184.907C281.427 185.329 281.909 187.076 282.994 186.654C292.513 182.678 298.056 173.64 300.406 163.88C301.792 158.036 301.129 151.107 304.202 145.865C307.335 140.503 312.998 136.587 318.481 133.936C319.565 133.514 318.662 131.948 317.577 132.43Z" fill="#E8E8E8"/>
<path d="M257.026 216.9C253.05 217.02 248.531 215.333 247.085 211.236C245.398 206.416 249.013 201.717 252.869 199.247C260.34 194.427 270.402 192.559 279.078 192.438C283.476 192.378 288.477 192.438 292.333 194.788C297.273 197.801 298.117 203.464 294.261 207.742C288.416 214.249 278.355 214.912 270.281 215.514C269.136 215.574 269.136 217.382 270.281 217.322C278.355 216.719 287.392 215.996 293.899 210.574C299.864 205.633 300.286 197.439 293.297 193.161C286.067 188.763 275.041 190.209 267.208 191.896C259.677 193.523 249.374 196.475 246 204.247C242.506 212.2 249.194 218.828 257.147 218.587C258.231 218.647 258.231 216.84 257.026 216.9Z" fill="#E8E8E8"/>
<path d="M256.725 217.623C255.218 220.033 253.772 222.443 252.266 224.793C251.784 225.576 252.748 226.419 253.531 226.058C257.207 224.07 261.183 222.804 264.919 221.057C266.967 220.153 268.955 219.069 270.883 217.864C271.546 217.442 272.329 217.201 272.51 216.358C272.631 215.936 272.39 215.333 271.908 215.273C271.847 215.273 271.787 215.273 271.727 215.213C271.305 215.153 270.703 215.333 270.642 215.815C270.642 215.876 270.642 215.876 270.642 215.936C270.401 217.081 272.149 217.563 272.39 216.418C272.39 216.358 272.39 216.358 272.39 216.297C272.028 216.478 271.667 216.719 271.305 216.9C271.365 216.9 271.426 216.9 271.486 216.96C271.305 216.599 271.064 216.237 270.883 215.876C270.703 216.478 267.329 217.864 266.606 218.286C264.798 219.25 262.93 220.033 261.002 220.816C258.171 221.961 255.399 223.045 252.748 224.491C253.17 224.913 253.592 225.335 254.013 225.757C255.52 223.347 256.966 220.937 258.472 218.587C258.894 217.563 257.327 216.659 256.725 217.623Z" fill="#E8E8E8"/>
<path d="M258.713 207.2C258.653 207.079 258.653 206.838 258.834 206.838C259.316 206.838 258.773 207.441 258.713 207.501C258.412 207.682 257.388 207.923 257.448 207.32C257.508 206.597 258.894 205.814 259.135 206.898C259.195 207.2 258.954 207.561 258.653 207.621C258.472 207.682 258.352 207.682 258.231 207.561C258.171 207.501 258.05 207.441 258.171 207.441C259.316 207.501 259.316 205.693 258.171 205.633C256.966 205.513 256.062 206.778 256.363 207.923C256.665 209.067 257.99 209.67 259.075 209.369C260.159 209.067 261.003 208.103 261.003 206.959C261.003 205.814 260.099 204.85 259.075 204.609C256.845 204.067 254.496 207.32 256.424 208.947C257.99 210.272 261.123 209.067 260.942 206.838C260.822 205.633 259.496 204.669 258.291 205.091C257.086 205.513 256.604 207.019 257.207 208.103C257.689 209.128 259.255 208.224 258.713 207.2Z" fill="#E8E8E8"/>
<path d="M272.028 205.573C271.968 205.211 271.787 204.729 272.149 204.428C272.329 204.247 272.631 204.247 272.872 204.247C273.474 204.368 273.354 205.031 272.932 205.332C272.691 205.513 272.45 205.513 272.269 205.272C272.088 205.031 272.149 204.97 272.329 204.85C272.45 204.79 272.088 204.85 272.39 204.79C273.113 204.669 271.908 205.513 272.088 204.91C271.727 206.055 273.474 206.477 273.836 205.392C274.137 204.308 273.113 203.223 272.028 203.404C270.763 203.645 270.462 205.151 271.245 206.055C271.968 206.898 273.293 206.718 273.836 205.754C274.378 204.79 274.016 203.524 272.932 203.163C271.847 202.801 270.642 203.464 270.401 204.549C270.1 205.754 270.944 206.959 272.149 207.26C274.318 207.742 276.125 204.79 274.559 203.163C273.775 202.38 272.51 202.319 271.546 202.741C270.221 203.404 270.16 204.79 270.401 206.055C270.462 207.2 272.209 206.718 272.028 205.573Z" fill="#E8E8E8"/>
<path d="M285.404 201.536C285.645 201.536 285.886 201.597 286.187 201.597V201.536C286.247 201.476 286.247 201.356 286.307 201.295C286.368 201.175 286.548 201.054 286.669 200.994C286.97 200.874 287.271 200.874 287.452 201.175C287.693 201.657 287.271 202.561 286.669 202.199C286.307 201.958 286.247 201.356 286.789 201.476C286.91 201.476 286.97 201.536 287.03 201.597C287.03 201.597 287.03 201.717 287.03 201.597C287.03 201.476 287.03 201.657 286.97 201.657C286.789 201.777 286.729 201.898 286.548 201.777C286.127 201.476 285.524 201.717 285.283 202.079C285.042 202.561 285.223 203.043 285.584 203.344C287.332 204.609 289.681 202.079 288.296 200.392C287.03 198.885 284.319 199.849 284.44 201.838C284.5 202.862 285.283 203.766 286.247 204.007C287.211 204.248 288.235 203.766 288.778 202.922C289.983 201.054 288.296 198.464 286.066 199.187C285.042 199.548 284.138 200.572 284.259 201.717C284.379 202.982 286.187 203.645 286.85 202.38C287.452 201.416 285.946 200.512 285.404 201.536Z" fill="#E8E8E8"/>
<path d="M321.795 148.998C329.205 144.901 335.652 139.479 341.015 132.911C341.738 132.008 340.472 130.742 339.749 131.646C334.508 138.093 328.181 143.395 320.891 147.432C319.867 147.974 320.77 149.541 321.795 148.998Z" fill="#E8E8E8"/>
<path d="M411.929 150.565C410.604 158.156 410.061 165.808 410.423 173.52C410.483 174.665 412.291 174.665 412.23 173.52C411.869 165.989 412.351 158.457 413.676 151.047C413.857 149.902 412.11 149.42 411.929 150.565Z" fill="#E8E8E8"/>
<path d="M402.711 326.675C402.711 317.457 407.049 308.721 414.459 303.178C415.363 302.515 414.459 300.949 413.556 301.611C405.603 307.516 400.963 316.734 400.963 326.675C400.903 327.82 402.711 327.82 402.711 326.675Z" fill="#E8E8E8"/>
<path d="M503.63 569.965C504.594 578.641 506.101 588.16 508.511 598.463C511.764 612.381 515.922 624.551 520.079 634.794C518.934 635.818 515.5 638.53 510.439 638.891C507.245 639.132 504.715 638.349 503.269 637.806C501.1 630.275 498.991 622.443 497.063 614.309C493.087 597.559 490.195 581.593 488.086 566.711C493.328 567.796 498.509 568.88 503.63 569.965Z" fill="#080F1F"/>
<path d="M638.892 564.301C638.108 572.917 636.783 582.497 634.554 592.8C631.421 607.38 627.263 620.033 623.046 630.697C623.648 631.239 627.083 634.493 632.385 634.252C636.964 634.071 639.916 631.36 640.639 630.697C642.025 623.407 643.35 616.056 644.676 608.706C647.568 592.619 650.158 576.773 652.629 561.108C648.05 562.132 643.471 563.217 638.892 564.301Z" fill="#080F1F"/>
<path d="M531.164 540.262C532.55 549.48 534.176 558.999 536.044 568.76C538.755 582.919 541.828 596.415 545.082 609.188C543.696 610.031 540.924 611.417 537.129 611.658C533.935 611.839 531.405 611.116 529.959 610.573C528.151 602.018 526.404 593.342 524.657 584.666C521.464 568.579 518.511 552.733 515.68 537.068C520.861 538.093 525.982 539.177 531.164 540.262Z" fill="#080F1F"/>
<path d="M616.177 538.454C614.551 547.552 613.105 557.071 611.839 566.952C610.092 580.569 608.887 593.583 608.164 605.994C609.188 606.657 611.598 608.043 615.033 608.224C618.708 608.344 621.419 606.898 622.443 606.296C621.841 599.186 621.6 591.293 621.961 582.858C622.684 564.121 626.119 547.974 629.914 535.261C625.335 536.285 620.756 537.37 616.177 538.454Z" fill="#080F1F"/>
<path d="M723.241 336.858C733.785 355.656 725.651 376.442 705.889 428.076C696.37 452.899 678.958 498.508 654.376 563.518C630.215 572.315 590.209 583.16 540.744 579.726C512.005 577.737 487.905 571.532 469.649 565.145C466.938 560.265 457.539 542.009 464.588 524.296C468.504 514.475 476.397 507.426 493.147 499.111C509.655 490.917 538.756 479.409 581.051 477.301C564.483 394.818 592.86 327.218 637.024 311.613C666.004 301.431 708.721 311.01 723.241 336.858Z" fill="white" stroke="#080F1F" stroke-width="2" stroke-miterlimit="10"/>
<path d="M719.386 343.666C701.913 365.778 697.937 395.481 691.249 422.051C684.079 450.489 675.825 478.867 663.473 505.558C656.665 520.198 648.652 534.297 639.072 547.311C638.409 548.275 639.976 549.179 640.639 548.215C657.449 525.32 669.318 499.352 678.476 472.601C687.754 445.368 693.9 417.291 701.13 389.516C705.227 373.731 710.468 357.945 720.711 344.991C721.374 344.027 720.109 342.762 719.386 343.666Z" fill="#080F1F"/>
<path d="M470.011 552.071C510.197 566.832 553.999 571.17 596.295 564.603C608.405 562.735 620.395 559.964 632.143 556.349C633.228 555.987 632.806 554.24 631.661 554.601C590.691 567.254 546.709 569.182 504.775 560.265C493.147 557.795 481.639 554.421 470.493 550.324C469.408 549.902 468.926 551.649 470.011 552.071Z" fill="#080F1F"/>
<path d="M611.478 504.714C621.6 508.028 630.215 514.716 635.999 523.753C636.602 524.717 638.168 523.813 637.566 522.849C631.541 513.45 622.564 506.461 611.96 502.967C610.815 502.605 610.333 504.353 611.478 504.714Z" fill="#080F1F"/>
<path d="M430.245 582.738C435.065 589.968 439.885 597.258 444.644 604.488C413.796 632.203 409.82 640.096 412.109 642.024C416.688 645.82 449.525 628.95 452.899 627.202C465.129 620.936 474.348 614.851 480.493 610.513C478.324 604.609 475.432 597.981 471.456 590.992C466.214 581.774 460.43 574.002 454.947 567.676C446.693 572.616 438.439 577.677 430.245 582.738Z" fill="#080F1F"/>
<path d="M610.513 440.729C612.682 445.428 614.971 452.116 615.333 460.19C615.875 472.36 611.899 482.06 608.886 487.664C607.259 489.772 604.367 493.267 600.09 497.063C600.09 497.063 590.389 505.618 574.965 512.185C559.24 518.933 513.51 527.067 451.393 528.634C453.2 536.346 456.454 545.805 462.238 555.987C465.431 561.59 468.925 566.531 472.36 570.809C470.07 573.821 463.563 581.473 450.609 586.293C438.138 590.932 426.69 590.39 422.171 590.028C415.664 584.064 408.977 576.954 402.771 568.459C384.515 543.335 380.237 519.054 379.454 503.449C383.973 500.195 390.6 495.737 399.276 490.977C417.351 481.036 433.92 475.614 447.537 471.577C470.974 464.708 493.387 459.949 544.961 451.212C561.108 448.501 583.461 444.766 610.513 440.729Z" fill="white" stroke="#080F1F" stroke-width="2" stroke-miterlimit="10"/>
<path opacity="0.19" d="M553.275 451.092C551.528 462.599 546.587 477.541 531.284 486.82C516.402 495.857 503.93 492.182 474.107 499.412C452.658 504.594 424.28 511.462 416.387 526.705C408.133 542.732 423.738 565.326 451.031 583.883C453.32 583.581 456.212 582.979 459.285 581.774C467.178 578.641 471.034 573.52 472.48 571.29C468.985 567.073 465.37 562.193 462.057 556.589C455.791 546.106 452.417 536.345 450.489 528.453C482.421 527.127 509.232 524.356 529.597 521.705C554.119 518.511 571.109 515.318 587.316 506.16C600.873 498.508 606.295 490.977 608.223 488.085C614.067 479.228 614.549 471.155 614.79 466.636C615.393 455.61 611.778 446.633 608.765 440.97C590.269 444.344 571.772 447.718 553.275 451.092Z" fill="#0F243F"/>
<path opacity="0.19" d="M609.368 442.235C608.163 453.441 603.886 471.155 586.835 485.133C576.351 493.749 565.085 497.605 520.861 509.534C501.34 514.776 477.722 520.982 450.851 527.73C485.012 527.368 512.788 524.537 532.73 521.825C553.396 518.994 563.518 516.523 574.002 512.005C583.943 507.727 604.006 499.051 612.2 480.795C620.093 463.082 612.14 447.175 609.368 442.235Z" fill="#0F243F"/>
<path opacity="0.22" d="M451.031 528.634C450.79 536.587 451.152 545.684 452.658 555.686C454.104 565.567 456.454 574.424 458.984 582.135C461.033 580.93 463.383 579.304 465.672 577.316C468.444 574.906 470.492 572.616 471.998 570.628C468.504 566.049 464.949 560.747 461.635 554.782C456.273 545.142 453.08 536.225 451.031 528.634Z" fill="#0F243F"/>
<path d="M448.261 617.321C452.9 626.419 457.479 635.517 462.118 644.675C432.475 679.499 428.619 689.38 430.848 691.79C435.247 696.61 466.818 675.342 470.071 673.173C481.82 665.28 490.737 657.629 496.641 652.206C494.533 644.795 491.761 636.481 487.905 627.624C482.904 616.056 477.301 606.296 472.059 598.282C464.106 604.669 456.153 610.995 448.261 617.321Z" fill="#080F1F"/>
<path d="M621.539 438.861C623.648 444.826 625.817 453.14 626.178 463.323C626.721 478.626 622.865 490.797 619.973 497.846C618.406 500.497 615.635 504.895 611.538 509.715C611.538 509.715 602.259 520.5 587.438 528.754C572.315 537.189 528.332 547.492 468.685 549.42C470.432 559.12 473.505 570.989 479.108 583.762C482.181 590.812 485.555 597.017 488.869 602.38C486.7 606.175 480.434 615.755 467.962 621.84C455.972 627.685 445.007 627.022 440.608 626.48C434.342 619.009 427.896 610.031 421.991 599.367C404.398 567.796 400.301 537.249 399.578 517.668C403.916 513.631 410.303 507.968 418.617 502.003C436.029 489.531 451.875 482.663 465.01 477.602C487.483 468.986 509.113 463.021 558.698 451.996C574.002 448.561 595.571 443.922 621.539 438.861Z" fill="white" stroke="#080F1F" stroke-width="2" stroke-miterlimit="10"/>
<path opacity="0.19" d="M566.531 451.875C564.844 466.335 560.084 485.073 545.383 496.761C531.104 508.149 519.054 503.509 490.435 512.607C469.829 519.114 442.536 527.79 434.945 546.95C426.992 567.073 441.994 595.511 468.203 618.768C470.432 618.406 473.203 617.623 476.156 616.117C483.747 612.2 487.422 605.754 488.808 602.922C485.434 597.62 481.94 591.474 478.746 584.425C472.721 571.23 469.468 559 467.66 549.058C498.388 547.371 524.115 543.937 543.756 540.623C567.374 536.647 583.642 532.61 599.246 521.102C612.26 511.462 617.502 502.003 619.31 498.388C624.913 487.242 625.395 477.12 625.636 471.456C626.178 457.599 622.744 446.332 619.852 439.223C602.078 443.38 584.304 447.597 566.531 451.875Z" fill="#0F243F"/>
<path opacity="0.19" d="M620.394 440.729C619.249 454.767 615.152 477.06 598.764 494.653C588.642 505.497 577.858 510.318 535.381 525.32C516.583 531.947 493.929 539.72 468.082 548.215C500.918 547.733 527.669 544.238 546.829 540.804C566.711 537.249 576.472 534.176 586.473 528.513C596.053 523.091 615.273 512.245 623.226 489.23C630.757 466.938 623.105 446.995 620.394 440.729Z" fill="#0F243F"/>
<path opacity="0.22" d="M468.263 549.359C468.022 559.361 468.384 570.809 469.83 583.341C471.276 595.812 473.445 606.898 475.915 616.538C477.903 614.972 480.132 612.984 482.362 610.453C485.013 607.441 487.001 604.549 488.447 602.078C485.073 596.294 481.639 589.667 478.506 582.136C473.324 570.086 470.191 558.819 468.263 549.359Z" fill="#0F243F"/>
<path d="M444.826 345.233C443.682 344.69 441.392 343.666 441.452 342.521C441.573 340.654 447.779 339.388 452.418 339.449C455.551 339.449 461.335 340.111 468.083 344.811C461.757 346.799 452.418 348.607 444.826 345.233Z" fill="white" stroke="#080F1F" stroke-width="2" stroke-miterlimit="10"/>
<path d="M589.728 267.088C578.28 265.582 567.977 282.753 567.013 284.32C563.519 290.284 563.097 294.261 560.687 305.166C554.843 331.736 551.71 345.232 543.034 353.366C535.201 360.656 526.043 362.404 523.633 362.765C513.331 364.392 503.992 360.536 485.796 352.764C470.433 346.196 468.565 343.786 460.19 342.822C455.912 342.34 443.441 340.955 435.186 348.968C429.884 354.089 427.535 362.283 429.463 363.97C431.933 366.139 442.055 358.487 442.175 358.668C442.236 358.789 439.163 360.235 436.632 363.368C435.367 364.874 433.198 368.128 433.981 368.971C435.367 370.658 443.862 360.415 453.201 362.223C459.588 363.428 460.793 369.212 468.203 370.296C472.541 370.959 476.337 369.634 478.747 368.489C482.965 373.068 489.833 379.575 499.774 384.877C505.679 388.01 526.525 398.795 552.011 392.529C579.063 385.901 592.68 364.754 596.958 358.126C599.368 354.33 617.081 326.013 608.526 294.261C607.019 289.14 601.537 268.655 589.728 267.088Z" fill="white" stroke="#080F1F" stroke-width="2" stroke-miterlimit="10"/>
<path opacity="0.25" d="M588.522 267.269C584.606 269.317 592.198 283.536 591.234 303.901C590.33 323.482 581.955 337.942 578.22 344.57C573.159 353.427 566.471 364.994 553.156 372.526C535.261 382.648 513.089 381.142 497.304 374.273C492.604 372.225 487.845 365.597 477.482 361.56C472.963 359.813 469.408 359.09 465.251 358.246C455.069 356.258 446.031 354.451 437.656 358.668C433.68 360.717 430.366 363.85 430.607 364.271C430.848 364.693 435.487 362.343 439.584 360.114C434.644 366.682 433.861 368.549 434.222 368.911C434.644 369.272 436.15 367.886 440.006 365.717C444.163 363.428 447.176 361.801 450.851 362.102C452.719 362.283 454.165 362.886 455.008 363.247C458.322 364.693 459.105 366.38 462.419 368.067C464.468 369.092 466.155 369.513 467.058 369.694C468.986 370.116 472.963 370.658 478.205 368.79C482.784 373.61 503.811 394.939 534.599 394.517C550.444 394.276 562.073 388.372 566.652 386.022C591.776 372.948 601.777 349.751 604.308 343.365C612.14 323.603 614.912 294.321 600.572 275.945C597.138 271.486 591.234 265.883 588.522 267.269Z" fill="#0F243F"/>
<path d="M430.547 363.97C432.897 360.476 435.969 357.704 439.645 355.716C440.428 355.294 439.705 354.15 438.982 354.571C435.126 356.68 431.872 359.632 429.402 363.308C428.86 364.031 430.065 364.693 430.547 363.97Z" fill="#080F1F"/>
<path d="M431.27 356.198C433.62 352.523 437.416 350.595 441.211 348.727C441.995 348.366 441.332 347.161 440.549 347.582C436.512 349.51 432.535 351.619 430.065 355.535C429.643 356.258 430.788 356.921 431.27 356.198Z" fill="#080F1F"/>
<path opacity="0.29" d="M605.814 288.959C604.91 295.044 603.284 303.841 600.392 314.204C594.728 334.689 589.607 353.125 576.231 367.766C559.663 385.841 537.189 390.781 524.296 392.288C533.876 394.517 541.407 394.095 546.167 393.432C582.317 388.371 601.838 349.51 607.14 332.52C608.043 329.507 609.971 323.301 610.212 314.806C610.634 303.479 607.863 294.381 605.814 288.959Z" fill="#0F243F"/>
<path opacity="0.26" d="M454.406 361.5C457.841 363.187 462.54 365.055 468.324 366.139C472.903 366.983 477 367.164 480.253 367.043C471.999 371.441 467.721 370.899 465.311 369.453C463.805 368.549 462.118 366.742 457.479 363.549C456.214 362.645 455.129 361.922 454.406 361.5Z" fill="#0F243F"/>
<path d="M332.58 460.551C332.58 489.471 332.58 518.451 332.58 547.371C332.58 550.866 338.003 550.866 338.003 547.371C338.003 518.451 338.003 489.471 338.003 460.551C338.003 457.117 332.58 457.057 332.58 460.551Z" fill="#080F1F"/>
<path d="M431.148 459.406C431.148 464.046 431.148 468.685 431.148 473.324C431.148 476.819 436.571 476.819 436.571 473.324C436.571 468.685 436.571 464.046 436.571 459.406C436.571 455.912 431.148 455.912 431.148 459.406Z" fill="#080F1F"/>
<path d="M257.749 456.996C286.97 429.462 316.192 401.868 345.473 374.333C392.769 375.177 440.005 376.02 487.302 376.864C479.59 403.615 471.878 430.306 464.166 457.057C395.36 456.996 326.555 456.996 257.749 456.996Z" fill="white" stroke="#080F1F" stroke-width="2" stroke-miterlimit="10"/>
<path d="M259.497 460.129C312.336 460.129 365.115 460.129 417.954 460.129C432.776 460.129 447.537 460.129 462.359 460.129C465.853 460.129 465.853 454.707 462.359 454.707C409.519 454.707 356.74 454.707 303.901 454.707C289.08 454.707 274.318 454.707 259.497 454.707C256.002 454.707 256.002 460.129 259.497 460.129Z" fill="#080F1F"/>
<path d="M274.98 459.226C274.98 519.174 274.98 579.123 274.98 639.012C274.98 655.821 274.98 672.571 274.98 689.381C274.98 692.875 280.403 692.875 280.403 689.381C280.403 629.432 280.403 569.483 280.403 509.595C280.403 492.785 280.403 476.035 280.403 459.226C280.403 455.731 274.98 455.731 274.98 459.226Z" fill="#080F1F"/>
<path d="M440.246 459.226C440.246 519.174 440.246 579.123 440.246 639.012C440.246 655.821 440.246 672.571 440.246 689.381C440.246 692.875 445.669 692.875 445.669 689.381C445.669 629.432 445.669 569.483 445.669 509.595C445.669 492.785 445.669 476.035 445.669 459.226C445.669 455.731 440.246 455.731 440.246 459.226Z" fill="#080F1F"/>
<path d="M277.692 571.11C320.229 571.11 362.765 571.11 405.302 571.11C417.352 571.11 429.402 571.11 441.452 571.11C444.946 571.11 444.946 565.687 441.452 565.687C398.915 565.687 356.379 565.687 313.842 565.687C301.792 565.687 289.742 565.687 277.692 565.687C274.198 565.687 274.198 571.11 277.692 571.11Z" fill="#080F1F"/>
<path d="M486.578 376.864C479.71 403.675 471.817 430.245 462.78 456.394C461.996 458.623 465.491 459.527 466.274 457.358C475.312 431.149 483.204 404.639 490.073 377.828C490.615 375.598 487.181 374.634 486.578 376.864Z" fill="#080F1F"/>
<path d="M198.101 695.285C230.094 695.285 262.027 695.285 294.019 695.285C297.514 695.285 297.514 689.862 294.019 689.862C262.027 689.862 230.094 689.862 198.101 689.862C194.607 689.862 194.607 695.285 198.101 695.285Z" fill="#080F1F"/>
<path d="M307.456 694.08C314.806 694.08 322.217 694.08 329.568 694.08C333.062 694.08 333.062 688.657 329.568 688.657C322.217 688.657 314.806 688.657 307.456 688.657C303.961 688.657 303.961 694.08 307.456 694.08Z" fill="#080F1F"/>
<path d="M403.374 694.863C432.173 694.863 460.973 694.863 489.833 694.863C493.327 694.863 493.327 689.441 489.833 689.441C461.033 689.441 432.234 689.441 403.374 689.441C399.879 689.441 399.879 694.863 403.374 694.863Z" fill="#080F1F"/>
<path d="M509.534 692.935C514.655 692.935 519.777 692.935 524.958 692.935C528.453 692.935 528.453 687.513 524.958 687.513C519.837 687.513 514.715 687.513 509.534 687.513C506.039 687.513 506.039 692.935 509.534 692.935Z" fill="#080F1F"/>
<path d="M169.061 676.186C181.533 676.186 194.005 676.186 206.416 676.186C209.911 676.186 209.911 670.763 206.416 670.763C193.945 670.763 181.473 670.763 169.061 670.763C165.567 670.763 165.567 676.186 169.061 676.186Z" fill="#080F1F"/>
<path d="M432.595 445.609C395.42 444.645 358.186 443.741 321.012 442.777C343.063 421.69 365.054 400.542 387.106 379.454C412.531 380.78 438.017 382.105 463.443 383.431C453.14 404.217 442.897 424.883 432.595 445.609Z" fill="white" stroke="#080F1F" stroke-width="2" stroke-miterlimit="10"/>
<path d="M385.841 379.033C364.211 399.939 342.581 420.906 320.951 441.813C319.987 408.314 318.963 374.755 317.999 341.256C339.93 327.398 361.861 313.541 383.792 299.683C384.395 326.133 385.118 352.583 385.841 379.033Z" fill="white" stroke="#080F1F" stroke-width="2" stroke-miterlimit="10"/>
<path d="M319.987 344.449C321.735 374.273 322.879 404.157 323.482 434.041C323.482 434.643 324.386 434.643 324.386 434.041C323.783 404.157 322.638 374.273 320.891 344.449C320.831 343.907 319.927 343.907 319.987 344.449Z" fill="#080F1F"/>
<path d="M320.469 344.57C340.653 331.435 360.837 318.301 381.021 305.166C381.503 304.865 381.081 304.082 380.539 304.383C360.355 317.517 340.171 330.652 319.987 343.786C319.505 344.148 319.927 344.931 320.469 344.57Z" fill="#080F1F"/>
<path d="M380.78 305.106C380.72 329.146 381.443 353.246 383.009 377.225C383.069 377.828 383.973 377.828 383.913 377.225C382.407 353.185 381.623 329.146 381.684 305.106C381.684 304.564 380.78 304.564 380.78 305.106Z" fill="#080F1F"/>
<path d="M324.084 435.306C343.846 416.207 363.668 397.108 383.43 378.069C383.852 377.647 383.189 377.044 382.768 377.406C363.006 396.505 343.183 415.604 323.421 434.643C323.06 435.065 323.662 435.728 324.084 435.306Z" fill="#080F1F"/>
<path d="M415.604 425.064C419.279 419.22 422.954 413.315 426.509 407.35C426.81 406.868 426.027 406.386 425.726 406.868C422.171 412.833 418.496 418.738 414.821 424.582C414.459 425.064 415.242 425.546 415.604 425.064Z" fill="#080F1F"/>
<path d="M426.268 407.169C431.028 407.35 435.788 407.35 440.548 407.109C441.15 407.109 441.15 406.205 440.548 406.205C435.788 406.386 431.028 406.386 426.268 406.266C425.666 406.266 425.666 407.169 426.268 407.169Z" fill="#080F1F"/>
<path d="M439.945 406.868C437.234 412.773 434.463 418.677 431.691 424.582C431.45 425.124 432.233 425.546 432.474 425.064C435.246 419.159 438.017 413.255 440.728 407.35C440.969 406.748 440.186 406.326 439.945 406.868Z" fill="#080F1F"/>
<path d="M415.303 425.546C420.605 426.329 426.208 425.967 431.571 425.726C432.173 425.726 432.173 424.823 431.571 424.823C426.329 425.064 420.786 425.425 415.544 424.702C414.942 424.582 414.701 425.485 415.303 425.546Z" fill="#080F1F"/>
<path d="M435.065 406.928C432.655 412.953 429.883 418.798 426.75 424.461C426.449 424.943 427.232 425.425 427.534 424.943C430.667 419.159 433.498 413.255 435.969 407.169C436.149 406.627 435.306 406.386 435.065 406.928Z" fill="#080F1F"/>
<path d="M347.763 434.222C361.018 417.834 374.754 401.807 388.913 386.142C389.275 385.72 388.672 385.058 388.251 385.479C374.092 401.084 360.355 417.111 347.1 433.559C346.738 434.041 347.401 434.643 347.763 434.222Z" fill="#080F1F"/>
<path d="M363.788 435.246C375.658 418.677 388.19 402.651 401.324 387.106C401.686 386.684 401.083 386.022 400.661 386.443C387.467 402.048 374.935 418.135 363.005 434.764C362.644 435.246 363.427 435.728 363.788 435.246Z" fill="#080F1F"/>
<path d="M381.021 437.716C391.324 420.485 402.59 403.856 414.761 387.889C415.122 387.407 414.339 386.986 413.978 387.407C401.807 403.374 390.54 420.003 380.238 437.234C379.936 437.716 380.72 438.198 381.021 437.716Z" fill="#080F1F"/>
<path d="M395.481 439.222C405.603 420.364 417.592 402.59 431.329 386.202C431.691 385.781 431.088 385.118 430.667 385.54C416.869 401.988 404.819 419.822 394.637 438.74C394.396 439.283 395.179 439.765 395.481 439.222Z" fill="#080F1F"/>
<path d="M355.474 424.461C370.898 422.835 386.322 424.763 401.686 426.811C402.288 426.871 402.228 425.967 401.686 425.907C386.382 423.859 370.958 421.871 355.474 423.558C354.932 423.618 354.932 424.521 355.474 424.461Z" fill="#080F1F"/>
<path d="M363.247 415.665C377.827 415.122 392.408 416.207 406.747 418.978C407.289 419.099 407.53 418.195 406.988 418.135C392.588 415.363 377.887 414.279 363.247 414.821C362.704 414.761 362.704 415.665 363.247 415.665Z" fill="#080F1F"/>
<path d="M370.236 407.169C384.274 406.266 398.313 407.531 411.989 410.905C412.532 411.025 412.773 410.182 412.23 410.061C398.493 406.627 384.395 405.362 370.236 406.266C369.634 406.326 369.634 407.23 370.236 407.169Z" fill="#080F1F"/>
<path d="M377.465 398.674C390.961 398.735 404.337 400.12 417.532 402.832C418.074 402.952 418.315 402.048 417.773 401.988C404.518 399.277 391.022 397.891 377.465 397.831C376.923 397.771 376.923 398.674 377.465 398.674Z" fill="#080F1F"/>
<path d="M384.635 390.781C397.469 391.022 410.242 392.529 422.713 395.36C423.256 395.481 423.497 394.637 422.954 394.517C410.362 391.685 397.529 390.119 384.635 389.938C384.033 389.878 384.033 390.781 384.635 390.781Z" fill="#080F1F"/>
<path d="M425.967 399.939C420.063 408.615 414.218 417.291 408.314 425.967C408.013 426.449 408.796 426.931 409.097 426.449C415.002 417.773 420.846 409.097 426.75 400.421C427.112 399.879 426.329 399.457 425.967 399.939Z" fill="#080F1F"/>
<path d="M548.456 296.069C531.947 314.385 527.489 334.508 525.079 345.895C520.68 366.983 525.32 375.418 525.621 415.484C525.741 432.535 525.018 446.332 524.476 455.008C528.212 457.9 551.348 475.132 582.256 469.468C605.151 465.311 618.948 450.971 623.286 446.091C624.31 440.367 625.756 431.932 627.443 421.69C636.36 366.441 640.759 338.424 635.216 318.361C631.902 306.191 623.708 286.911 600.451 266.968C590.691 269.016 567.254 275.282 548.456 296.069Z" fill="#0F243F"/>
<path opacity="0.19" d="M565.265 284.983C570.989 302.094 574.062 316.734 575.869 327.459C580.629 355.837 587.799 398.373 567.615 439.584C561.168 452.719 553.637 462.359 548.335 468.323C555.324 469.95 569.181 472.179 585.69 467.902C605.331 462.841 617.622 451.453 622.683 446.272C626.6 423.859 629.733 404.639 632.143 389.637C636.3 363.247 637.264 355.234 636.842 343.967C636.36 329.507 635.697 314.324 627.021 297.936C618.707 282.271 607.018 272.872 599.849 268.052C594.004 269.076 585.75 271.246 577.014 276.307C572.194 279.199 568.278 282.271 565.265 284.983Z" fill="#0F243F"/>
<path opacity="0.18" d="M633.71 313.722C632.625 313.782 634.915 330.471 631.36 353.487C624.793 396.084 603.705 425.606 595.571 436.09C588.763 444.826 578.099 456.876 562.494 468.745C568.097 469.589 575.568 469.95 584.124 468.323C604.428 464.528 617.322 452.056 622.262 446.694C623.527 439.343 625.576 427.835 628.167 413.616C634.252 380.358 635.457 376.382 636.421 366.019C639.072 337.762 634.975 313.722 633.71 313.722Z" fill="#0F243F"/>
<path d="M442.295 358.487C441.15 357.704 438.861 356.258 439.102 355.053C439.584 353.125 446.512 352.824 451.513 353.667C454.887 354.21 461.033 355.957 467.479 362.042C460.249 363.066 449.826 363.368 442.295 358.487Z" fill="white" stroke="#080F1F" stroke-width="2" stroke-miterlimit="10"/>
<path d="M612.381 300.768C600.27 297.213 586.112 313.541 584.846 315.108C580.026 320.831 578.882 324.928 574.363 336.014C563.397 363.127 557.674 376.804 546.829 383.913C537.128 390.3 526.946 390.541 524.235 390.541C512.848 390.48 503.449 384.817 485.133 373.49C469.709 363.91 468.142 361.018 459.225 358.608C454.707 357.403 441.452 353.788 431.149 360.837C424.582 365.296 420.545 373.61 422.352 375.719C424.642 378.43 436.933 372.044 436.993 372.285C437.053 372.405 433.438 373.43 430.185 376.322C428.558 377.707 425.666 380.72 426.329 381.804C427.534 383.853 438.499 374.454 448.26 377.948C454.887 380.298 455.249 386.624 463.021 389.095C467.6 390.541 471.938 389.757 474.71 388.974C478.445 394.577 484.771 402.591 494.532 409.881C500.376 414.219 520.982 429.161 549.6 426.932C579.966 424.582 598.403 404.519 604.126 398.313C607.44 394.758 631.48 367.826 627.805 332.761C627.262 327.037 624.913 304.504 612.381 300.768Z" fill="white" stroke="#080F1F" stroke-width="2" stroke-miterlimit="10"/>
<path opacity="0.25" d="M611.056 300.768C606.477 302.274 612.2 318.602 607.561 339.991C603.163 360.536 591.595 374.393 586.353 380.72C579.304 389.215 570.086 400.301 554.36 405.964C533.273 413.556 509.595 408.194 493.749 398.252C489.049 395.24 485.073 387.468 474.529 381.382C469.95 378.731 466.275 377.406 461.877 375.779C451.273 371.923 441.753 368.429 432.053 371.501C427.414 372.947 423.256 375.719 423.497 376.201C423.738 376.743 429.101 374.996 433.921 373.369C427.474 379.454 426.269 381.322 426.57 381.804C426.932 382.286 428.86 381.021 433.378 379.454C438.319 377.707 441.753 376.562 445.73 377.526C447.718 378.008 449.164 378.912 450.068 379.454C453.381 381.503 453.924 383.491 457.177 385.841C459.165 387.287 460.973 388.01 461.937 388.371C463.925 389.155 468.143 390.42 474.107 389.335C478.204 395.24 497.183 421.389 530.501 426.209C547.673 428.679 561.229 424.461 566.591 422.714C595.993 413.194 610.875 390.42 614.731 384.094C626.66 364.573 634.794 334.086 622.503 312.155C619.611 306.672 614.189 299.744 611.056 300.768Z" fill="#0F243F"/>
<path d="M423.437 375.9C426.63 372.586 430.366 370.176 434.704 368.73C435.547 368.429 435.186 367.164 434.342 367.405C429.824 368.971 425.787 371.502 422.473 374.936C421.87 375.599 422.834 376.563 423.437 375.9Z" fill="#080F1F"/>
<path d="M425.606 367.826C428.799 364.271 433.258 362.886 437.716 361.621C438.56 361.38 438.198 360.054 437.355 360.295C432.715 361.681 428.016 363.187 424.702 366.862C424.039 367.525 425.003 368.429 425.606 367.826Z" fill="#080F1F"/>
<path opacity="0.29" d="M625.937 326.676C623.889 332.942 620.575 341.979 615.695 352.463C605.994 373.128 597.258 391.746 580.207 404.94C559.18 421.208 533.996 422.594 519.837 421.931C529.778 425.968 538.032 426.811 543.274 426.932C583.16 427.775 611.116 389.998 619.792 373.008C621.298 369.995 624.431 363.729 626.238 354.812C628.588 342.823 627.202 332.761 625.937 326.676Z" fill="#0F243F"/>
<path opacity="0.26" d="M449.706 377.346C453.08 379.696 457.84 382.467 463.925 384.636C468.745 386.323 473.143 387.167 476.638 387.588C466.938 390.782 462.419 389.516 460.069 387.588C458.623 386.383 457.117 384.154 452.598 379.997C451.453 378.852 450.429 377.948 449.706 377.346Z" fill="#0F243F"/>
<path d="M518.993 179.244C518.33 183.1 517.667 186.956 517.125 190.992C514.775 207.38 513.811 222.865 513.751 237.264C517.065 236.903 520.318 236.541 523.632 236.24C523.27 239.433 522.246 251.122 529.717 262.69C536.766 273.595 546.889 277.572 550.022 278.656C549.66 284.561 549.359 290.405 548.997 296.309C555.504 290.525 564.361 283.717 575.628 277.632C584.244 272.993 592.377 269.799 599.306 267.63C591.534 257.99 588.582 248.893 587.316 243.651C585.147 234.613 585.569 226.841 585.991 219.973C586.412 212.923 587.437 207.079 588.341 202.982C591.172 190.089 583.762 169.664 569 162.313C554.42 155.023 532.669 161.169 518.993 179.244Z" fill="white" stroke="#080F1F" stroke-width="2" stroke-miterlimit="10"/>
<path d="M522.247 236.662C523.934 236.421 525.681 236.24 527.368 236.059C527.971 235.999 527.971 235.095 527.368 235.156C525.561 235.336 523.813 235.577 522.006 235.818C521.464 235.818 521.705 236.722 522.247 236.662Z" fill="#080F1F"/>
<path d="M576.592 188.583C569.302 190.45 567.976 196.777 558.758 209.971C549.419 223.347 543.515 231.722 532.971 236.602C526.163 239.735 522.789 238.891 519.776 242.928C514.595 249.917 518.089 261.425 521.162 267.329C524.717 274.138 530.139 278.235 534.598 281.609C538.875 284.802 542.792 286.911 545.563 288.176C542.611 283.657 542.43 282.271 542.792 281.85C543.756 280.886 547.853 286.067 552.673 285.404C554.058 285.224 556.529 284.44 562.011 275.825C565.747 269.98 568.277 265.944 569.964 260.16C573.64 247.748 568.458 244.374 569.964 228.046C570.205 225.576 571.892 206.236 578.761 204.971C581.231 204.489 583.762 206.537 584.967 208.104C587.497 211.417 587.196 216.719 584.063 221.298C585.087 220.575 594.908 213.948 594.787 203.163C594.787 201.476 594.727 195.27 590.028 191.234C584.665 186.655 577.194 188.462 576.592 188.583Z" fill="#080F1F" stroke="#080F1F" stroke-width="2" stroke-miterlimit="10"/>
<path d="M528.031 215.996C529.428 215.996 530.561 213.973 530.561 211.477C530.561 208.982 529.428 206.959 528.031 206.959C526.633 206.959 525.5 208.982 525.5 211.477C525.5 213.973 526.633 215.996 528.031 215.996Z" fill="#080F1F"/>
<path d="M508.75 218.105C510.148 218.105 511.281 216.082 511.281 213.586C511.281 211.091 510.148 209.068 508.75 209.068C507.353 209.068 506.22 211.091 506.22 213.586C506.22 216.082 507.353 218.105 508.75 218.105Z" fill="#080F1F"/>
<path d="M504.955 206.176C506.582 204.308 509.112 204.127 510.92 205.935C511.763 206.778 513.028 205.453 512.185 204.669C509.715 202.259 505.919 202.32 503.629 204.91C502.967 205.814 504.232 207.079 504.955 206.176Z" fill="#080F1F"/>
<path d="M524.717 203.043C526.826 201.295 529.597 201.536 531.405 203.524C532.188 204.368 533.453 203.103 532.67 202.259C530.14 199.548 526.223 199.427 523.392 201.777C522.548 202.5 523.813 203.766 524.717 203.043Z" fill="#080F1F"/>
<path d="M516.944 186.414C517.607 182.076 519.294 174.966 523.933 167.616C525.56 165.025 529.055 159.542 534.598 155.807C545.202 148.757 561.529 149.3 573.399 157.976C585.027 166.471 590.811 181.654 588.28 196.716C564.482 193.342 540.743 189.908 516.944 186.414Z" fill="#0F243F"/>
<path d="M478.023 186.956C514.595 191.655 551.227 196.355 587.798 200.994C591.233 201.416 591.233 195.993 587.798 195.571C551.227 190.872 514.595 186.172 478.023 181.533C474.589 181.051 474.589 186.474 478.023 186.956Z" fill="#080F1F"/>
<path d="M547.913 151.408C557.312 153.457 564.422 161.048 565.627 170.146C566.711 178.099 563.217 186.173 556.589 191.113C567.012 192.499 577.496 193.945 587.919 195.331C588.461 192.559 588.943 188.342 588.281 183.401C586.714 171.833 580.026 164.422 577.857 162.193C575.508 159.783 567.193 151.71 554.842 150.987C552.01 150.866 549.6 151.107 547.913 151.408Z" fill="#0F243F"/>
</svg>
