<svg width="1000" height="751" viewBox="0 0 1000 751" fill="none" xmlns="http://www.w3.org/2000/svg">
<path d="M233.062 629.213C293.25 629.213 353.5 629.213 413.688 629.213C430.688 629.213 447.75 629.213 464.75 629.213C465.937 629.213 465.937 627.335 464.75 627.335C404.562 627.335 344.313 627.335 284.125 627.335C267.125 627.335 250.062 627.335 233.062 627.335C231.875 627.335 231.875 629.213 233.062 629.213Z" fill="#E8E8E8"/>
<path d="M476.875 629.213C538.375 629.213 599.812 629.213 661.312 629.213C678.75 629.213 696.187 629.213 713.625 629.213C714.812 629.213 714.812 627.335 713.625 627.335C652.125 627.335 590.687 627.335 529.188 627.335C511.75 627.335 494.312 627.335 476.875 627.335C475.688 627.335 475.688 629.213 476.875 629.213Z" fill="#E8E8E8"/>
<path d="M521.438 646.423C569.688 646.423 617.875 646.423 666.125 646.423C667.313 646.423 667.313 644.546 666.125 644.546C617.875 644.546 569.688 644.546 521.438 644.546C520.187 644.546 520.187 646.423 521.438 646.423Z" fill="#E8E8E8"/>
<path d="M372.688 650.491C400.688 650.491 428.688 650.491 456.688 650.491C457.875 650.491 457.875 648.614 456.688 648.614C428.688 648.614 400.688 648.614 372.688 648.614C371.5 648.614 371.5 650.491 372.688 650.491Z" fill="#E8E8E8"/>
<path d="M746 628.211C768.25 628.211 790.5 628.211 812.75 628.211C813.938 628.211 813.938 626.334 812.75 626.334C790.5 626.334 768.25 626.334 746 626.334C744.812 626.334 744.812 628.211 746 628.211Z" fill="#E8E8E8"/>
<path d="M259.376 509.866C267.376 523.823 269.063 540.657 264.063 555.928C263.876 556.428 264.251 556.929 264.688 557.054C266.563 557.68 268.501 558.494 269.813 559.933C271.501 561.811 271.876 565.566 269.001 566.692C268.438 566.942 267.938 567.756 268.563 568.257C273.438 572.074 274.001 578.458 274.376 584.215C274.751 589.911 275.313 595.543 276.688 601.05C279.376 611.69 284.626 621.578 293.438 628.274C294.376 629.025 295.313 627.398 294.376 626.647C284.626 619.262 279.626 607.684 277.501 595.919C275.813 586.781 278.063 573.389 269.813 566.942C269.688 567.443 269.563 568.006 269.376 568.507C272.001 567.443 273.313 564.752 272.751 561.936C272.001 558.243 268.313 556.303 265.001 555.239C265.188 555.615 265.438 555.99 265.626 556.366C270.813 540.595 269.001 523.197 260.751 508.865C260.376 507.864 258.751 508.803 259.376 509.866Z" fill="#E8E8E8"/>
<path d="M259.938 508.364C272.688 516.187 282.876 527.202 291.251 539.468C295.313 545.351 299.001 551.547 302.438 557.805C305.313 563.062 311.876 572.45 306.438 578.02C305.938 578.52 306.188 579.396 306.876 579.584C311.126 580.711 312.876 585.53 314.438 589.222C316.063 593.102 317.376 597.107 318.376 601.175C320.501 609.624 321.376 618.323 321.001 627.022C320.938 628.211 322.813 628.211 322.876 627.022C323.251 617.009 322.126 606.996 319.251 597.358C317.938 592.977 316.376 588.659 314.376 584.591C312.876 581.524 310.813 578.708 307.376 577.769C307.501 578.27 307.626 578.833 307.813 579.334C312.438 574.64 309.876 567.756 307.251 562.687C303.438 555.239 299.251 547.98 294.626 541.033C285.688 527.515 274.813 515.249 260.876 506.737C259.876 506.111 258.938 507.739 259.938 508.364Z" fill="#E8E8E8"/>
<path d="M260.813 508.928C289.313 542.034 307.438 583.527 312.313 626.96C312.438 628.149 314.313 628.149 314.188 626.96C310.313 592.727 298.375 559.495 279.5 530.707C274.188 522.633 268.375 514.936 262.063 507.613C261.313 506.675 260 508.052 260.813 508.928Z" fill="#E8E8E8"/>
<path d="M266.188 553.362C281.876 560.183 295.063 571.636 304.001 586.218C304.626 587.219 306.251 586.281 305.626 585.279C296.563 570.447 283.126 558.681 267.126 551.735C266.063 551.297 265.126 552.861 266.188 553.362Z" fill="#E8E8E8"/>
<path d="M290.875 538.029C291.375 544.663 292.125 551.171 293.313 557.743C293.5 558.932 295.313 558.431 295.125 557.242C294 550.858 293.25 544.475 292.75 538.029C292.625 536.84 290.75 536.84 290.875 538.029Z" fill="#E8E8E8"/>
<path d="M274.626 587.783C289.063 594.291 301.688 604.367 311.188 617.072C311.876 618.01 313.501 617.072 312.813 616.133C303.126 603.178 290.376 592.852 275.563 586.155C274.501 585.717 273.563 587.282 274.626 587.783Z" fill="#E8E8E8"/>
<path d="M299.563 548.668C299.375 533.273 301.813 518.002 306.688 503.42C306.25 503.608 305.75 503.796 305.313 503.984C306.438 504.547 307.5 505.11 308.625 505.611C309.25 505.924 310 505.548 310.063 504.797C310.313 495.285 313.063 486.21 318.188 478.199C317.625 478.137 317.063 478.074 316.5 477.949C320.75 490.09 325 502.169 329.25 514.31C331.313 520.193 333.375 526.013 335.438 531.896C337 536.339 343.438 549.044 335.25 550.42C334.5 550.546 334.375 551.547 334.813 551.985C339.125 556.616 340.75 562.812 341.563 568.945C342.375 575.266 342.5 581.65 342.25 587.97C341.688 601.238 338.938 614.255 334.188 626.647C333.75 627.773 335.563 628.274 336 627.148C341.063 613.943 343.875 599.861 344.188 585.717C344.438 574.265 344.5 559.62 336.125 550.733C336 551.234 335.875 551.797 335.688 552.298C340.5 551.484 341.688 546.353 340.813 542.159C339.25 534.962 335.938 527.828 333.5 520.881C328.438 506.424 323.313 491.968 318.25 477.448C318 476.697 317 476.51 316.563 477.198C311.25 485.459 308.375 494.909 308.188 504.735C308.688 504.484 309.125 504.171 309.625 503.921C308.5 503.358 307.438 502.795 306.313 502.294C305.75 501.981 305.125 502.231 304.938 502.857C300 517.627 297.563 533.022 297.75 548.606C297.688 549.857 299.563 549.857 299.563 548.668Z" fill="#E8E8E8"/>
<path d="M314.688 479.889C324.5 528.641 317.813 578.771 325.875 627.711C326.063 628.9 327.875 628.399 327.688 627.21C319.688 578.27 326.375 528.078 316.5 479.388C316.25 478.199 314.438 478.7 314.688 479.889Z" fill="#E8E8E8"/>
<path d="M300.563 519.755C304.25 537.654 312.438 554.05 320.563 570.322C321.125 571.386 322.75 570.447 322.188 569.383C314.125 553.299 306.063 537.028 302.375 519.317C302.125 518.065 300.313 518.566 300.563 519.755Z" fill="#E8E8E8"/>
<path d="M331.938 520.005C327.375 528.641 323.688 537.716 320.813 547.041C320.437 548.167 322.25 548.668 322.625 547.541C325.438 538.342 329.125 529.455 333.563 520.944C334.125 519.88 332.5 518.941 331.938 520.005Z" fill="#E8E8E8"/>
<path d="M608.563 626.647C610.376 610.938 612.188 595.23 614.001 579.522C613.688 579.835 613.376 580.148 613.063 580.46C614.938 580.335 616.376 580.711 617.938 581.9C618.563 582.401 619.501 582.088 619.563 581.211C619.751 577.769 619.876 574.39 620.063 570.948C619.688 571.261 619.251 571.574 618.876 571.824C623.438 572.638 625.876 568.382 627.563 564.877C630.126 559.495 633.376 554.801 637.126 550.233C643.938 541.972 651.688 533.898 654.251 523.134C653.626 523.134 653.063 523.134 652.438 523.134C655.938 534.211 659.563 545.476 660.125 557.179C660.563 566.191 659.563 579.271 649.688 583.152C649.126 583.402 648.813 583.965 649.126 584.528C654.563 594.667 640.376 601.551 634.188 606.558C627.251 612.19 621.563 619.2 617.313 627.022C616.751 628.086 618.376 629.025 618.938 627.961C624.376 618.01 631.938 610.188 641.188 603.741C647.563 599.298 655.25 592.038 650.751 583.59C650.563 584.028 650.376 584.528 650.188 584.966C659.313 581.337 661.813 570.76 662.063 561.873C662.376 548.418 658.251 535.338 654.251 522.633C654.001 521.757 652.688 521.695 652.438 522.633C650.126 532.459 643.251 539.969 636.938 547.479C634.001 550.984 631.126 554.551 628.751 558.431C626.813 561.685 624.251 570.885 619.313 570.009C618.688 569.884 618.188 570.259 618.126 570.885C617.938 574.327 617.813 577.707 617.626 581.149C618.188 580.898 618.688 580.711 619.251 580.46C617.376 578.958 615.438 578.333 613.001 578.458C612.438 578.52 612.126 578.833 612.063 579.397C610.251 595.105 608.438 610.813 606.626 626.522C606.563 627.836 608.438 627.836 608.563 626.647Z" fill="#E8E8E8"/>
<path d="M652.375 525.637C651.313 543.411 648 561.498 638.5 576.831C633.875 584.341 627.75 590.912 622.812 598.234C618.062 605.244 614.5 612.941 612 621.015C611.625 622.141 613.437 622.642 613.812 621.515C616.562 612.691 620.625 604.43 626 596.92C631.25 589.598 637.313 582.901 641.75 575.016C650.125 559.996 653.187 542.66 654.187 525.637C654.312 524.448 652.438 524.448 652.375 525.637Z" fill="#E8E8E8"/>
<path d="M631.688 555.615C631.813 564.376 633.126 573.013 635.688 581.399C636.063 582.526 637.876 582.088 637.501 580.899C635.001 572.7 633.688 564.251 633.563 555.615C633.501 554.426 631.626 554.363 631.688 555.615Z" fill="#E8E8E8"/>
<path d="M647.625 561.748C652.562 559.432 656.937 556.241 660.687 552.298C661.5 551.422 660.187 550.108 659.375 550.984C655.687 554.801 651.5 557.868 646.687 560.121C645.562 560.622 646.562 562.249 647.625 561.748Z" fill="#E8E8E8"/>
<path d="M640.813 627.147C640.25 620.263 639.5 613.379 638.625 606.558C638.5 605.369 636.563 605.369 636.75 606.558C637.625 613.379 638.375 620.263 638.938 627.147C639 628.337 640.875 628.337 640.813 627.147Z" fill="#E8E8E8"/>
<path d="M662.438 550.045C669.251 537.153 675.063 523.697 679.813 509.867C679.188 509.867 678.626 509.867 678.001 509.867C681.563 524.448 685.063 539.03 688.626 553.612C688.813 553.237 689.063 552.861 689.251 552.486C686.751 553.237 684.251 553.988 681.751 554.739C681.313 554.864 681.063 555.239 681.063 555.615C680.938 557.117 681.751 557.993 682.876 558.869C685.501 561.06 686.188 562.812 686.001 566.254C685.813 569.383 685.501 572.45 685.251 575.516C685.063 577.895 685.188 584.028 681.501 583.84C680.938 583.84 680.376 584.466 680.626 585.029C683.438 592.852 680.313 600.925 676.626 607.872C673.001 614.694 668.563 621.015 663.438 626.835C662.626 627.711 663.938 629.088 664.751 628.149C670.438 621.703 675.376 614.568 679.251 606.871C682.688 599.987 685.188 592.101 682.501 584.528C682.188 584.904 681.876 585.342 681.626 585.718C687.501 586.03 687.126 576.956 687.438 573.201C687.688 569.759 688.438 566.004 687.876 562.562C687.688 561.435 687.313 560.371 686.626 559.495C685.688 558.306 683.001 557.242 683.126 555.615C682.876 555.928 682.688 556.241 682.438 556.491C684.938 555.74 687.438 554.989 689.938 554.238C690.438 554.113 690.688 553.612 690.563 553.112C687.001 538.53 683.501 523.948 679.938 509.366C679.688 508.427 678.438 508.552 678.126 509.366C673.438 523.072 667.751 536.277 660.938 549.106C660.251 550.17 661.876 551.109 662.438 550.045Z" fill="#E8E8E8"/>
<path d="M677.375 513.934C683.25 551.422 657 583.652 650.25 619.074C650 620.263 651.813 620.764 652.063 619.575C658.875 583.715 685.125 551.422 679.188 513.434C679 512.245 677.188 512.745 677.375 513.934Z" fill="#E8E8E8"/>
<path d="M664.625 540.908C666.063 548.355 667.438 555.803 668.875 563.313C669.125 564.502 670.938 564.001 670.688 562.812C669.25 555.365 667.875 547.917 666.438 540.407C666.188 539.218 664.438 539.719 664.625 540.908Z" fill="#E8E8E8"/>
<path d="M676 550.483C678.875 546.29 682.125 542.41 685.688 538.78C686.563 537.904 685.188 536.59 684.375 537.466C680.688 541.158 677.375 545.226 674.375 549.544C673.688 550.546 675.313 551.484 676 550.483Z" fill="#E8E8E8"/>
<path d="M171.563 451.852C217.563 441.713 265.813 442.902 311.25 455.419C334.438 461.802 356.313 471.753 378.688 480.515C400.75 489.151 423.313 496.348 446.313 502.106C472 508.552 498.125 513.183 524.5 516C525.688 516.125 525.688 514.247 524.5 514.122C476.75 508.99 429.625 497.788 384.688 480.765C362 472.191 340 461.865 316.75 454.981C294.688 448.472 271.813 444.655 248.813 443.528C222.75 442.214 196.563 444.467 171.125 450.037C169.938 450.287 170.438 452.102 171.563 451.852Z" fill="#E8E8E8"/>
<path d="M421.563 479.701C470.813 491.842 522 486.773 571.188 476.885C621.875 466.684 671.438 451.101 722.563 443.09C751.563 438.521 781.063 436.581 810.375 439.523C811.563 439.648 811.563 437.77 810.375 437.645C759.125 432.513 708.125 442.464 658.5 454.355C608.5 466.371 558.75 480.515 507.25 484.207C478.688 486.21 449.938 484.833 422.063 477.949C420.875 477.573 420.375 479.388 421.563 479.701Z" fill="#E8E8E8"/>
<path d="M272.75 398.969C302.375 393.023 331.75 402.661 360.188 409.921C389 417.306 418.313 420.685 448 417.744C477.5 414.802 506 406.416 534.875 400.033C564.688 393.399 595 388.83 625.438 386.452C659.188 383.761 693.125 383.761 726.938 386.327C728.125 386.39 728.125 384.512 726.938 384.449C666.938 379.943 606.375 383.636 547.375 395.527C517.688 401.535 488.563 410.422 458.5 414.677C427.813 418.995 397 417.118 366.938 409.796C336 402.223 304.375 390.77 272.188 397.217C271.063 397.342 271.563 399.157 272.75 398.969Z" fill="#E8E8E8"/>
<path d="M584.313 360.417C617.688 363.86 650.688 356.475 683 349.027C699.5 345.21 716.063 341.392 732.813 338.889C750.125 336.323 767.688 335.384 785.188 336.198C804.938 337.136 824.5 340.203 843.625 345.397C844.813 345.71 845.313 343.895 844.125 343.583C810.688 334.508 775.625 331.817 741.25 335.885C707.688 339.828 675.313 350.029 642.063 355.661C623 358.915 603.688 360.48 584.375 358.477C583.125 358.415 583.125 360.292 584.313 360.417Z" fill="#E8E8E8"/>
<path d="M181.375 362.733C206.563 367.114 231.375 358.29 256.438 356.913C282.875 355.411 309.188 359.729 335.125 364.047C336.313 364.235 336.813 362.42 335.625 362.232C310.25 358.039 284.625 353.846 258.813 354.91C233.188 355.974 207.563 365.424 181.813 360.918C180.688 360.73 180.188 362.545 181.375 362.733Z" fill="#E8E8E8"/>
<path d="M298.125 717.205C328 717.205 357.875 717.205 387.812 717.205C389 717.205 389 715.328 387.812 715.328C357.938 715.328 328.062 715.328 298.125 715.328C296.938 715.328 296.938 717.205 298.125 717.205Z" fill="#080F1F"/>
<path d="M367.687 729.096C395.437 729.096 423.188 729.096 450.938 729.096C452.125 729.096 452.125 727.218 450.938 727.218C423.188 727.218 395.437 727.218 367.687 727.218C366.5 727.218 366.5 729.096 367.687 729.096Z" fill="#080F1F"/>
<path d="M225.875 714.451C210.312 714.451 194.75 714.451 179.187 714.451C178 714.451 178 716.329 179.187 716.329C194.75 716.329 210.312 716.329 225.875 716.329C227.062 716.329 227.062 714.451 225.875 714.451Z" fill="#080F1F"/>
<path d="M431.75 682.409C480.563 682.409 529.375 682.409 578.125 682.409C579.313 682.409 579.313 680.531 578.125 680.531C529.313 680.531 480.5 680.531 431.75 680.531C430.563 680.531 430.5 682.409 431.75 682.409Z" fill="#080F1F"/>
<path d="M666 668.64C684.313 668.64 702.625 668.64 720.875 668.64C722.063 668.64 722.063 666.763 720.875 666.763C702.563 666.763 684.25 666.763 666 666.763C664.75 666.763 664.75 668.64 666 668.64Z" fill="#080F1F"/>
<path d="M761.125 675.086C789.188 675.086 817.25 675.086 845.312 675.086C846.5 675.086 846.5 673.209 845.312 673.209C817.25 673.209 789.188 673.209 761.125 673.209C759.937 673.209 759.937 675.086 761.125 675.086Z" fill="#080F1F"/>
<path d="M211.437 658.502C211.187 662.069 211 665.574 210.75 669.141C208.812 669.704 206.812 670.33 204.875 670.894C205.187 673.397 205.562 675.9 205.875 678.404C203.5 678.404 201.125 678.404 198.687 678.404C199.125 682.033 199.625 685.663 200.062 689.293C204.125 689.356 208.25 689.418 212.312 689.543C212.75 692.485 213.25 695.426 213.687 698.368C210.812 698.368 207.812 698.305 204.687 698.117C201 697.93 197.562 697.617 194.312 697.179C194.187 701.059 194 704.876 193.875 708.756C204.125 708.631 214.375 708.444 224.625 708.318C224.937 711.01 225.25 713.701 225.562 716.392C244.625 718.519 266.437 719.271 290.312 717.08C296.875 716.454 303.187 715.703 309.25 714.764C309.25 711.698 309.25 708.569 309.25 705.502C307.062 706.378 304.438 707.192 301.375 707.818C296.25 708.819 291.812 708.819 288.437 708.506C288.812 706.065 289.187 703.562 289.562 701.121C290.062 699.494 290.562 697.491 290.688 695.113C290.812 693.549 290.75 692.172 290.688 690.92C284.75 690.983 278.812 691.045 272.875 691.171C272.75 687.103 272.562 682.972 272.437 678.904C277.937 678.466 283.375 677.965 288.875 677.527C289 675.337 289.187 673.209 289.312 671.019C286.562 670.643 283.75 670.268 281 669.892C280.875 665.699 280.687 661.569 280.562 657.375C257.562 657.751 234.5 658.126 211.437 658.502Z" fill="#0F243F"/>
<path d="M712.875 579.458C712.813 582.024 712.75 584.59 712.688 587.094C718.375 587.469 724.063 587.845 729.75 588.158C729.75 590.536 729.75 592.976 729.75 595.355C727.625 595.855 725.5 596.356 723.438 596.857C723.313 599.61 723.125 602.427 723 605.18C716.375 605.243 709.75 605.305 703.125 605.368C702.938 608.122 702.688 610.938 702.5 613.692C710.313 613.817 718.125 614.004 725.875 614.13C725.875 617.509 725.875 620.826 725.875 624.206C717.938 624.393 710 624.644 702.063 624.831C701.938 628.023 701.75 631.277 701.625 634.469C704.188 634.657 706.75 634.907 709.25 635.095C709.313 637.911 709.375 640.79 709.438 643.606C706 643.919 702.563 644.17 699.188 644.483C699.313 648.175 699.5 651.93 699.625 655.622C703.75 655.56 707.938 655.497 712.063 655.435C712.063 659.377 712.063 663.32 712.063 667.263C721.375 667.764 731.063 668.076 741.125 668.139C756.875 668.202 771.813 667.638 785.75 666.637C786.438 663.633 787.063 660.316 787.5 656.811C788.063 652.368 788.313 648.238 788.375 644.545C790.125 644.232 791.875 643.982 793.625 643.669C793.688 640.978 793.75 638.287 793.813 635.596C789.438 635.533 785.063 635.471 780.688 635.408C780.875 631.841 781.125 628.273 781.313 624.706C787.938 624.518 794.563 624.268 801.188 624.08C801.25 620.951 801.313 617.822 801.375 614.693C795.813 614.693 790.313 614.693 784.75 614.693C784.938 612.127 785.188 609.561 785.375 607.058C791.438 606.682 797.5 606.307 803.5 605.994C803.563 602.865 803.625 599.735 803.688 596.606C806.375 596.606 809.063 596.606 811.75 596.606C811.625 593.79 811.438 590.911 811.313 588.095C804.688 588.22 798.063 588.408 791.438 588.533C791.625 585.091 791.875 581.649 792.063 578.269C784 576.392 774.625 574.89 764.063 574.327C743.438 573.075 725.75 576.079 712.875 579.458Z" fill="#0F243F"/>
<path d="M224.438 708.381C224.501 711.009 224.626 713.7 224.688 716.329C224.688 716.892 225.126 717.205 225.626 717.268C253.188 719.145 280.813 718.957 308.313 716.642C308.688 716.579 309.126 716.391 309.188 715.953C310.001 712.511 310.188 709.194 309.813 705.69C309.688 704.501 307.813 704.501 307.938 705.69C308.313 709.007 308.126 712.198 307.376 715.453C307.688 715.202 308.001 715.015 308.251 714.764C280.751 717.017 253.063 717.268 225.563 715.39C225.876 715.703 226.188 716.016 226.501 716.329C226.438 713.7 226.313 711.009 226.251 708.381C226.251 707.192 224.376 707.192 224.438 708.381Z" fill="#080F1F"/>
<path d="M193.25 696.928C193.25 700.62 193.25 704.313 193.25 708.005C193.25 709.194 195.125 709.194 195.125 708.005C195.125 704.313 195.125 700.62 195.125 696.928C195.125 695.676 193.25 695.676 193.25 696.928Z" fill="#080F1F"/>
<path d="M195.313 709.695C226.25 709.695 257.188 709.695 288.125 709.695C289.313 709.695 289.313 707.817 288.125 707.817C257.188 707.817 226.25 707.817 195.313 707.817C194.125 707.817 194.125 709.695 195.313 709.695Z" fill="#080F1F"/>
<path d="M230.875 709.883C231.125 711.948 231.188 713.951 231.063 716.016C231 717.205 232.875 717.205 232.938 716.016C233.063 713.951 233.063 711.948 232.75 709.883C232.625 708.694 230.75 708.694 230.875 709.883Z" fill="#080F1F"/>
<path d="M236.813 710.133C237.188 711.698 237.25 713.262 237.188 714.827C237.125 716.016 239 716.016 239.063 714.827C239.188 713.075 239.063 711.322 238.625 709.633C238.375 708.506 236.563 709.007 236.813 710.133Z" fill="#080F1F"/>
<path d="M289.375 708.631C290 706.19 290.312 703.687 290.25 701.121C290.25 699.932 288.375 699.932 288.375 701.121C288.437 703.499 288.187 705.815 287.562 708.13C287.25 709.257 289.062 709.758 289.375 708.631Z" fill="#080F1F"/>
<path d="M195.438 698.117C226.313 702.435 257.5 703.249 288.563 700.558C289.75 700.433 289.75 698.555 288.563 698.68C257.688 701.371 226.625 700.62 195.938 696.302C194.75 696.114 194.25 697.929 195.438 698.117Z" fill="#080F1F"/>
<path d="M290.062 709.069C296.25 709.632 302.375 708.881 308.312 707.004C309.437 706.628 308.937 704.814 307.812 705.189C302 707.066 296.125 707.755 290.062 707.192C288.875 707.129 288.875 709.007 290.062 709.069Z" fill="#080F1F"/>
<path d="M278.438 709.883C278.438 712.073 278.438 714.201 278.438 716.391C278.438 717.58 280.313 717.58 280.313 716.391C280.313 714.201 280.313 712.073 280.313 709.883C280.313 708.694 278.438 708.694 278.438 709.883Z" fill="#080F1F"/>
<path d="M292.563 708.631C292.938 710.947 293.251 713.262 293.626 715.515C293.813 716.704 295.626 716.204 295.438 715.015C295.063 712.699 294.751 710.384 294.376 708.131C294.188 706.942 292.438 707.442 292.563 708.631Z" fill="#080F1F"/>
<path d="M301.187 708.255C301.375 709.507 301.25 710.759 300.937 711.948C300.625 713.137 302.437 713.638 302.75 712.449C303.187 710.884 303.25 709.319 303 707.755C302.812 706.566 301 707.066 301.187 708.255Z" fill="#080F1F"/>
<path d="M202.313 698.43C202.438 701.747 202.563 705.064 202.688 708.381C202.751 709.57 204.626 709.57 204.563 708.381C204.438 705.064 204.313 701.747 204.188 698.43C204.126 697.241 202.251 697.241 202.313 698.43Z" fill="#080F1F"/>
<path d="M214.75 699.557C215 702.123 215.25 704.688 215.5 707.192C215.625 708.381 217.5 708.381 217.375 707.192C217.125 704.626 216.875 702.06 216.625 699.557C216.5 698.368 214.625 698.368 214.75 699.557Z" fill="#080F1F"/>
<path d="M221.938 701.121C221.75 702.623 221.875 704.125 222.313 705.565C222.625 706.754 224.438 706.253 224.125 705.064C223.75 703.75 223.688 702.435 223.813 701.121C223.938 699.932 222.063 699.932 221.938 701.121Z" fill="#080F1F"/>
<path d="M211.938 690.044C212 692.985 212.25 695.864 212.75 698.68C212.937 699.869 214.75 699.369 214.562 698.18C214.062 695.488 213.813 692.735 213.813 690.044C213.813 688.792 211.938 688.792 211.938 690.044Z" fill="#080F1F"/>
<path d="M214.063 690.169C239.563 690.67 265.063 691.233 290.563 691.734C290.25 691.483 289.938 691.295 289.688 691.045C290.125 693.674 290.125 696.24 289.813 698.931C289.688 700.12 291.563 700.12 291.688 698.931C292 696.114 291.938 693.361 291.5 690.544C291.438 690.106 291 689.856 290.625 689.856C265.125 689.355 239.625 688.792 214.125 688.292C212.875 688.292 212.875 690.169 214.063 690.169Z" fill="#080F1F"/>
<path d="M197.437 679.154C198.062 682.471 198.5 685.851 198.875 689.23C199 690.419 200.875 690.419 200.75 689.23C200.375 685.663 199.875 682.158 199.25 678.654C199.062 677.465 197.25 677.965 197.437 679.154Z" fill="#080F1F"/>
<path d="M199.5 679.154C211.625 679.905 223.812 679.405 235.937 679.28C248.187 679.217 260.437 679.092 272.687 679.029C272.375 678.716 272.062 678.404 271.75 678.091C271.875 681.282 272 684.474 272.062 687.666C272.125 688.855 274 688.855 273.937 687.666C273.812 684.474 273.687 681.282 273.625 678.091C273.625 677.59 273.187 677.152 272.687 677.152C260.437 677.214 248.187 677.34 235.937 677.402C223.812 677.465 211.625 677.965 199.5 677.277C198.312 677.214 198.312 679.092 199.5 679.154Z" fill="#080F1F"/>
<path d="M200.313 690.482C204.75 690.357 209.25 690.231 213.688 690.106C214.875 690.044 214.875 688.166 213.688 688.229C209.25 688.354 204.75 688.479 200.313 688.604C199.125 688.604 199.063 690.482 200.313 690.482Z" fill="#080F1F"/>
<path d="M203.5 670.768C203.875 673.334 204.25 675.837 204.687 678.403C204.875 679.592 206.687 679.092 206.5 677.903C206.125 675.337 205.75 672.833 205.312 670.268C205.125 669.078 203.312 669.579 203.5 670.768Z" fill="#080F1F"/>
<path d="M205.188 671.269C233.125 667.013 261.563 667.201 289.438 671.957C290.625 672.145 291.125 670.33 289.938 670.143C261.75 665.386 232.938 665.136 204.688 669.454C203.5 669.642 204 671.457 205.188 671.269Z" fill="#080F1F"/>
<path d="M272.188 679.718C276.063 679.53 279.875 679.342 283.75 679.217C285.625 679.155 287.875 679.53 289.125 677.903C289.875 676.964 288.25 676.025 287.5 676.964C286.75 677.965 281.188 677.465 280.125 677.527C277.5 677.652 274.875 677.778 272.25 677.903C270.938 677.903 270.938 679.78 272.188 679.718Z" fill="#080F1F"/>
<path d="M288.25 669.829C287.875 671.707 287.625 673.584 287.562 675.462C287.5 676.651 289.375 676.651 289.437 675.462C289.5 673.709 289.687 672.02 290.062 670.33C290.312 669.141 288.5 668.64 288.25 669.829Z" fill="#080F1F"/>
<path d="M211.812 668.953C211.812 665.386 211.812 661.881 211.812 658.314C211.812 657.125 209.938 657.125 209.938 658.314C209.938 661.881 209.938 665.386 209.938 668.953C209.938 670.205 211.812 670.205 211.812 668.953Z" fill="#080F1F"/>
<path d="M212.375 659.19C235.188 658.064 258.063 657.626 280.875 657.814C282.063 657.814 282.063 655.936 280.875 655.936C258.063 655.748 235.188 656.186 212.375 657.313C211.187 657.375 211.187 659.253 212.375 659.19Z" fill="#080F1F"/>
<path d="M279.938 657.626C280.188 661.193 280.438 664.698 280.688 668.265C280.751 669.454 282.626 669.454 282.563 668.265C282.313 664.698 282.063 661.193 281.813 657.626C281.751 656.374 279.876 656.374 279.938 657.626Z" fill="#080F1F"/>
<path d="M213.937 670.455C214.187 672.771 214.375 675.086 214.625 677.465C214.75 678.654 216.625 678.654 216.5 677.465C216.25 675.149 216.062 672.833 215.812 670.455C215.75 669.266 213.812 669.266 213.937 670.455Z" fill="#080F1F"/>
<path d="M221.688 669.329C221.625 671.269 221.813 673.146 222.188 675.086C222.375 676.275 224.188 675.775 224 674.586C223.688 672.833 223.563 671.081 223.563 669.329C223.563 668.14 221.688 668.14 221.688 669.329Z" fill="#080F1F"/>
<path d="M234.75 680.343C235 682.909 235.187 685.475 235.437 688.041C235.562 689.23 237.437 689.23 237.312 688.041C237.062 685.475 236.875 682.909 236.625 680.343C236.562 679.154 234.687 679.154 234.75 680.343Z" fill="#080F1F"/>
<path d="M242.688 679.592C242.938 682.158 243.125 684.724 243.375 687.29C243.5 688.479 245.375 688.479 245.25 687.29C245 684.724 244.813 682.158 244.563 679.592C244.438 678.403 242.563 678.403 242.688 679.592Z" fill="#080F1F"/>
<path d="M255.751 679.28C256.001 682.221 256.251 685.162 256.501 688.104C256.626 689.293 258.501 689.293 258.376 688.104C258.126 685.162 257.876 682.221 257.626 679.28C257.563 678.028 255.688 678.028 255.751 679.28Z" fill="#080F1F"/>
<path d="M259.375 690.983C259.688 693.924 259.938 696.865 260.25 699.807C260.375 700.996 262.25 700.996 262.125 699.807C261.813 696.865 261.563 693.924 261.25 690.983C261.125 689.794 259.25 689.794 259.375 690.983Z" fill="#080F1F"/>
<path d="M267.5 691.233C267.937 693.924 268 696.678 267.875 699.431C267.812 700.62 269.687 700.62 269.75 699.431C269.937 696.49 269.812 693.611 269.312 690.732C269.125 689.543 267.312 690.044 267.5 691.233Z" fill="#080F1F"/>
<path d="M277.375 690.607C277.625 693.423 277.625 696.24 277.25 699.056C277.125 700.245 279 700.245 279.125 699.056C279.438 696.24 279.5 693.423 279.25 690.607C279.188 689.418 277.313 689.418 277.375 690.607Z" fill="#080F1F"/>
<path d="M248.5 701.622C248.313 703.437 248.188 705.314 248 707.129C247.875 708.318 249.75 708.318 249.875 707.129C250.063 705.314 250.188 703.437 250.375 701.622C250.5 700.433 248.625 700.433 248.5 701.622Z" fill="#080F1F"/>
<path d="M253.25 702.623C253.875 704.125 254.063 705.565 253.875 707.129C253.75 708.318 255.625 708.318 255.75 707.129C255.938 705.377 255.688 703.687 255.063 702.123C254.625 700.996 252.813 701.497 253.25 702.623Z" fill="#080F1F"/>
<path d="M249.437 667.514C249.687 670.455 249.75 673.397 249.812 676.338C249.812 677.527 251.687 677.527 251.687 676.338C251.687 673.397 251.562 670.455 251.312 667.514C251.25 666.325 249.375 666.325 249.437 667.514Z" fill="#080F1F"/>
<path d="M256.875 668.515C257.25 670.518 257.375 672.458 257.25 674.523C257.188 675.712 259.063 675.712 259.125 674.523C259.313 672.333 259.125 670.205 258.688 668.015C258.438 666.826 256.625 667.326 256.875 668.515Z" fill="#080F1F"/>
<path d="M229 657.5C229.75 660.442 229.937 663.383 229.75 666.387C229.625 667.576 231.5 667.576 231.625 666.387C231.875 663.195 231.625 660.066 230.812 657C230.5 655.811 228.687 656.311 229 657.5Z" fill="#080F1F"/>
<path d="M236.687 657.5C237.125 659.941 237.5 662.382 237.937 664.823C238.125 666.012 239.937 665.511 239.75 664.322C239.312 661.881 238.937 659.44 238.5 657C238.312 655.811 236.5 656.311 236.687 657.5Z" fill="#080F1F"/>
<path d="M263.812 657.876C264.187 660.317 264.312 662.82 264.187 665.323C264.125 666.513 266 666.513 266.062 665.323C266.25 662.632 266.062 660.004 265.625 657.375C265.437 656.186 263.625 656.687 263.812 657.876Z" fill="#080F1F"/>
<path d="M711 657.25C711.062 660.88 711.125 664.51 711.187 668.077C711.187 668.578 711.625 669.016 712.125 669.016C727.75 669.141 743.312 669.016 758.937 668.578C766.5 668.39 774.125 668.077 781.687 667.764C783.5 667.702 786.5 668.14 787.562 666.137C788 665.324 787.937 664.072 787.937 663.258C788.062 661.381 788.125 659.441 788.187 657.501C788.25 656.312 786.375 656.312 786.312 657.501C786.25 659.003 786.187 660.567 786.125 662.069C786 664.26 785.812 665.324 783.5 665.762C780.187 666.388 776.437 666.075 773.062 666.2C766.312 666.45 759.5 666.638 752.75 666.826C739.187 667.139 725.625 667.201 712.125 667.076C712.437 667.389 712.75 667.702 713.062 668.015C713 664.385 712.937 660.755 712.875 657.188C712.812 656.061 710.937 656.061 711 657.25Z" fill="#080F1F"/>
<path d="M698 645.297C698.125 648.676 698.25 652.056 698.375 655.498C698.437 656.687 700.312 656.687 700.25 655.498C700.125 652.118 700 648.739 699.875 645.297C699.875 644.108 698 644.108 698 645.297Z" fill="#080F1F"/>
<path d="M699.75 656.812C729.187 656.812 758.625 656.812 788.062 656.812C789.25 656.812 789.25 654.935 788.062 654.935C758.625 654.935 729.187 654.935 699.75 654.935C698.563 654.935 698.563 656.812 699.75 656.812Z" fill="#080F1F"/>
<path d="M700.438 645.234C730 645.234 759.563 645.234 789.063 645.234C790.25 645.234 790.25 643.357 789.063 643.357C759.5 643.357 729.938 643.357 700.438 643.357C699.25 643.357 699.25 645.234 700.438 645.234Z" fill="#080F1F"/>
<path d="M787.438 644.608C787.438 648.363 787.438 652.118 787.438 655.811C787.438 657 789.312 657 789.312 655.811C789.312 652.056 789.312 648.301 789.312 644.608C789.312 643.419 787.438 643.419 787.438 644.608Z" fill="#080F1F"/>
<path d="M710.125 643.92C710.125 641.104 710.125 638.287 710.125 635.471C710.125 634.282 708.25 634.282 708.25 635.471C708.25 638.287 708.25 641.104 708.25 643.92C708.25 645.109 710.125 645.109 710.125 643.92Z" fill="#080F1F"/>
<path d="M709.875 636.41C738.25 636.41 766.625 636.41 795 636.41C796.188 636.41 796.188 634.532 795 634.532C766.625 634.532 738.25 634.532 709.875 634.532C708.687 634.532 708.687 636.41 709.875 636.41Z" fill="#080F1F"/>
<path d="M792.688 635.471C792.688 638.162 792.688 640.853 792.688 643.544C792.688 644.734 794.562 644.734 794.562 643.544C794.562 640.853 794.562 638.162 794.562 635.471C794.562 634.282 792.688 634.282 792.688 635.471Z" fill="#080F1F"/>
<path d="M788.062 644.859C789.812 644.859 791.563 644.859 793.313 644.859C794.5 644.859 794.5 642.981 793.313 642.981C791.563 642.981 789.812 642.981 788.062 642.981C786.813 642.981 786.813 644.859 788.062 644.859Z" fill="#080F1F"/>
<path d="M700.562 625.646C700.562 628.212 700.562 630.778 700.562 633.343C700.562 634.532 702.438 634.532 702.438 633.343C702.438 630.778 702.438 628.212 702.438 625.646C702.438 624.457 700.562 624.457 700.562 625.646Z" fill="#080F1F"/>
<path d="M701.875 625.896C728.375 625.896 754.875 625.896 781.438 625.896C782.625 625.896 782.625 624.019 781.438 624.019C754.938 624.019 728.437 624.019 701.875 624.019C700.625 624.019 700.625 625.896 701.875 625.896Z" fill="#080F1F"/>
<path d="M780.062 625.333C780.062 628.149 780.062 630.965 780.062 633.781C780.062 634.971 781.938 634.971 781.938 633.781C781.938 630.965 781.938 628.149 781.938 625.333C781.938 624.144 780.062 624.081 780.062 625.333Z" fill="#080F1F"/>
<path d="M701.875 635.409C727.937 635.409 753.937 635.409 780 635.409C781.187 635.409 781.187 633.531 780 633.531C753.937 633.531 727.937 633.531 701.875 633.531C700.625 633.531 700.625 635.409 701.875 635.409Z" fill="#080F1F"/>
<path d="M726.625 623.893C726.625 621.202 726.625 618.511 726.625 615.82C726.625 614.631 724.75 614.631 724.75 615.82C724.75 618.511 724.75 621.202 724.75 623.893C724.75 625.145 726.625 625.145 726.625 623.893Z" fill="#080F1F"/>
<path d="M726 616.07C751.125 616.07 776.25 616.07 801.312 616.07C802.5 616.07 802.5 614.193 801.312 614.193C776.188 614.193 751.062 614.193 726 614.193C724.812 614.193 724.812 616.07 726 616.07Z" fill="#080F1F"/>
<path d="M780.688 625.208C786.875 625.208 793.063 625.208 799.25 625.208C800.438 625.208 800.438 623.33 799.25 623.33C793.063 623.33 786.875 623.33 780.688 623.33C779.5 623.33 779.5 625.208 780.688 625.208Z" fill="#080F1F"/>
<path d="M800.438 615.507C800.438 618.198 800.438 620.889 800.438 623.58C800.438 624.769 802.312 624.769 802.312 623.58C802.312 620.889 802.312 618.198 802.312 615.507C802.312 614.318 800.438 614.318 800.438 615.507Z" fill="#080F1F"/>
<path d="M703.625 615.006C730.75 615.006 757.812 615.006 784.937 615.006C786.125 615.006 786.125 613.129 784.937 613.129C757.812 613.129 730.75 613.129 703.625 613.129C702.375 613.129 702.375 615.006 703.625 615.006Z" fill="#080F1F"/>
<path d="M703.812 613.755C703.812 611.314 703.812 608.873 703.812 606.37C703.812 605.181 701.938 605.181 701.938 606.37C701.938 608.811 701.938 611.251 701.938 613.755C701.938 614.944 703.812 614.944 703.812 613.755Z" fill="#080F1F"/>
<path d="M703.25 606.996C730.563 606.996 757.938 606.996 785.25 606.996C786.438 606.996 786.438 605.118 785.25 605.118C757.938 605.118 730.563 605.118 703.25 605.118C702.062 605.118 702.062 606.996 703.25 606.996Z" fill="#080F1F"/>
<path d="M784.625 606.057C784.625 608.31 784.625 610.5 784.625 612.753C784.625 613.942 786.5 613.942 786.5 612.753C786.5 610.5 786.5 608.31 786.5 606.057C786.5 604.805 784.625 604.805 784.625 606.057Z" fill="#080F1F"/>
<path d="M724.188 605.306C724.188 602.615 724.188 599.924 724.188 597.233C724.188 596.044 722.312 596.044 722.312 597.233C722.312 599.924 722.312 602.615 722.312 605.306C722.312 606.558 724.188 606.558 724.188 605.306Z" fill="#080F1F"/>
<path d="M723.938 597.483C750.438 597.483 776.937 597.483 803.5 597.483C804.688 597.483 804.688 595.606 803.5 595.606C777 595.606 750.5 595.606 723.938 595.606C722.687 595.606 722.687 597.483 723.938 597.483Z" fill="#080F1F"/>
<path d="M802.5 596.92C802.5 598.234 802.5 599.486 802.5 600.8C802.5 601.989 804.375 601.989 804.375 600.8C804.375 599.486 804.375 598.234 804.375 596.92C804.375 595.668 802.5 595.668 802.5 596.92Z" fill="#080F1F"/>
<path d="M784.875 606.996C791.062 606.996 797.25 606.996 803.437 606.996C804.625 606.996 804.625 605.118 803.437 605.118C797.25 605.118 791.062 605.118 784.875 605.118C783.688 605.118 783.688 606.996 784.875 606.996Z" fill="#080F1F"/>
<path d="M802.5 597.984C802.5 600.299 802.5 602.678 802.5 604.993C802.5 606.182 804.375 606.182 804.375 604.993C804.375 602.678 804.375 600.299 804.375 597.984C804.375 596.732 802.5 596.732 802.5 597.984Z" fill="#080F1F"/>
<path d="M730.438 595.168C730.438 592.915 730.438 590.724 730.438 588.471C730.438 587.282 728.562 587.282 728.562 588.471C728.562 590.724 728.562 592.915 728.562 595.168C728.562 596.357 730.438 596.357 730.438 595.168Z" fill="#080F1F"/>
<path d="M729.188 589.097C756.375 589.097 783.625 589.097 810.813 589.097C812 589.097 812 587.219 810.813 587.219C783.625 587.219 756.375 587.219 729.188 587.219C728 587.219 727.938 589.097 729.188 589.097Z" fill="#080F1F"/>
<path d="M810.812 589.097C812 589.097 812 587.219 810.812 587.219C809.625 587.219 809.625 589.097 810.812 589.097Z" fill="#080F1F"/>
<path d="M810.562 588.158C810.562 590.411 810.562 592.602 810.562 594.855C810.562 596.044 812.438 596.044 812.438 594.855C812.438 592.602 812.438 590.411 812.438 588.158C812.438 586.907 810.562 586.907 810.562 588.158Z" fill="#080F1F"/>
<path d="M803.125 597.17C805.938 597.17 808.75 597.17 811.563 597.17C812.75 597.17 812.75 595.293 811.563 595.293C808.75 595.293 805.938 595.293 803.125 595.293C801.875 595.293 801.875 597.17 803.125 597.17Z" fill="#080F1F"/>
<path d="M711.75 580.085C711.75 582.526 711.75 584.966 711.75 587.47C711.75 588.659 713.625 588.659 713.625 587.47C713.625 585.029 713.625 582.588 713.625 580.085C713.625 578.833 711.75 578.833 711.75 580.085Z" fill="#080F1F"/>
<path d="M712.688 588.346C719.375 588.346 726 588.346 732.688 588.346C733.875 588.346 733.875 586.468 732.688 586.468C726 586.468 719.375 586.468 712.688 586.468C711.5 586.468 711.5 588.346 712.688 588.346Z" fill="#080F1F"/>
<path d="M712.875 579.897C738.813 574.39 765.625 573.952 791.75 578.645C792.938 578.833 793.438 577.018 792.25 576.831C765.813 572.074 738.688 572.512 712.375 578.082C711.188 578.333 711.688 580.147 712.875 579.897Z" fill="#080F1F"/>
<path d="M791.312 578.333C791.312 580.773 791.312 583.214 791.312 585.717C791.312 586.907 793.187 586.907 793.187 585.717C793.187 583.277 793.187 580.836 793.187 578.333C793.187 577.081 791.312 577.081 791.312 578.333Z" fill="#080F1F"/>
<path d="M718 580.398C722.438 581.775 727.313 581.211 731.875 581.149C737 581.086 742.125 580.961 747.25 580.899C757.688 580.711 768.125 580.523 778.563 580.398C779.75 580.398 779.75 578.52 778.563 578.52C768.5 578.708 758.5 578.833 748.438 579.021C743.5 579.084 738.625 579.209 733.688 579.271C728.75 579.334 723.25 580.148 718.438 578.646C717.313 578.27 716.813 580.085 718 580.398Z" fill="#080F1F"/>
<path d="M726.812 581.086C726.812 583.214 726.812 585.279 726.812 587.407C726.812 588.596 728.688 588.596 728.688 587.407C728.688 585.279 728.688 583.214 728.688 581.086C728.688 579.897 726.812 579.897 726.812 581.086Z" fill="#080F1F"/>
<path d="M733.188 581.462C733.375 582.964 733.563 584.528 733.75 586.03C733.875 587.219 735.75 587.219 735.625 586.03C735.438 584.528 735.25 582.964 735.063 581.462C734.938 580.273 733.063 580.273 733.188 581.462Z" fill="#080F1F"/>
<path d="M757.25 581.149C757.438 583.026 757.625 584.904 757.875 586.781C758 587.97 759.875 587.97 759.75 586.781C759.563 584.904 759.375 583.026 759.125 581.149C759 579.96 757.125 579.897 757.25 581.149Z" fill="#080F1F"/>
<path d="M764.688 581.837C764.688 583.214 764.688 584.653 764.688 586.03C764.688 587.219 766.562 587.219 766.562 586.03C766.562 584.653 766.562 583.214 766.562 581.837C766.562 580.586 764.688 580.586 764.688 581.837Z" fill="#080F1F"/>
<path d="M759.813 589.16C759.625 591.225 759.75 593.29 760.063 595.418C760.25 596.607 762.063 596.106 761.875 594.917C761.563 593.04 761.563 591.1 761.688 589.16C761.75 587.971 759.875 587.971 759.813 589.16Z" fill="#080F1F"/>
<path d="M766.75 589.16C766.938 590.849 766.875 592.539 766.563 594.166C766.375 595.355 768.125 595.856 768.375 594.667C768.688 592.852 768.813 590.975 768.625 589.16C768.5 587.971 766.625 587.971 766.75 589.16Z" fill="#080F1F"/>
<path d="M728.25 597.608C728.25 600.174 728.25 602.74 728.25 605.306C728.25 606.495 730.125 606.495 730.125 605.306C730.125 602.74 730.125 600.174 730.125 597.608C730.125 596.419 728.25 596.419 728.25 597.608Z" fill="#080F1F"/>
<path d="M734.875 597.984C734.875 599.924 735.062 601.864 735.375 603.867C735.562 605.056 737.375 604.555 737.187 603.366C736.937 601.614 736.812 599.799 736.812 597.984C736.75 596.732 734.875 596.732 734.875 597.984Z" fill="#080F1F"/>
<path d="M743.563 589.222C743.688 591.412 743.876 593.665 744.001 595.856C744.063 597.045 745.938 597.045 745.876 595.856C745.751 593.665 745.563 591.412 745.438 589.222C745.376 587.97 743.501 587.97 743.563 589.222Z" fill="#080F1F"/>
<path d="M779.188 588.471C779.438 590.599 779.625 592.664 779.875 594.792C780 595.981 781.875 595.981 781.75 594.792C781.5 592.664 781.313 590.599 781.063 588.471C780.938 587.282 779.063 587.282 779.188 588.471Z" fill="#080F1F"/>
<path d="M795.376 588.847C795.438 590.474 795.501 592.101 795.563 593.791C795.626 594.98 797.5 594.98 797.438 593.791C797.375 592.164 797.313 590.536 797.25 588.847C797.188 587.595 795.313 587.595 795.376 588.847Z" fill="#080F1F"/>
<path d="M766.75 597.233C766.75 599.674 766.75 602.114 766.75 604.618C766.75 605.807 768.625 605.807 768.625 604.618C768.625 602.177 768.625 599.736 768.625 597.233C768.625 596.044 766.75 596.044 766.75 597.233Z" fill="#080F1F"/>
<path d="M748.938 596.231C748.938 598.234 748.938 600.237 748.938 602.177C748.938 603.366 750.812 603.366 750.812 602.177C750.812 600.174 750.812 598.172 750.812 596.231C750.812 594.98 748.938 594.98 748.938 596.231Z" fill="#080F1F"/>
<path d="M712.5 606.745C712.375 609.186 712.5 611.564 712.938 614.005C713.125 615.194 714.938 614.694 714.75 613.504C714.375 611.251 714.25 608.998 714.375 606.745C714.438 605.494 712.563 605.494 712.5 606.745Z" fill="#080F1F"/>
<path d="M725.438 607.058C725.438 609.186 725.438 611.251 725.438 613.379C725.438 614.568 727.313 614.568 727.313 613.379C727.313 611.251 727.313 609.186 727.313 607.058C727.313 605.869 725.438 605.869 725.438 607.058Z" fill="#080F1F"/>
<path d="M740.938 607.997C741.25 609.687 741.313 611.314 741.188 613.004C741.063 614.193 742.938 614.193 743.063 613.004C743.25 611.126 743.125 609.311 742.75 607.496C742.5 606.307 740.688 606.808 740.938 607.997Z" fill="#080F1F"/>
<path d="M757.688 607.058C757.5 608.811 757.625 610.5 757.938 612.253C758.188 613.442 760 612.941 759.75 611.752C759.438 610.187 759.375 608.623 759.563 607.058C759.688 605.869 757.813 605.869 757.688 607.058Z" fill="#080F1F"/>
<path d="M773.812 606.745C773.812 608.247 773.812 609.812 773.812 611.314C773.812 612.503 775.687 612.503 775.687 611.314C775.687 609.812 775.687 608.247 775.687 606.745C775.687 605.494 773.812 605.494 773.812 606.745Z" fill="#080F1F"/>
<path d="M732.75 616.196C732.875 618.761 732.875 621.327 732.625 623.956C732.5 625.145 734.375 625.145 734.5 623.956C734.75 621.39 734.813 618.824 734.625 616.196C734.563 615.006 732.688 615.006 732.75 616.196Z" fill="#080F1F"/>
<path d="M736.875 616.196C737.063 618.887 737.125 621.578 737 624.269C736.938 625.458 738.813 625.458 738.875 624.269C739 621.578 738.938 618.887 738.75 616.196C738.625 615.006 736.75 615.006 736.875 616.196Z" fill="#080F1F"/>
<path d="M749.313 615.132C749.188 618.261 749.001 621.452 748.876 624.582C748.813 625.771 750.688 625.771 750.751 624.582C750.876 621.452 751.063 618.261 751.188 615.132C751.251 613.942 749.376 613.942 749.313 615.132Z" fill="#080F1F"/>
<path d="M752.5 615.82C752.813 618.511 752.938 621.202 752.75 623.893C752.688 625.082 754.563 625.082 754.625 623.893C754.813 621.202 754.688 618.511 754.375 615.82C754.25 614.631 752.375 614.631 752.5 615.82Z" fill="#080F1F"/>
<path d="M766.813 615.507C766.625 618.448 766.75 621.265 767.188 624.143C767.375 625.333 769.188 624.832 769 623.643C768.625 620.952 768.563 618.198 768.688 615.444C768.75 614.318 766.875 614.318 766.813 615.507Z" fill="#080F1F"/>
<path d="M782.813 615.507C783.063 617.948 783.313 620.389 783.563 622.892C783.688 624.081 785.563 624.081 785.438 622.892C785.188 620.451 784.938 618.01 784.688 615.507C784.563 614.318 782.688 614.318 782.813 615.507Z" fill="#080F1F"/>
<path d="M788.812 616.571C788.937 618.261 788.937 619.95 788.687 621.578C788.5 622.767 790.312 623.267 790.5 622.078C790.812 620.263 790.875 618.386 790.687 616.571C790.562 615.382 788.687 615.319 788.812 616.571Z" fill="#080F1F"/>
<path d="M704.75 626.397C704.75 628.837 704.75 631.278 704.75 633.782C704.75 634.971 706.625 634.971 706.625 633.782C706.625 631.341 706.625 628.9 706.625 626.397C706.625 625.145 704.75 625.145 704.75 626.397Z" fill="#080F1F"/>
<path d="M708.937 626.021C709.187 628.587 709.375 631.153 709.625 633.719C709.75 634.908 711.625 634.908 711.5 633.719C711.25 631.153 711.062 628.587 710.812 626.021C710.75 624.832 708.875 624.832 708.937 626.021Z" fill="#080F1F"/>
<path d="M718.563 625.333C718.75 627.586 718.938 629.776 719.125 632.029C719.25 633.218 721.125 633.218 721 632.029C720.813 629.776 720.625 627.586 720.438 625.333C720.313 624.144 718.438 624.081 718.563 625.333Z" fill="#080F1F"/>
<path d="M727.625 625.708C727.938 628.274 728.313 630.84 728.625 633.406C728.813 634.595 730.688 634.595 730.5 633.406C730.188 630.84 729.813 628.274 729.5 625.708C729.375 624.519 727.5 624.519 727.625 625.708Z" fill="#080F1F"/>
<path d="M757.688 626.021C757.688 629.088 757.688 632.092 757.688 635.158C757.688 636.347 759.562 636.347 759.562 635.158C759.562 632.092 759.562 629.088 759.562 626.021C759.562 624.832 757.688 624.832 757.688 626.021Z" fill="#080F1F"/>
<path d="M772.375 625.333C772.375 627.899 772.375 630.465 772.375 633.03C772.375 634.22 774.25 634.22 774.25 633.03C774.25 630.465 774.25 627.899 774.25 625.333C774.25 624.144 772.375 624.081 772.375 625.333Z" fill="#080F1F"/>
<path d="M716 636.473C716.375 638.726 716.375 641.041 715.938 643.294C715.75 644.483 717.5 644.984 717.75 643.795C718.25 641.166 718.25 638.6 717.813 635.972C717.563 634.783 715.813 635.283 716 636.473Z" fill="#080F1F"/>
<path d="M720.563 637.223C720.688 639.351 720.875 641.416 721 643.544C721.063 644.733 722.938 644.733 722.875 643.544C722.75 641.416 722.563 639.351 722.438 637.223C722.313 636.034 720.438 636.034 720.563 637.223Z" fill="#080F1F"/>
<path d="M738.438 636.535C738.313 639.101 738.438 641.604 738.875 644.17C739.062 645.359 740.875 644.859 740.687 643.67C740.312 641.291 740.187 638.976 740.312 636.535C740.375 635.346 738.5 635.346 738.438 636.535Z" fill="#080F1F"/>
<path d="M743.563 636.911C743.688 639.038 743.813 641.104 744.001 643.231C744.063 644.421 745.938 644.421 745.876 643.231C745.751 641.104 745.626 639.038 745.438 636.911C745.376 635.722 743.501 635.722 743.563 636.911Z" fill="#080F1F"/>
<path d="M747.626 637.223C747.751 638.725 747.876 640.29 748.063 641.792C748.188 642.981 750.063 642.981 749.938 641.792C749.813 640.29 749.688 638.725 749.501 637.223C749.438 636.034 747.563 636.034 747.626 637.223Z" fill="#080F1F"/>
<path d="M764.375 635.847C764.563 638.413 764.75 640.978 764.938 643.607C765 644.796 766.875 644.796 766.813 643.607C766.625 641.041 766.438 638.475 766.25 635.847C766.125 634.658 764.25 634.658 764.375 635.847Z" fill="#080F1F"/>
<path d="M776.125 636.222C776.25 638.35 776.375 640.415 776.562 642.543C776.625 643.732 778.499 643.732 778.437 642.543C778.312 640.415 778.187 638.35 777.999 636.222C777.937 635.033 776.062 634.97 776.125 636.222Z" fill="#080F1F"/>
<path d="M785.625 636.285C785.313 638.475 785.188 640.666 785.375 642.856C785.5 644.045 787.375 644.045 787.25 642.856C787.063 640.791 787.125 638.788 787.438 636.786C787.625 635.596 785.813 635.096 785.625 636.285Z" fill="#080F1F"/>
<path d="M704.063 645.234C704.563 648.739 704.875 652.306 705 655.873C705.063 657.062 706.938 657.062 706.875 655.873C706.75 652.118 706.438 648.426 705.875 644.733C705.75 643.544 703.938 644.045 704.063 645.234Z" fill="#080F1F"/>
<path d="M709.75 645.297C709.438 648.488 709.625 651.555 710.312 654.684C710.562 655.873 712.375 655.372 712.125 654.183C711.5 651.242 711.312 648.301 711.625 645.297C711.75 644.108 709.875 644.108 709.75 645.297Z" fill="#080F1F"/>
<path d="M724.313 644.984C724.625 647.988 724.75 651.054 724.75 654.121C724.75 655.31 726.625 655.31 726.625 654.121C726.625 651.054 726.5 648.05 726.188 644.984C726.063 643.795 724.188 643.795 724.313 644.984Z" fill="#080F1F"/>
<path d="M750.25 644.295C750.625 647.8 750.75 651.305 750.688 654.809C750.688 655.999 752.563 655.999 752.563 654.809C752.625 651.305 752.5 647.8 752.125 644.295C752 643.106 750.125 643.044 750.25 644.295Z" fill="#080F1F"/>
<path d="M755.25 646.048C755.063 648.864 755.313 651.617 755.938 654.371C756.188 655.56 758 655.06 757.75 653.871C757.188 651.305 756.938 648.676 757.125 646.048C757.188 644.796 755.313 644.796 755.25 646.048Z" fill="#080F1F"/>
<path d="M760.875 645.297C760.688 648.488 760.813 651.618 761.188 654.747C761.313 655.936 763.188 655.936 763.063 654.747C762.625 651.618 762.563 648.426 762.75 645.297C762.813 644.108 760.938 644.108 760.875 645.297Z" fill="#080F1F"/>
<path d="M778.25 645.672C778.375 648.363 778.562 651.054 778.687 653.745C778.75 654.934 780.625 654.934 780.562 653.745C780.437 651.054 780.25 648.363 780.125 645.672C780.062 644.483 778.187 644.483 778.25 645.672Z" fill="#080F1F"/>
<path d="M718.062 657.25C718.062 660.379 718.062 663.571 718.062 666.7C718.062 667.889 719.938 667.889 719.938 666.7C719.938 663.571 719.938 660.379 719.938 657.25C719.938 656.061 718.062 656.061 718.062 657.25Z" fill="#080F1F"/>
<path d="M732.188 656.875C732.5 660.129 732.563 663.446 732.375 666.7C732.313 667.889 734.188 667.889 734.25 666.7C734.438 663.446 734.375 660.129 734.063 656.875C733.938 655.686 732.063 655.686 732.188 656.875Z" fill="#080F1F"/>
<path d="M740.875 657.25C740.688 660.192 740.813 663.133 741.125 666.012C741.25 667.201 743.125 667.201 743 666.012C742.688 663.07 742.563 660.192 742.75 657.25C742.813 656.061 740.938 656.061 740.875 657.25Z" fill="#080F1F"/>
<path d="M766.688 657.25C766.813 660.317 767.001 663.321 767.126 666.387C767.188 667.577 769.063 667.577 769.001 666.387C768.876 663.321 768.688 660.317 768.563 657.25C768.501 656.061 766.626 656.061 766.688 657.25Z" fill="#080F1F"/>
<path d="M772.875 658.564C773.313 661.068 773.25 663.634 772.813 666.137C772.563 667.326 774.375 667.827 774.625 666.638C775.188 663.759 775.188 660.943 774.688 658.064C774.438 656.875 772.625 657.375 772.875 658.564Z" fill="#080F1F"/>
<path d="M274.875 101.135C273.688 108.457 276.938 115.341 281.25 121.036C285.625 126.794 291.563 131.488 298.875 132.551C300.063 132.739 300.563 130.924 299.375 130.737C293.063 129.86 287.813 126.105 283.813 121.286C279.375 115.904 275.5 108.895 276.688 101.698C276.875 100.446 275.063 99.9455 274.875 101.135Z" fill="#080F1F"/>
<path d="M276.5 101.135C278.313 99.7577 280.375 98.819 282.625 98.3809C283.813 98.1306 283.313 96.3157 282.125 96.566C279.563 97.0667 277.25 98.1932 275.188 99.7577C274.25 100.571 275.563 101.886 276.5 101.135Z" fill="#080F1F"/>
<path d="M282.938 98.5061C288.5 100.008 293.563 106.517 296.75 111.023C300.063 115.716 302.563 120.911 304.25 126.356C304.625 127.482 306.438 127.044 306.063 125.855C304.125 119.597 301.188 113.651 297.188 108.457C293.813 104.013 289 98.1931 283.438 96.6911C282.25 96.3782 281.75 98.1931 282.938 98.5061Z" fill="#080F1F"/>
<path d="M299.251 132.677C301.626 131.487 303.751 129.798 305.438 127.67C306.188 126.731 304.876 125.417 304.126 126.356C302.563 128.358 300.626 129.923 298.376 131.049C297.188 131.613 298.188 133.177 299.251 132.677Z" fill="#080F1F"/>
<path d="M279.438 98.6313C279.25 105.828 283.25 113.025 287.5 118.595C291.5 123.852 297.125 127.858 304 127.733C305.188 127.733 305.188 125.855 304 125.855C297.063 125.98 291.688 121.474 287.938 116.029C284.5 110.96 281.188 104.952 281.313 98.6313C281.313 97.4422 279.438 97.4422 279.438 98.6313Z" fill="#080F1F"/>
<path d="M277.438 109.709C278.375 108.582 279.5 107.706 280.813 107.017C281.875 106.517 280.938 104.89 279.875 105.39C278.438 106.079 277.125 107.08 276.125 108.332C275.375 109.27 276.688 110.647 277.438 109.709Z" fill="#080F1F"/>
<path d="M276.437 105.453C277.625 104.577 278.812 103.951 280.25 103.575C281.437 103.262 280.937 101.448 279.75 101.76C278.25 102.199 276.812 102.887 275.5 103.826C274.562 104.514 275.437 106.141 276.437 105.453Z" fill="#080F1F"/>
<path d="M283.063 121.286C284.375 120.222 285.75 119.159 287.063 118.095C288 117.344 286.688 116.029 285.75 116.78C284.438 117.844 283.063 118.908 281.75 119.972C280.75 120.723 282.125 122.037 283.063 121.286Z" fill="#080F1F"/>
<path d="M286.812 125.417C287.875 124.603 288.937 123.79 290 122.976C290.375 122.663 290.625 122.163 290.312 121.662C290.062 121.286 289.437 121.036 289 121.349C287.937 122.163 286.875 122.976 285.812 123.79C285.437 124.103 285.187 124.603 285.5 125.104C285.75 125.48 286.375 125.73 286.812 125.417Z" fill="#080F1F"/>
<path d="M293.438 130.111C294.5 129.047 295.625 128.045 296.688 126.982C297.563 126.168 296.25 124.791 295.375 125.667C294.313 126.731 293.188 127.733 292.125 128.796C291.25 129.61 292.563 130.987 293.438 130.111Z" fill="#080F1F"/>
<path d="M335.938 88.4302C330.438 84.1119 327.063 71.8456 331.688 66.0254C337.126 59.329 347.938 56.4501 354.001 63.5846C359.063 69.53 359.376 78.8549 355.563 85.5514C353.251 89.6193 349.876 91.5594 345.188 91.6219C341.126 91.6845 337.251 90.1199 334.438 87.1159C333.626 86.2398 332.313 87.554 333.126 88.4302C337.688 93.3117 345.875 95.1266 351.938 91.9974C358.25 88.6805 360.625 79.6685 359.875 73.0973C359.125 66.4635 355.063 59.329 348.188 57.5766C341.563 55.8869 331.751 60.6432 328.813 66.839C327.001 70.6565 327.688 75.2251 328.626 79.2304C329.563 83.2358 331.188 87.0534 334.501 89.6193C335.501 90.4954 336.876 89.1812 335.938 88.4302Z" fill="#080F1F"/>
<path d="M347.063 59.5791C356.563 57.1383 361.5 67.402 361.688 75.2249C361.75 78.7922 361.438 82.7975 359.313 85.8015C357 89.0558 352.875 90.0572 349.438 91.5592C348.313 92.0598 349.313 93.687 350.375 93.1863C354.5 91.3714 359 90.1823 361.438 85.9892C363.75 81.9839 363.938 76.6643 363.375 72.1583C362.375 63.8973 355.813 55.386 346.625 57.7642C345.438 58.0771 345.938 59.892 347.063 59.5791Z" fill="#080F1F"/>
<path d="M357.5 84.9255C358.375 84.7377 359.25 84.55 360.125 84.3622C361.313 84.1119 360.813 82.297 359.625 82.5473C358.75 82.7351 357.875 82.9228 357 83.1106C355.813 83.3609 356.313 85.1758 357.5 84.9255Z" fill="#080F1F"/>
<path d="M359.75 77.7284C360.75 77.4155 361.75 77.1026 362.688 76.7271C363.813 76.3516 363.313 74.5367 362.188 74.9122C361.188 75.2251 360.188 75.538 359.25 75.9135C358.125 76.289 358.625 78.1039 359.75 77.7284Z" fill="#080F1F"/>
<path d="M359.125 72.1585C359.75 72.0333 360.437 71.9082 361.062 71.783C361.562 71.7204 361.812 71.0946 361.687 70.6565C361.562 70.1558 361.062 69.9055 360.562 70.0307C359.937 70.1558 359.25 70.281 358.625 70.4062C358.125 70.4688 357.875 71.0946 358 71.5327C358.125 72.0333 358.625 72.2211 359.125 72.1585Z" fill="#080F1F"/>
<path d="M355.375 64.2731C356.563 64.4608 357.688 64.3983 358.813 64.0228C359.938 63.6473 359.438 61.8323 358.313 62.2078C357.5 62.4582 356.688 62.5833 355.875 62.4582C355.375 62.3956 354.875 62.5833 354.75 63.084C354.563 63.5221 354.875 64.2105 355.375 64.2731Z" fill="#080F1F"/>
<path d="M345.001 182.681C336.813 180.303 331.501 172.292 331.376 163.906C331.188 154.33 339.501 146.132 349.001 150.388C357.001 153.955 360.063 163.342 360.313 171.541C360.438 175.484 359.751 180.24 356.188 182.556C352.501 184.996 347.688 184.058 343.751 182.806C342.626 182.43 342.126 184.245 343.251 184.621C349.626 186.686 357.688 186.811 360.876 179.677C363.938 172.855 362 163.092 358.5 156.834C355 150.513 347.5 145.631 340.063 147.822C332.313 150.137 328.813 158.586 329.688 166.096C330.626 174.545 336.313 182.18 344.563 184.558C345.688 184.871 346.188 183.056 345.001 182.681Z" fill="#080F1F"/>
<path d="M334.375 150.763C326.313 157.71 323.813 169.663 329.875 178.738C335.75 187.562 347.563 190.128 356.5 184.37C357.5 183.745 356.563 182.117 355.563 182.743C347.188 188.125 336.125 185.56 331 176.986C326 168.599 328.563 158.273 335.75 152.077C336.625 151.326 335.313 150.012 334.375 150.763Z" fill="#080F1F"/>
<g opacity="0.14">
<path d="M339.376 149.95C338.251 152.453 336.813 156.709 337.001 162.091C337.063 163.718 337.501 172.792 344.063 178.926C348.563 183.119 353.313 183.369 353.126 184.808C352.876 186.373 347.001 187.625 341.688 186.311C335.876 184.871 330.688 180.24 328.438 174.169C327.876 172.605 325.626 166.346 328.751 159.525C331.938 152.703 338.188 150.325 339.376 149.95Z" fill="#0F243F"/>
<path d="M339.376 149.95C338.251 152.453 336.813 156.709 337.001 162.091C337.063 163.718 337.501 172.792 344.063 178.926C348.563 183.119 353.313 183.369 353.126 184.808C352.876 186.373 347.001 187.625 341.688 186.311C335.876 184.871 330.688 180.24 328.438 174.169C327.876 172.605 325.626 166.346 328.751 159.525C331.938 152.703 338.188 150.325 339.376 149.95Z" fill="url(#paint0_linear)"/>
</g>
<g opacity="0.15">
<path d="M280.438 98.4436C280.688 100.822 281.313 104.514 282.938 108.707C284.563 112.713 287.375 119.91 294.688 124.04C296.5 125.042 299.938 126.669 304.938 126.919C304.5 127.795 303.438 129.485 301.438 130.799C300.125 131.613 298.938 131.988 298.063 132.176C295.5 131.425 291.625 129.923 287.625 126.982C285.063 125.042 279.125 120.473 276.563 112.149C275.125 107.456 275.25 103.2 275.75 100.008C277.25 99.4449 278.813 98.9443 280.438 98.4436Z" fill="#0F243F"/>
<path d="M280.438 98.4436C280.688 100.822 281.313 104.514 282.938 108.707C284.563 112.713 287.375 119.91 294.688 124.04C296.5 125.042 299.938 126.669 304.938 126.919C304.5 127.795 303.438 129.485 301.438 130.799C300.125 131.613 298.938 131.988 298.063 132.176C295.5 131.425 291.625 129.923 287.625 126.982C285.063 125.042 279.125 120.473 276.563 112.149C275.125 107.456 275.25 103.2 275.75 100.008C277.25 99.4449 278.813 98.9443 280.438 98.4436Z" fill="url(#paint1_linear)"/>
</g>
<g opacity="0.14">
<path d="M348.125 58.2024C350 59.2038 353.25 61.3316 355.5 65.2744C358.687 70.7191 358 76.1013 357.687 78.7298C357.375 81.1079 356.937 84.6126 354.313 87.9921C352.938 89.807 351.375 90.9961 350.25 91.6845C351.625 91.6219 355.125 91.1839 358 88.4928C360.25 86.3649 360.937 83.9242 361.687 81.2331C362.875 76.9774 362.5 73.5354 362.375 72.3463C361.875 68.7164 360.562 66.1505 360.187 65.4621C359 63.2091 357.437 60.3303 354.125 58.8909C351.687 57.8269 349.375 58.0147 348.125 58.2024Z" fill="#0F243F"/>
<path d="M348.125 58.2024C350 59.2038 353.25 61.3316 355.5 65.2744C358.687 70.7191 358 76.1013 357.687 78.7298C357.375 81.1079 356.937 84.6126 354.313 87.9921C352.938 89.807 351.375 90.9961 350.25 91.6845C351.625 91.6219 355.125 91.1839 358 88.4928C360.25 86.3649 360.937 83.9242 361.687 81.2331C362.875 76.9774 362.5 73.5354 362.375 72.3463C361.875 68.7164 360.562 66.1505 360.187 65.4621C359 63.2091 357.437 60.3303 354.125 58.8909C351.687 57.8269 349.375 58.0147 348.125 58.2024Z" fill="url(#paint2_linear)"/>
</g>
<path d="M401.063 569.446C399.25 583.339 397.438 597.233 395.625 611.189C360.813 618.824 343.563 624.081 343.938 627.022C344.438 630.59 370.5 630.715 422.25 627.461C424.5 608.811 426.688 590.161 428.938 571.574C419.625 570.885 410.375 570.134 401.063 569.446Z" fill="#080F1F"/>
<path d="M476.687 328.312C477.312 334.383 477.938 344.459 476.812 356.85C475.125 375.375 470.375 388.83 468.75 393.649C455.437 432.701 449 483.957 446 508.239C443.875 525.45 441.5 551.171 442.062 583.214C438.562 585.154 426.937 591.1 411.687 588.659C397.562 586.406 388.75 578.458 385.75 575.516C384.187 527.39 388.25 488.838 392.5 461.865C397 432.952 403.437 403.663 410.812 374.123C415.187 356.475 419.562 338.889 424 321.24C441.5 323.556 459.125 325.934 476.687 328.312Z" fill="#0F243F"/>
<path opacity="0.13" d="M476.063 347.15C474 355.348 470.688 367.615 466.188 382.259C451.313 430.198 437.938 455.106 427.875 481.766C418.875 505.548 408.875 540.47 406 587.032C409.313 588.096 414 589.159 419.625 589.097C429.938 588.972 437.688 585.154 441.5 582.901C441.938 552.11 443.938 526.263 446.063 506.55C447.75 490.653 449.438 475.133 453.5 454.543C458.375 429.76 460.813 417.368 465.875 402.912C469.313 393.274 473.438 383.448 475.375 368.24C476.313 359.479 476.25 352.156 476.063 347.15Z" fill="#0F243F"/>
<path opacity="0.19" d="M451.75 463.179C447.188 474.382 442.813 486.085 438.563 498.288C427.438 530.269 419.125 560.747 413 589.097C416.312 589.41 420.5 589.472 425.375 588.659C432.625 587.47 438.25 584.904 441.875 582.901C441.563 570.447 441.688 557.367 442.313 543.661C443.563 514.059 447.125 487.086 451.75 463.179Z" fill="#0F243F"/>
<path d="M515.625 566.567C518.813 577.018 522 587.407 525.188 597.859C500.25 615.507 488.563 625.833 490.188 628.712C492.25 632.405 515.438 624.331 559.75 604.492C553.375 586.719 547 568.883 540.563 551.109C532.313 556.241 523.938 561.373 515.625 566.567Z" fill="#080F1F"/>
<path d="M501.812 315.169C504.438 320.677 508.5 329.939 511.687 341.955C516.437 359.917 516.5 374.186 516.625 379.255C517.375 420.56 528.812 470.939 534.187 494.721C538 511.681 544.562 536.589 556 566.567C553.375 569.571 544.437 579.083 529.25 582.087C515.187 584.841 504.187 580.335 500.437 578.583C482.625 533.836 473.313 496.223 468.063 469.437C462.438 440.712 458.562 410.985 455.375 380.694C453.5 362.608 451.625 344.521 449.75 326.497C467.125 322.679 484.5 318.924 501.812 315.169Z" fill="#0F243F"/>
<path opacity="0.17" d="M470.25 322.367C478.688 357.726 487.062 393.086 495.375 428.446C507.375 479.451 519.188 530.519 530.813 581.587C533.625 581.024 537.063 580.022 540.688 578.27C548 574.765 552.813 569.947 555.5 566.692C551.188 555.239 545.938 540.094 540.688 522.133C530.5 487.399 525.688 459.862 523.813 448.222C520.375 427.069 518.313 414.364 517.625 396.215C517.188 383.949 517.75 377.878 516 365.236C515.25 359.854 513.063 346.399 507.313 329.752C505.188 323.619 503.125 318.549 501.563 314.919C491.187 317.423 480.75 319.926 470.25 322.367Z" fill="#0F243F"/>
<path opacity="0.15" d="M515.187 383.511C515 430.26 518.687 482.392 529.187 538.342C531.812 552.298 534.687 565.753 537.875 578.771C539.75 578.207 541.875 577.456 544.062 576.267C549.625 573.389 553.375 569.571 555.625 566.755C549.187 548.668 543 529.267 537.5 508.552C525.312 462.992 518.625 420.748 515.187 383.511Z" fill="#0F243F"/>
<path d="M431.312 184.433C422.625 191.442 418.812 200.141 416.562 205.336C409.5 221.545 411 236.377 411.875 244.263C414.125 264.477 421.062 267.794 424.5 286.819C426.312 297.02 427 310.476 423.062 327.248C425.75 329.626 446.437 347.337 473.875 342.018C490.062 338.889 500.437 329.313 504.5 325.058C505.937 284.692 503.625 251.397 500.875 226.927C497.687 198.452 494.375 186.248 483.937 179.176C469.312 169.288 445.687 172.855 431.312 184.433Z" fill="white" stroke="#080F1F" stroke-width="2" stroke-miterlimit="10"/>
<path opacity="0.14" d="M460.812 172.542C464.75 180.428 469.563 191.442 473.563 205.148C483.687 239.882 481.625 268.608 480.563 278.621C477.688 306.783 469 328.813 462 343.019C466.375 343.144 472.062 342.769 478.5 340.954C491.562 337.262 500.062 329.501 504.062 325.246C504.625 303.654 504.437 285.505 504.062 271.987C504.062 271.987 503.562 252.148 499.937 219.542C497.437 196.887 495.687 189.502 489.625 183.181C480.75 174.044 467.875 172.667 460.812 172.542Z" fill="#0F243F"/>
<path opacity="0.17" d="M496.687 202.269C495.624 202.332 496.937 218.291 495.437 248.08C493.499 286.632 489.062 302.465 487.624 307.535C483.374 322.054 477.937 333.319 473.999 340.579C477.374 340.328 481.874 339.64 486.749 337.7C495.999 334.007 501.749 327.874 504.499 324.495C504.874 312.041 505.062 293.766 504.062 271.674C502.437 235.877 498.187 202.144 496.687 202.269Z" fill="#0F243F"/>
<path d="M469.187 279.059C467.875 279.81 466.875 281.437 467 282.814C467.312 285.756 473 287.132 472.812 287.758C472.625 288.322 468.562 286.569 464.25 288.134C463.562 288.384 461.312 289.198 461.125 290.637C461 291.764 462.25 292.077 462.562 293.891C462.812 295.143 462.25 295.268 462.187 297.521C462.125 299.023 462.125 299.962 462.687 300.901C463.437 302.09 464.312 301.84 465 302.966C465.812 304.28 464.75 305.094 465.375 306.721C466 308.411 467.812 309.475 469.25 309.85C470.875 310.288 471.75 309.725 472.25 310.351C473 311.29 471.25 312.917 471.875 314.481C472.437 315.858 474.5 316.234 475.25 316.296C480.437 316.672 485 304.781 485.25 304.093C487.187 304.093 489.5 303.905 492 303.279C497.812 301.777 501.5 298.46 506 294.455C508.312 292.389 511.187 289.761 514.187 285.63C518.25 279.998 520.062 274.991 521.687 270.548C523.062 266.668 525.062 260.785 525.687 252.899C526.25 244.764 525 238.693 523.875 233.373C521.062 220.231 516 211.344 514.812 209.341C514.625 209.028 510.875 204.147 503.375 194.384C499.562 189.44 496.125 185.122 492.062 185.309C491.625 185.309 490.812 185.372 489.875 185.935C486.937 187.625 486.687 192.506 486.875 197.012C487.562 212.533 493 223.798 493 223.798C497.437 232.935 501 235.313 502.625 243.825C503.5 248.268 503.5 252.399 503.437 253.212C503.437 256.404 503.312 260.66 501.625 265.792C500.687 268.483 498.625 274.553 492.812 279.435C489.312 282.376 486.812 284.504 483.625 284.128C479.187 283.628 475.5 278.621 471.187 278.559C470.687 278.559 469.937 278.621 469.187 279.059Z" fill="white"/>
<path d="M489.687 185.372C505.437 195.135 517.187 210.843 522 228.805C527.375 248.894 523.75 269.672 511.75 286.632C505.812 295.018 497.125 303.154 486.187 302.716C485 302.653 485 304.531 486.187 304.593C495.5 304.969 503.312 299.524 509.25 292.827C516 285.192 521.25 275.742 524 265.917C529.625 245.702 525.25 223.235 513.625 205.899C507.625 197.012 499.812 189.44 490.687 183.807C489.562 183.119 488.625 184.746 489.687 185.372Z" fill="#080F1F"/>
<path d="M501.063 264.978C497.688 273.051 492.375 281.5 483.063 283.065C481.875 283.252 482.375 285.067 483.563 284.879C493.5 283.19 499.188 274.115 502.813 265.479C503.313 264.415 501.5 263.914 501.063 264.978Z" fill="#080F1F"/>
<path d="M483.438 282.939C479.188 282.188 471.813 274.491 467.5 278.746C465.938 280.311 466.125 282.939 467.063 284.754C468.438 287.445 471.438 288.384 474.125 289.073C475.313 289.385 475.813 287.571 474.625 287.258C472.25 286.694 469.375 285.943 468.5 283.315C468 282.376 468.188 281.5 469 280.812C469.375 279.497 470.25 279.059 471.625 279.622C472.625 279.81 473.563 280.248 474.438 280.686C477.313 282.126 479.688 284.191 482.938 284.754C484.125 285.005 484.625 283.19 483.438 282.939Z" fill="#080F1F"/>
<path d="M485.187 303.091C483.125 306.095 481.125 309.162 479.062 312.166C478.562 312.854 478.125 313.543 477.5 314.168C476.937 314.857 476.187 315.358 475.312 315.67C474.437 314.356 473.625 313.042 472.75 311.728C473.125 310.601 475.75 309.099 476.625 308.286C477.562 307.472 476.187 306.158 475.312 306.971C473.5 308.599 470.187 310.413 470.062 313.167C470 315.295 471.625 317.298 473.687 317.611C476.25 317.986 478.312 316.234 479.75 314.356C482.312 311.102 484.437 307.472 486.812 304.03C487.5 303.029 485.875 302.09 485.187 303.091Z" fill="#080F1F"/>
<path d="M474.188 287.195C470.563 288.259 466.875 287.383 463.25 288.009C461.375 288.322 459.75 289.323 459.938 291.451C460.563 297.459 468.813 296.52 472.75 295.644C473.938 295.393 473.438 293.579 472.25 293.829C470.438 294.267 468.563 294.642 466.688 294.517C464.313 294.33 459.188 291.326 464.125 289.761C465.813 289.26 468.063 289.698 469.75 289.636C471.438 289.636 473.063 289.448 474.688 288.947C475.875 288.634 475.375 286.82 474.188 287.195Z" fill="#080F1F"/>
<path d="M463.125 294.142C460.375 296.082 460.125 300.4 462.75 302.591C465.875 305.156 470.625 303.529 473.812 301.965C474.875 301.401 473.937 299.774 472.875 300.338C470.812 301.401 468.062 302.465 465.687 301.902C463 301.339 461.562 297.521 464.125 295.769C465.062 295.081 464.125 293.453 463.125 294.142Z" fill="#080F1F"/>
<path d="M464.25 303.091C463.437 305.532 464.5 308.411 466.625 309.913C469.312 311.79 472.687 310.851 475.124 308.974C476.062 308.223 475.124 306.596 474.187 307.347C472.437 308.661 470.062 309.788 468 308.536C466.312 307.535 465.5 305.407 466.125 303.592C466.437 302.465 464.625 301.965 464.25 303.091Z" fill="#080F1F"/>
<path d="M490.688 182.806C482.688 194.196 485.438 208.778 490.563 220.669C497 235.626 507.875 250.646 504.563 267.794C504.313 268.983 506.125 269.484 506.375 268.295C509.25 253.337 501.813 239.694 495.438 226.74C489 213.66 482.938 197.075 492.313 183.745C493 182.743 491.375 181.805 490.688 182.806Z" fill="#080F1F"/>
<path d="M502.813 247.204C502.5 253.901 501.688 260.535 500.375 267.106C500.125 268.295 501.938 268.796 502.188 267.606C503.5 260.847 504.375 254.088 504.688 247.204C504.75 246.015 502.875 246.015 502.813 247.204Z" fill="#080F1F"/>
<path opacity="0.12" d="M501.625 193.445C504.75 199.516 508.5 208.34 510.875 219.48C514 234.25 513.125 246.078 512.562 251.397C511.25 263.664 510.125 274.24 502.187 284.692C498.875 289.135 492.125 298.022 480.937 300.963C473.312 302.903 465.625 301.589 464.687 304.593C464.25 306.158 465.687 308.16 467.187 309.099C469.187 310.288 471.875 310.1 474.187 308.536C471.937 310.1 470.875 312.291 471.375 313.855C471.812 315.232 473.375 315.983 474.437 316.108C479.562 316.797 484.687 304.969 485.062 304.092C487.062 304.155 490.062 304.03 493.437 302.966C500.437 300.838 504.687 296.144 509.375 290.95C511.312 288.822 514.812 284.817 518.062 278.934C526.375 263.726 525.687 248.456 525.312 242.823C524.25 224.299 516.437 211.532 514.375 208.403C510.125 201.393 505.25 196.574 501.625 193.445Z" fill="#0F243F"/>
<path opacity="0.11" d="M525.687 246.891C523.437 253.901 519.937 262.349 514.5 271.236C505.062 286.694 493.75 296.833 485.688 302.903C487.75 303.029 490.875 302.966 494.375 302.09C506.25 298.961 512.562 288.572 515.062 284.441C518.312 279.059 519.562 274.553 521.75 266.793C524.062 258.657 525.125 251.71 525.687 246.891Z" fill="#0F243F"/>
<path d="M426.626 187.749C425.626 186.56 417.438 191.88 411.876 196.073C405.126 201.142 399.313 205.523 393.751 213.471C386.376 223.985 384.126 234.186 383.376 238.379C382.813 241.634 381.063 253.024 384.938 266.917C388.188 278.62 393.688 285.692 400.501 294.454C404.876 300.149 408.251 303.278 412.938 305.343C417.251 307.283 421.188 307.659 423.813 307.659C425.188 309.662 426.751 311.915 428.501 314.418C430.001 316.546 430.876 317.735 432.376 319.112C433.813 320.426 436.063 322.366 437.813 321.678C438.751 321.365 439.251 320.363 440.126 318.799C441.001 317.172 440.813 316.859 441.438 316.233C442.751 314.856 444.126 315.732 445.876 314.668C447.626 313.542 446.813 312.04 449.001 308.973C450.688 306.595 451.626 306.783 452.126 305.093C452.626 303.216 451.501 302.59 451.876 300.149C452.251 297.708 453.626 296.895 453.188 296.018C452.688 295.08 450.751 295.455 448.001 295.518C443.001 295.58 438.688 294.329 438.688 293.703C438.688 293.014 443.126 293.64 445.438 290.824C446.751 289.197 447.313 286.443 446.188 285.129C444.876 283.502 441.438 284.315 437.126 285.379C431.313 286.819 431.001 288.008 428.563 288.258C421.063 288.947 414.313 278.182 412.001 274.49C410.751 272.55 406.876 265.978 405.501 256.591C404.126 247.141 405.938 239.318 407.313 233.498C407.688 231.808 407.563 232.622 410.188 223.61C414.813 207.588 414.501 207.651 415.626 204.897C420.251 193.757 427.626 188.876 426.626 187.749Z" fill="white"/>
<path d="M424.938 187.124C406.063 195.448 390.5 211.281 384.375 231.245C377.688 252.837 383.125 275.304 397.125 292.765C403.875 301.151 412.938 308.098 424 308.724C425.188 308.786 425.188 306.909 424 306.846C414.125 306.283 405.938 300.212 399.688 292.89C392.938 284.942 387.5 275.179 385.063 265.04C380.063 244.701 386.25 222.922 400.063 207.401C407.25 199.328 416.125 193.07 426 188.689C427 188.251 426.063 186.686 424.938 187.124Z" fill="#080F1F"/>
<path d="M407.125 267.857C411 277.495 417.25 286.694 427.875 289.323C429.063 289.636 429.563 287.821 428.375 287.508C418.438 285.067 412.563 276.368 408.938 267.356C408.5 266.292 406.688 266.73 407.125 267.857Z" fill="#080F1F"/>
<path d="M428.25 289.198C432 288.947 435 287.07 438.5 285.943C440.812 285.192 444.75 284.379 445.187 287.571C445.75 291.451 440.812 292.264 438 292.577C436.812 292.702 436.812 294.58 438 294.455C440.812 294.142 443.937 293.704 445.875 291.451C447.375 289.636 447.875 286.82 446.25 284.942C441.937 279.935 433.062 287.007 428.25 287.32C427.063 287.445 427.063 289.323 428.25 289.198Z" fill="#080F1F"/>
<path d="M423.313 308.223C425.75 311.853 428 315.733 430.688 319.175C432.313 321.303 434.5 323.306 437.375 323.118C439.5 322.93 441.5 321.303 441.5 319.05C441.563 316.108 437.813 313.855 435.938 312.166C435.063 311.352 433.688 312.666 434.625 313.48C435.688 314.419 438.313 316.108 438.813 317.36C438.875 318.424 438.875 319.425 438.938 320.489C437 321.428 435.375 321.303 434.125 320.114C433.125 319.363 432.438 318.487 431.688 317.423C429.313 314.106 427.188 310.664 424.938 307.284C424.25 306.22 422.625 307.159 423.313 308.223Z" fill="#080F1F"/>
<path d="M437.688 294.329C441.25 295.644 445 295.456 448.688 296.082C449.313 296.144 449.938 296.27 450.563 296.457C450.875 297.396 451.188 298.335 451.438 299.274C451.188 300.4 447.688 300.713 446.938 300.713C444.563 300.776 442.25 300.025 440 299.399C438.813 299.086 438.375 300.838 439.5 301.214C443.125 302.278 453.688 304.656 454.063 298.022C454.188 295.706 451.938 294.83 450.063 294.455C446.125 293.641 442 293.954 438.188 292.577C437.063 292.139 436.563 293.954 437.688 294.329Z" fill="#080F1F"/>
<path d="M449.376 302.34C450.688 303.342 451.126 305.156 450.313 306.533C449.501 307.91 447.938 308.286 446.438 308.286C443.876 308.223 441.313 307.034 439.063 305.845C438.001 305.282 437.063 306.909 438.126 307.472C441.563 309.349 447.001 311.728 450.688 309.037C453.563 306.909 453.063 302.716 450.376 300.713C449.313 299.962 448.376 301.589 449.376 302.34Z" fill="#080F1F"/>
<path d="M446.75 310.038C447.375 312.166 445.938 314.356 443.813 314.919C441.5 315.545 439.188 314.356 437.438 312.979C436.5 312.228 435.188 313.543 436.125 314.294C438.625 316.296 441.938 317.736 445.125 316.421C447.813 315.295 449.5 312.353 448.625 309.537C448.25 308.348 446.438 308.849 446.75 310.038Z" fill="#080F1F"/>
<path opacity="0.11" d="M414.375 194.259C410.75 199.453 406.188 206.963 402.375 216.664C396.188 232.435 395.313 245.702 395.125 250.521C394.563 264.352 394.25 272.425 399.063 281.062C405.188 292.076 416.125 297.521 429.813 304.28C436.813 307.722 442.813 309.975 446.875 311.289C446.875 311.665 446.875 314.356 444.938 315.796C442.813 317.298 439.125 316.734 436.813 313.855C439.813 315.796 441.188 318.424 440.438 319.989C439.813 321.428 437.375 322.179 435.375 321.678C431.5 320.614 431.875 315.17 426.125 309.913C424.813 308.724 423.625 307.91 422.75 307.409C419.063 307.034 412.75 305.782 406.5 301.526C405.375 300.775 401.125 297.709 395.313 288.947C391.625 283.377 387.063 276.431 384.375 265.979C383.5 262.6 379.25 244.576 387.438 225.112C388.25 223.11 390.375 218.478 394.125 213.096C401.125 203.208 409.188 197.388 414.375 194.259Z" fill="#0F243F"/>
<path d="M418.375 93.1866C411.5 98.0681 409.313 105.015 405.063 118.721C399.688 135.994 395.813 148.448 402.438 158.148C409 167.661 423.438 171.04 438.375 168.6C439.313 168.975 440.625 169.663 441.563 170.915C442.813 172.605 442.625 174.295 443 176.986C443.5 180.553 443.875 183.557 445.625 184.809C448.5 186.936 454.563 183.995 458.063 181.304C463.5 177.173 465.813 171.666 466.75 169.413C476.438 145.444 481.25 133.49 478.625 122.163C477.875 118.971 475.438 109.02 466.75 100.697C454.063 88.6806 431.875 83.6114 418.375 93.1866Z" fill="white"/>
<path d="M408.875 107.518C401.25 123.54 404 147.196 417.125 159.838C428.375 170.602 447.375 169.601 457.75 158.211C458.562 157.335 457.25 155.958 456.437 156.897C446.437 167.849 428.187 168.537 417.75 157.835C405.875 145.694 403.312 123.54 410.437 108.52C411 107.393 409.375 106.454 408.875 107.518Z" fill="#080F1F"/>
<path d="M440.563 166.284C440.5 172.793 441.875 179.051 444.563 184.996C445.063 186.123 446.688 185.122 446.188 184.058C443.625 178.425 442.375 172.48 442.438 166.284C442.438 165.095 440.563 165.095 440.563 166.284Z" fill="#080F1F"/>
<path d="M444.501 185.434C450.751 189.064 458.688 183.494 463.188 179.301C464.063 178.488 462.751 177.173 461.876 177.987C458.126 181.492 450.751 186.936 445.501 183.87C444.376 183.244 443.438 184.871 444.501 185.434Z" fill="#080F1F"/>
<path d="M419.125 139.936C428.75 146.07 441.75 137.683 446.5 129.047C447.062 127.983 445.437 127.044 444.875 128.108C440.625 135.868 428.812 143.879 420.062 138.309C419.062 137.683 418.125 139.311 419.125 139.936Z" fill="#080F1F"/>
<path d="M442.626 127.42C444.251 128.233 445.501 129.548 446.001 131.3C446.376 132.426 448.188 131.988 447.813 130.799C447.126 128.609 445.626 126.794 443.563 125.793C442.501 125.292 441.563 126.919 442.626 127.42Z" fill="#080F1F"/>
<path d="M425.187 105.077C422.875 111.586 420.062 117.907 416.687 123.915C416.125 124.979 417.687 125.918 418.312 124.854C421.75 118.658 424.625 112.212 427 105.516C427.375 104.452 425.562 103.951 425.187 105.077Z" fill="#080F1F"/>
<path d="M416.938 125.605C418.875 128.296 421.938 129.86 425.25 129.61C426.438 129.547 426.438 127.67 425.25 127.733C422.625 127.92 420.125 126.794 418.563 124.666C417.875 123.665 416.25 124.603 416.938 125.605Z" fill="#080F1F"/>
<path d="M416.75 115.779C416.562 114.34 416.75 112.9 417.312 111.586C416.687 111.586 416.125 111.586 415.5 111.586C416 113.276 415.75 114.966 414.812 116.468C415.375 116.53 415.937 116.593 416.5 116.718C416.25 115.529 416.312 114.34 416.687 113.151C417.062 112.024 415.25 111.524 414.875 112.65C414.375 114.152 414.312 115.654 414.687 117.219C414.875 118.032 416 118.095 416.375 117.469C417.562 115.591 417.875 113.276 417.25 111.148C417 110.209 415.75 110.334 415.437 111.148C414.75 112.838 414.625 114.59 414.875 116.342C415.125 117.469 416.875 116.968 416.75 115.779Z" fill="#080F1F"/>
<path d="M440.688 111.836C440.063 110.272 440.313 108.645 441.501 107.518C441.001 107.393 440.438 107.268 439.938 107.08C440.376 108.895 440.126 110.647 439.188 112.274C439.751 112.337 440.313 112.4 440.876 112.525C440.626 111.336 440.751 110.272 441.126 109.145C441.501 108.019 439.688 107.518 439.313 108.645C438.813 110.084 438.751 111.524 439.063 113.026C439.251 113.839 440.376 113.902 440.751 113.276C441.938 111.211 442.251 108.895 441.688 106.642C441.501 105.954 440.626 105.766 440.126 106.204C438.501 107.831 437.938 110.272 438.813 112.4C439.376 113.464 441.188 112.963 440.688 111.836Z" fill="#080F1F"/>
<path d="M413.562 105.828C414.625 103.513 417.562 102.699 419.562 104.201C420.562 104.89 421.5 103.263 420.5 102.574C417.687 100.509 413.312 101.698 411.937 104.89C411.437 106.016 413.062 106.955 413.562 105.828Z" fill="#080F1F"/>
<path d="M409.188 120.911C409.063 121.036 408.937 121.161 408.812 121.287C408.438 121.662 408.438 122.225 408.812 122.601C409.187 122.976 409.75 122.976 410.125 122.601C410.25 122.476 410.375 122.35 410.5 122.225C410.875 121.85 410.875 121.287 410.5 120.911C410.125 120.536 409.563 120.536 409.188 120.911Z" fill="#080F1F"/>
<path d="M414.687 120.661C414.687 120.661 414.687 120.598 414.687 120.661C414.687 120.786 414.75 120.911 414.812 121.099C414.812 121.099 414.812 121.099 414.812 121.036C414.75 121.224 414.75 121.349 414.687 121.537C414.25 122.037 413.812 122.037 413.375 121.537C413.312 121.349 413.312 121.224 413.25 121.036C413.25 121.036 413.25 121.036 413.25 121.099C413.312 120.911 413.312 120.786 413.375 120.598C413.375 120.598 413.375 120.598 413.375 120.661C413.187 121.099 413.25 121.662 413.687 121.975C414.062 122.225 414.75 122.1 415 121.662C415.187 121.224 415.187 120.786 414.875 120.41C414.687 120.223 414.375 120.097 414.062 120.097C413.75 120.097 413.437 120.223 413.25 120.41C412.875 120.786 412.937 121.224 413.125 121.662C413.312 122.1 414 122.225 414.437 121.975C414.812 121.662 414.875 121.099 414.687 120.661Z" fill="#080F1F"/>
<path d="M411.437 127.232C411.5 127.232 411.625 127.232 411.688 127.232C412.875 127.232 412.875 125.354 411.688 125.354C411.625 125.354 411.5 125.354 411.437 125.354C410.25 125.354 410.25 127.232 411.437 127.232C411.5 127.232 411.625 127.232 411.688 127.232C412.875 127.232 412.875 125.354 411.688 125.354C411.625 125.354 411.5 125.354 411.437 125.354C410.25 125.354 410.25 127.232 411.437 127.232Z" fill="#080F1F"/>
<path d="M438.437 117.97C438.437 117.844 438.437 117.719 438.375 117.594C438.312 117.093 438 116.655 437.437 116.655C437 116.655 436.437 117.093 436.5 117.594C436.5 117.719 436.5 117.844 436.562 117.97C436.625 118.47 436.937 118.908 437.5 118.908C437.937 118.908 438.5 118.533 438.437 117.97Z" fill="#080F1F"/>
<path d="M442.688 116.968C442.813 116.968 442.938 116.968 443.063 116.968C443.563 116.968 444 116.53 444 116.03C444 115.529 443.563 115.091 443.063 115.091C442.938 115.091 442.813 115.091 442.688 115.091C442.188 115.091 441.75 115.529 441.75 116.03C441.75 116.53 442.125 116.968 442.688 116.968Z" fill="#080F1F"/>
<path d="M440.562 120.348C440.562 120.473 440.562 120.598 440.562 120.723C440.562 121.224 441 121.662 441.5 121.662C442 121.662 442.438 121.224 442.438 120.723C442.438 120.598 442.438 120.473 442.438 120.348C442.438 119.847 442 119.409 441.5 119.409C441 119.472 440.562 119.847 440.562 120.348Z" fill="#080F1F"/>
<path d="M436.687 101.886C439.562 100.509 443 100.884 445.5 102.95C446.437 103.701 447.75 102.386 446.812 101.635C443.625 99.0069 439.437 98.5062 435.75 100.321C434.625 100.822 435.625 102.449 436.687 101.886Z" fill="#080F1F"/>
<path d="M464.438 111.711C465.188 110.96 465.938 110.272 466.75 109.521C467.25 109.583 467.75 109.646 468.25 109.709C469.375 109.959 470.25 110.522 471.063 111.211C472.875 112.775 473.813 115.028 474 117.406C474.375 121.349 472.813 126.606 468.063 126.481C466.875 126.481 466.875 128.358 468.063 128.358C475.938 128.546 477.5 118.095 474.5 112.587C473 109.771 470 107.581 466.688 107.643C464.125 107.706 461.5 109.396 462.563 112.212C463.063 113.276 464.875 112.838 464.438 111.711Z" fill="#080F1F"/>
<path d="M420.875 83.674C419.625 83.9869 415.187 85.1134 409.937 89.3065C398.625 98.4436 395.312 112.838 394.25 117.594C392.187 126.982 394.375 127.295 392 134.93C388.75 145.444 384.125 146.445 380.562 155.645C379.375 158.649 374.187 172.042 380.312 183.119C386.562 194.384 401.375 197.638 411.625 196.574C423.437 195.385 436.937 187.625 440.125 175.546C441 172.292 440.937 169.288 440.687 167.098C437.75 167.285 432.437 167.285 426.437 164.907C424.875 164.281 419 161.778 413.875 155.645C409.5 150.45 407.937 145.381 406.812 141.689C405.75 138.059 403.375 129.798 405.75 119.472C407.937 110.084 412.812 104.139 413.812 102.95C419.875 95.8151 427 92.8737 430.375 91.7472C433.375 95.6274 436.312 98.5062 438.5 100.446C443.25 104.639 448.312 109.083 455.812 110.522C458.625 111.085 460.937 111.085 462.437 110.96C462.812 110.397 463.937 108.958 465.937 108.394C469.25 107.456 472.062 109.959 472.562 110.397C474.5 112.087 475 114.215 475.375 115.529C475.625 116.468 476.375 119.659 474.875 123.039C474.5 123.852 473.937 125.042 472.75 126.043C470.5 127.983 467.687 127.858 466.875 127.795C464.562 130.299 461.375 134.429 458.937 140.124C454.937 149.512 455.437 157.773 455.562 160.026C456 165.658 456.75 176.047 465.062 182.994C475.5 191.755 489.437 187.938 491.062 187.5C507.187 182.869 512.437 166.409 512.875 164.845C517.312 150.012 509.625 136.995 505.875 130.674C500.687 121.85 498.125 122.851 486.562 109.959C469.625 91.0588 469.5 82.6726 459.437 78.855C454.062 76.8524 445.062 75.7885 430.625 83.361C428.5 83.0481 424.937 82.7352 420.875 83.674Z" fill="#080F1F"/>
<path d="M441.813 168.224C445.5 167.786 449.375 165.22 452.313 163.03C453.25 162.341 452.313 160.714 451.375 161.402C450 162.466 448.5 163.342 446.938 164.156C445.313 165.032 443.625 166.096 441.75 166.346C440.625 166.472 440.625 168.349 441.813 168.224Z" fill="#080F1F"/>
<path d="M442.375 169.038C444.75 168.662 446.875 167.285 448.938 166.096C450.938 164.907 452.75 163.593 454.375 161.903C455.188 161.027 453.875 159.713 453.063 160.589C450.375 163.468 445.813 166.597 441.875 167.285C440.688 167.473 441.188 169.288 442.375 169.038Z" fill="#080F1F"/>
<path opacity="0.25" d="M481.125 104.89C484.812 111.085 489.75 120.473 493.687 132.739C498.5 147.697 501.375 156.396 496.625 163.217C491.937 169.976 481.25 172.667 472.312 169.663C463.375 166.659 457.062 158.336 456.5 148.573C455.687 152.14 454.812 158.211 456.187 165.533C457.125 170.352 458.312 176.485 463.5 181.617C469.687 187.75 477.562 188.376 480.437 188.626C483.375 188.876 491.125 189.064 498.875 184.245C506.562 179.489 509.625 172.667 510.875 169.914C514.312 162.153 513.812 155.269 513.5 151.765C512.687 141.876 508.437 134.992 506.5 131.863C505.687 130.549 503.812 127.67 494.812 118.408C489.25 112.587 484.5 107.956 481.125 104.89Z" fill="#0F243F"/>
<path opacity="0.15" d="M381.688 153.767C380.938 156.333 379.813 161.841 382 167.849C385.563 177.674 396.688 184.746 408.063 183.056C417.375 181.68 425.188 174.67 427.938 165.158C432.313 165.721 436.688 166.347 441.125 166.91C441.25 169.038 441.125 172.292 439.938 175.984C437.813 182.743 433.563 186.686 431.75 188.313C423.438 195.761 413.438 196.324 409.5 196.512C404.313 196.762 395.875 197.263 388.125 191.505C381.625 186.749 379.188 180.303 378.5 178.05C374.5 165.909 380.688 155.457 381.688 153.767Z" fill="#0F243F"/>
<path opacity="0.15" d="M459.5 127.733C457.125 136.244 453.937 147.697 446.625 154.393C443.5 157.272 436.063 162.466 420.562 161.402C422.438 162.717 426.625 165.22 432.562 165.783C438.5 166.347 443.062 164.657 445.125 163.718C447.437 170.665 449.813 177.612 452.125 184.496C455.438 182.618 458.75 180.803 462.062 178.926C459.812 175.421 455.562 167.723 455.312 157.272C454.937 140.124 465.625 128.797 467.875 126.544C468.75 126.418 471.812 125.73 473.75 123.039C476.312 119.409 475.25 114.152 472.313 111.336C471.75 110.773 469.25 108.394 466.75 109.02C462.75 109.896 462.25 117.719 459.5 127.733Z" fill="#0F243F"/>
<defs>
<linearGradient id="paint0_linear" x1="327.128" y1="149.95" x2="357.333" y2="153.787" gradientUnits="userSpaceOnUse">
<stop stop-color="#0066FF"/>
<stop offset="1" stop-color="#2CE0C5"/>
</linearGradient>
<linearGradient id="paint1_linear" x1="275.406" y1="98.4436" x2="309.416" y2="103.813" gradientUnits="userSpaceOnUse">
<stop stop-color="#0066FF"/>
<stop offset="1" stop-color="#2CE0C5"/>
</linearGradient>
<linearGradient id="paint2_linear" x1="348.125" y1="58.057" x2="365.028" y2="59.3628" gradientUnits="userSpaceOnUse">
<stop stop-color="#0066FF"/>
<stop offset="1" stop-color="#2CE0C5"/>
</linearGradient>
</defs>
</svg>
