<svg width="549" height="550" viewBox="0 0 549 550" fill="none" xmlns="http://www.w3.org/2000/svg">
<path fill-rule="evenodd" clip-rule="evenodd" d="M274.64 545.77C424.11 545.77 545.28 424.601 545.28 275.131C545.28 125.66 424.11 4.49072 274.64 4.49072C125.17 4.49072 4 125.66 4 275.131C4 424.601 125.17 545.77 274.64 545.77Z" fill="#D8D8D8" fill-opacity="0.01" stroke="url(#paint0_linear)" stroke-width="7"/>
<path d="M182.4 401.138V202.547L205.99 214.539V401.275L182.4 401.138ZM262.933 444.31V247.295L286.524 247.706V444.31H262.933ZM114 365.367V184.798L137.726 173.354V360.09L114 365.367ZM270.238 269.018L116.915 194.735L144.505 181.989L280.474 247.5L270.306 269.018H270.238ZM423.137 205.219L265.306 115.792L274.729 94L434.678 184.387L423.205 205.219H423.137ZM275.542 455L114 365.778L125.456 344.929L285.812 433.551L275.542 455ZM132.371 201.724L114 184.798L274.729 94.4112L285.948 115.774L132.371 201.724ZM411.392 364.476V192.679L434.983 184.456V364.544L411.392 364.476ZM276.254 365.864L265.408 344.689L417.629 265.06L428.475 286.252L276.254 365.932V365.864ZM271.17 272.461L261.001 250.944L416.917 175.204L427.086 196.722L271.17 272.461ZM275.559 454.931L265.238 433.465L419.578 345.631L435 364.065L275.559 454.863V454.931Z" fill="url(#paint1_linear)"/>
<defs>
<linearGradient id="paint0_linear" x1="-77.5247" y1="521.923" x2="-98.4432" y2="19.0173" gradientUnits="userSpaceOnUse">
<stop stop-color="white" stop-opacity="0"/>
<stop offset="0.223958" stop-color="#0066FF"/>
<stop offset="1" stop-color="#2CE0C5"/>
</linearGradient>
<linearGradient id="paint1_linear" x1="114" y1="94" x2="483.389" y2="153.232" gradientUnits="userSpaceOnUse">
<stop stop-color="#0066FF"/>
<stop offset="1" stop-color="#2CE0C5"/>
</linearGradient>
</defs>
</svg>
